<?xml version="1.0" encoding="utf-8"?>
<!-- Generator: Adobe Illustrator 24.1.2, SVG Export Plug-In . SVG Version: 6.00 Build 0)  -->
<svg version="1.1" xmlns="http://www.w3.org/2000/svg" xmlns:xlink="http://www.w3.org/1999/xlink" x="0px" y="0px"
	 viewBox="0 0 512 512" style="enable-background:new 0 0 512 512;" xml:space="preserve">
<style type="text/css">
	.st0{fill:#009999;}
	.st1{fill:#006666;}
	.st2{fill:#BBBCBE;}
	.st3{fill:#FFFFFF;}
	.st4{fill:#FFBEB5;}
	.st5{fill:#FF7A69;}
	.st6{fill:#009999;stroke:#000000;stroke-width:6;stroke-miterlimit:10;}
	.st7{display:none;}
	.st8{display:inline;}
	.st9{fill:none;stroke:#000000;stroke-width:15;stroke-linecap:round;stroke-miterlimit:10;}
	.st10{display:none;fill:none;stroke:#000000;stroke-width:10;stroke-linecap:round;stroke-miterlimit:10;}
	.st11{fill:#FFFFFF;stroke:#000000;stroke-width:5;stroke-miterlimit:10;}
	.st12{fill:#FFFFFF;stroke:#000000;stroke-width:5;stroke-linecap:round;stroke-linejoin:round;stroke-miterlimit:10;}
	.st13{fill:url(#SVGID_1_);stroke:#000000;stroke-width:5;stroke-miterlimit:10;}
	.st14{fill:url(#SVGID_2_);stroke:#000000;stroke-width:5;stroke-linecap:round;stroke-linejoin:round;stroke-miterlimit:10;}
	.st15{fill:#5E5E5E;}
	.st16{stroke:#000000;stroke-width:2;stroke-miterlimit:10;}
	.st17{fill:#D01816;}
	.st18{fill:#FED906;}
	.st19{fill:#327A3B;}
	.st20{fill:#28B400;}
	.st21{opacity:0.6;}
</style>
<g id="Mica">
	<g id="Layer_2_1_">
		<path class="st0" d="M354.6,406.3V468c0,10-8.1,18-18,18s-18-8.1-18-18v-63.9L354.6,406.3z"/>
		<polygon class="st1" points="354.6,380.7 354.6,406.3 318.5,404.1 318.5,402.4 318.5,380.7 		"/>
		<path class="st0" d="M282.7,401.9V468c0.2,10-7.7,18.2-17.6,18.5c-10,0.2-18.2-7.7-18.5-17.6c0-0.3,0-0.6,0-0.8v-68.4L282.7,401.9
			z"/>
		<polygon class="st1" points="282.7,399.2 282.7,401.9 246.6,399.6 246.6,396.6 246.6,380.7 282.7,380.7 		"/>
		<path class="st0" d="M210.2,397.3V468c0.2,10-7.7,18.2-17.6,18.5c-10,0.2-18.2-7.7-18.5-17.6c0-0.3,0-0.6,0-0.8v-72.9L210.2,397.3
			z"/>
		<polygon class="st1" points="210.2,394.6 210.2,397.3 174.1,395.1 174.1,393 174.1,380.7 210.2,380.7 		"/>
		<path class="st1" d="M434.7,297.6c10,0,18,8.1,18,18c0,6.7-3.7,12.8-9.6,16l-0.1-0.2v-10.3c0-5.3-4.3-9.6-9.5-9.6l-34.7-0.5v-13.4
			H434.7z"/>
		<path class="st0" d="M443.1,331.4l0.1,0.2c-2.6,1.4-5.5,2.1-8.4,2.1h-35.9V311l34.7,0.5c5.3,0,9.5,4.3,9.5,9.6V331.4z"/>
		<path class="st0" d="M129.9,307.3v26.4H94c-10,0-18-8.1-18.1-18.1c0-3.2,0.8-6.3,2.5-9.1L129.9,307.3z"/>
		<path class="st1" d="M129.9,297.6v9.7l-51.5-0.7c3.2-5.5,9.2-9,15.6-9L129.9,297.6z"/>
		<path class="st1" d="M398.8,242.1v118.8c0,9.7-7,18-16.6,19.6c-0.8,0.1-1.5,0.2-2.3,0.3V256.5c0-76-61.3-137.8-137.3-138.3h-29.5
			c16.5-7.1,34.3-10.7,52.2-10.6C339.2,108.1,398.8,168.2,398.8,242.1z"/>
		<path class="st0" d="M379.9,256.5v124.2c-0.3,0-0.7,0.1-1,0H149.7c-11,0-19.9-8.9-19.9-19.9V244.4c0-53,30.9-100.1,75.5-122.7
			c2.5-1.3,5.1-2.5,7.7-3.6h29.5C318.7,118.5,380.1,180.4,379.9,256.5z"/>
		<path class="st2" d="M318.5,242c0,21.8-13,41.5-33.1,50c-5.6,2.4-11.6,3.8-17.6,4.1c29.8-11.7,44.5-45.4,32.8-75.3
			c-5.9-15-17.8-26.9-32.8-32.8c2.7,0.2,5.3,0.5,7.9,1.1C300.7,194.5,318.5,216.5,318.5,242z"/>
		<path class="st3" d="M267.8,188c29.8,11.7,44.5,45.4,32.8,75.3c-5.9,15-17.8,26.9-32.8,32.8c-1.1,0.1-2.3,0.1-3.4,0.1
			c-29.9,0-54.2-24.3-54.2-54.2c0-29.9,24.3-54.2,54.2-54.2l0,0C265.5,187.9,266.7,187.9,267.8,188z"/>
		<path d="M264.3,300.1c-32,0-58-26-58-58.1c0-32,26-58,58.1-58s58,26,58,58.1c0,23.3-14,44.4-35.5,53.4
			C279.8,298.6,272.1,300.1,264.3,300.1z M264.3,191.7c-27.8,0-50.3,22.6-50.3,50.3c0,27.8,22.6,50.3,50.3,50.3
			c27.8,0,50.3-22.6,50.3-50.3c0-23.7-16.6-44.2-39.7-49.2l0,0C271.5,192.1,267.9,191.8,264.3,191.7L264.3,191.7z"/>
		<path d="M378.9,384.6H149.7c-13.1,0-23.7-10.7-23.8-23.8V244.4c0-52.8,30.5-102.3,77.6-126.2c19.1-9.8,40.3-14.8,61.7-14.6
			c36.4,0.2,71.2,14.8,96.9,40.6l0,0c26,25.9,40.6,61.1,40.6,97.9v118.8C402.7,374,392,384.6,378.9,384.6L378.9,384.6z M264.3,111.4
			c-19.9,0-39.5,4.7-57.2,13.7c-44.6,22.6-73.4,69.4-73.4,119.3v116.4c0,8.8,7.2,16,16,16h229.2c0.9,0,1.8-0.1,2.7-0.3
			c7.7-1.3,13.4-7.9,13.3-15.8V242c0-71.8-57.9-130.1-129.6-130.6H264.3z"/>
		<path d="M192.1,490c-12.1,0-21.9-9.8-21.9-21.9v-91.2h43.9V468C214,480.1,204.2,489.9,192.1,490z M178,384.6V468
			c0,7.8,6.4,14.2,14.2,14.2c7.8,0,14.2-6.3,14.2-14.2v-83.5H178z"/>
		<path d="M264.6,490c-12.1,0-21.9-9.8-21.9-21.9v-91.2h43.9V468C286.5,480.1,276.7,489.9,264.6,490z M250.4,384.6V468
			c0,7.8,6.3,14.2,14.2,14.2c7.8,0,14.2-6.3,14.2-14.2v-83.5H250.4z"/>
		<path d="M336.6,490c-12.1,0-21.9-9.8-21.9-21.9v-91.2h43.9V468C358.5,480.1,348.7,489.9,336.6,490z M322.4,384.6V468
			c0.2,7.8,6.7,14,14.5,13.8c7.5-0.2,13.6-6.3,13.8-13.8v-83.5H322.4z"/>
		<path d="M129.9,337.6H94c-12.1,0-21.9-9.8-21.9-21.9c0-12.1,9.8-21.9,21.9-21.9h35.9c2.1,0,3.9,1.7,3.9,3.9v36.1
			C133.8,335.8,132,337.6,129.9,337.6C129.9,337.6,129.9,337.6,129.9,337.6z M94,301.5c-7.8,0-14.2,6.4-14.2,14.2
			c0,7.8,6.3,14.2,14.2,14.2h32v-28.3H94z"/>
		<path d="M434.7,337.6h-35.9c-2.1,0-3.9-1.7-3.9-3.9v-36.1c0-2.1,1.7-3.9,3.9-3.9h35.9c12.1,0,21.9,9.8,21.9,21.9
			C456.7,327.8,446.8,337.6,434.7,337.6L434.7,337.6z M402.7,329.9h32c7.8,0,14.2-6.3,14.2-14.2c0-7.8-6.3-14.2-14.2-14.2
			c0,0,0,0,0,0h-32L402.7,329.9z"/>
		<path d="M254.2,225.5H275c3.4,0,6.2,2.8,6.2,6.2v20.8c0,3.4-2.8,6.2-6.2,6.2h-20.8c-3.4,0-6.2-2.8-6.2-6.2v-20.8
			C248,228.2,250.8,225.5,254.2,225.5z"/>
		<path d="M264.6,262.5c-11.3,0-20.5-9.2-20.5-20.5s9.2-20.5,20.5-20.5c11.3,0,20.5,9.2,20.5,20.5c0,0,0,0,0,0
			C285.1,253.4,275.9,262.5,264.6,262.5z M264.6,229.3c-7,0-12.7,5.7-12.7,12.7c0,7,5.7,12.7,12.7,12.7c7,0,12.7-5.7,12.7-12.7
			C277.3,235,271.6,229.3,264.6,229.3L264.6,229.3z"/>
	</g>
	<g id="_x22_Umorno_x22__oko">
		<path class="st4" d="M267.3,187.1c29.8,11.7,44.5,45.4,32.8,75.3c-5.9,15-17.8,26.9-32.8,32.8c-1.1,0.1-2.3,0.1-3.4,0.1
			c-29.9,0-54.2-24.3-54.2-54.2s24.3-54.2,54.2-54.2l0,0C265,187,266.1,187,267.3,187.1z"/>
		<circle cx="263.9" cy="245.6" r="15.9"/>
		<path class="st5" d="M317.2,241.1c0,21.8-13,41.5-33.1,50c-5.6,2.4-11.6,3.8-17.6,4.1c29.8-11.7,44.5-45.4,32.8-75.3
			c-5.9-15-17.8-26.9-32.8-32.8c2.7,0.2,5.3,0.5,7.9,1.1C299.4,193.5,317.2,215.6,317.2,241.1z"/>
		<path d="M263.9,300.1c-32,0-58-26-58-58.1c0-32,26-58,58.1-58c32,0,58,26,58,58.1c0,23.3-14,44.4-35.5,53.4
			C279.3,298.5,271.6,300.1,263.9,300.1z M263.9,191.7c-27.8,0-50.3,22.6-50.3,50.3s22.6,50.3,50.3,50.3c27.8,0,50.3-22.6,50.3-50.3
			c0-23.7-16.6-44.2-39.7-49.2l0,0C271,192.1,267.5,191.7,263.9,191.7L263.9,191.7z"/>
		<path d="M264.4,265.6c-11.3-0.1-20.4-9.3-20.4-20.6c0.1-11.3,9.3-20.4,20.6-20.4c11.3,0.1,20.4,9.3,20.4,20.6c0,0,0,0,0,0
			C284.9,256.6,275.7,265.7,264.4,265.6z M264.6,232.5c-7,0-12.7,5.6-12.8,12.7c0,7,5.6,12.7,12.7,12.8c7,0,12.7-5.6,12.8-12.7
			C277.3,238.2,271.6,232.5,264.6,232.5L264.6,232.5z"/>
		<path class="st6" d="M213.6,225.3c0,0,53.7,19.5,100.7,0c-6.6-14.1-17.1-33.6-50.3-35.7S213.6,225.3,213.6,225.3z"/>
	</g>
</g>
<g id="Dredovi_FUSH" class="st7">
	<path class="st8" d="M151.5,176.8c0,0-3.6,23.5-3,27.8c0.6,4.3-1.4-0.6,1.5,5.6s9,16.5,3.9,25.7c-5.1,9.3-8,18.5-6.2,29.8
		c1.9,11.2,7,19.4,2.3,28.1c-4.7,8.7-7.2,20.8,0.4,16.3c7.6-4.5,11.1-9.6,12.2-17.7s-2.9-26.8-3.1-28.3c-0.2-1.4-0.2-4.5-0.2-5.5
		c0-0.9,0.6-6.7,3.5-11.8c2.9-5.1,4.6-12.4,4.2-19.4c-0.4-7,2.3-11.1-3.7-21.6c-6-10.5-1-28.2,0.8-31.9
		C165.8,170.2,151.5,176.8,151.5,176.8z"/>
	<path class="st8" d="M152,184.1c0,0-0.3,18.3-4.5,22.7c-4.2,4.4-14.1,13.8-12.4,25.2c1.7,11.4,5.3,14.5,1.8,26.5
		c-3.4,12.1-6.3,10.4-6.3,19.4s14.2,25.6,6.7,33s-16.6,14.9-20.4,14.1c-3.8-0.7-11.5,0.7-8.4-4.9c3.1-5.7,1.5-7.6,8.5-6.3
		c7,1.3,11.3-9.5,11.3-16.3c0-6.8-6.6-13.1-6.3-20.3c0.3-7,0.2,0,0.3-7c3.7-8.2,8.1-7,7.2-16.8s-3.7-3.4-2.8-26.4
		s12.6-17.7,13.7-28.5C141.4,187.8,152,184.1,152,184.1z"/>
	<path class="st8" d="M136,200.8c0,0-16.5,17.6-16.7,26c-0.2,8.3,1.1,13.3,1.1,13.3s0.6,5.3,6.9,10.8s-1.3,4.6-1.3,4.6l2.9,9.7
		c0,0-9.9-7.7-14.9-17.8c-4.9-10.1-6.3-24.7-1-30.7c5.3-6,5.8-10.4,19.6-22.1C158.7,172.6,136,200.8,136,200.8z"/>
	<path class="st8" d="M163.2,175.7c0,0,19.5,12.6,17.6,29.3c-1.9,16.7-17.5,16.5-16.7,26.6c0.8,10.1,6.8,10.7,7.9,16.9
		s3.8,8.2,0.9,17.2c-2.9,9-7.9,5.9-5.9,22.8s2.6,23.2,5.9,27.3c3.3,4,3.9,8.6,9.1,8.1c5.1-0.6,6.8-0.9,6.8-3.6s3.5-0.2-2.9-12.9
		s-11.3-11.1-7-29c4.3-17.9,19-13.2,8.2-31.3c-10.7-18.1-9.1-13.6-9.1-19.6c0-6,16.7-9.4,15.7-24.8c-1-15.4-13.6-33.1-18.3-34.5
		C170.8,166.7,163.2,175.7,163.2,175.7z"/>
	<path class="st8" d="M205.9,165.2c0,0,5.6,18.2,5.6,22.8c0,4.5,1.9,1.9,0,7.8c-1.9,5.8-14.6,15.2-14.8,25.8
		c-0.3,10.5-5.5,21.5-1.1,30.3c4.4,8.8,7.6,20.6,7.5,24.2s0,6.6,0,6.6s1,9.9-4.8,8.5c-5.8-1.4-6.6-17-10.6-27.3
		c-4-10.3-6.7-20.6-4.2-31.4s9.3-33.2,15.7-36.7c6.3-3.5-1.6-27.9-5.3-30.5S205.9,165.2,205.9,165.2z"/>
	<path class="st8" d="M301,162c0,0,5.4,30.3,16.3,37.9c10.9,7.6,15.2,23.6,14.4,32.6c-0.8,9-3.9,24.5-3.9,29
		c0,4.5,0.8,18.3,6.4,19.5s8-4.9,6.2-8.7c-1.9-3.7-5.6-14.7-3.1-22.9c2.5-8.2,5.4-23.4,1.6-35.4c-3.7-11.9-12.4-21.1-16.9-24.5
		c-4.5-3.5-11.3-24.5-10.3-28.8c1-4.3-11.5-3.9-11.5-3.9L301,162z"/>
	<path class="st8" d="M331.6,165.4c0,0-3.7,8.9-3.5,20.6c0.2,11.7,9.5,41.1,12.8,43.7c3.3,2.6,8.9,8.2,9.5,17.5s1.2,27.9-2.5,33.9
		c-3.7,6-12.5,7-8.4,12.6c4.1,5.6,11.3,1.4,11.3,1.4s4.1-3.1,5.4-7.2c1.2-4.1,4.7-13.8,5.6-18.3c0.8-4.5,1-30.3-3.9-38.4
		s-9.5-9.4-12.7-17.6c-4.2-11-5.6-19.9-5.7-28.4c-0.1-7.5,2.3-14.3,5.7-17.3c3.4-2.9-9.6-7.5-9.6-7.5L331.6,165.4z"/>
	<path class="st8" d="M348.2,175.9c0,0-2.8,20.9,0,29.7c2.8,8.9,2.8,8.9,2.8,8.9s10.2,9.4,12.8,18c2.6,8.6,5.1,25,3.5,29
		c-1.6,4.1-5.5,9.6-6.9,23.2c-1.4,13.6,0.9,21,8.7,24.9s10.1,3.1,9.9-1.4c-0.2-4.5-2.1-3.8-5.6-8.1c-3.5-4.3-3.9-17.5-0.8-25.3
		c3.1-7.8,5.6-20,5.1-27.4c-0.4-7.4-4.1-23.7-8.4-29.5c-4.3-5.8-13-13.8-13-19.6c0-5.8,3.6-20.9,4.1-22.5c0.5-1.6-7.2-7.9-7.2-7.9
		L348.2,175.9z"/>
	<path class="st8" d="M370.2,184c0,0,14.8,5.5,11.9,22.8c-2.9,17.3-5.2,9.3-2.2,29.5s11.6,21.8,11.4,33.2s-25.3,29.9-29.2,40.4
		c-4,10.5,7.8,17.9,12.5,19.4c4.7,1.4,8.4,1.9,7.8-3.5c-0.6-5.4-9.1-6.3-9.1-11.1c0-4.8,2.9-9.2,9.1-14.5
		c6.2-5.3,18.9-17.9,20.2-26.5c1.2-8.7-4.9-22-8.8-28.4s-4.1-22.9-3.3-28.2c0.8-5.3,4.8-18.2,1.4-22.2s-13-14-13-14L370.2,184z"/>
	<path class="st8" d="M400.8,255.4c0,0,15.1,15.2,17.3,25.7c2.2,10.6,2.9,16.5,2.9,16.5l-8.4,2.4c0,0-5.8-20.5-14.6-30
		S400.8,255.4,400.8,255.4z"/>
	<path class="st8" d="M365.6,180.7c0,0-5.8,22.9,0,29.5c5.8,6.6,11.1,13.2,17.9,14.5s12.4,2.7,14.6,3s0.8-9.9,0.8-9.9
		s-9-0.6-15.9-6.1c-6.9-5.5-11.5-14.2-9.1-18.1c2.4-3.9,3-7.6,3-7.6L365.6,180.7z"/>
</g>
<g id="Dredovi">
	<path class="st9" d="M142.3,191.7c2.1,1.1,11.1,14.3,3.3,23.7c-7.8,9.5-14.2,12.3-19.7,18.5s-9.3,14.7-4.7,20.8
		c4.7,6,14.8,11.4,17.3,18.8c2.5,7.4,6.2,19.5,1.6,26.4c-4.5,6.9-23.2,20.2-25.8,20.2"/>
	<path class="st9" d="M155.1,184.1c0,0,9.5,0.4,13.2,14.9c3.7,14.5-7.6,20.6-15,38.4c-7.3,17.7-11.5,20.6,10.8,38.1
		c10.3,8.1-5.1,39.1-7.6,40.3"/>
	<path class="st9" d="M180.2,173.9c2.1-0.4-12.8,8.5-7.4,25.1s9.6,30.4,13.2,33.5c4.9,4.2,14.8,19.8,12.4,30.1s-5.3,23.8-13.1,27.5
		c-7.9,3.7-19.7,16.6-15,25.6c4.7,9,6.3,13.2,11.7,16.2"/>
	<path class="st9" d="M206.4,160c0,0-16.3,18.6-14.2,28s17.3,12.6,6.6,25.4c-10.7,12.8-19.3,19.3-23,20.5
		c-3.7,1.3-16.1,8.2-9.9,15.4c6.2,7.3,15.6,7.9,18.1,9.2c2.5,1.3,21.8,16.6,22.4,23.6c0.7,7-3.5,17.4-5.9,17.8"/>
	<path class="st9" d="M337.8,164c0,0-43.2,30.5-13,43.9c55.2,24.5,34,47.5,31.9,54.6c-2.1,7.1-31.9,11.9-25.6,19.3
		s20.8,18,19.6,29.2"/>
	<path class="st9" d="M360.4,171.2c0,0,1,12.2-9.7,25.3s-27,30.3-20.5,44.6c7.6,16.8,32.4,11.4,33.6,20.3c1.2,8.9,4.8,8.4,0,16.6
		c-4.8,8.2-3,17.4,0,21.9"/>
	<path class="st9" d="M368.6,180c0,0,13.3,3.4,11.3,14.5c-2,11.1-13.4,9.1-16.1,15.7c-2.7,6.6,9.8,21.6,16.3,31
		c6.5,9.4,15.6,18,12.3,33.3s-14.1,19.4-14.1,19.4s-22,13.6-10.2,27.2c11.8,13.6,7.4,6.6,7.4,6.6"/>
	<path class="st9" d="M390.8,189.5c0,0-14,15.5-2.1,32.1s19,18.9,22.5,31.3c3.5,12.5,4.3,18.2,4.3,25.6c0,13.8-12.8,15.2-12.8,15.2"
		/>
	<path class="st9" d="M126.8,191.7c0,0-38.9,32.7-5.5,63"/>
	<path class="st9" d="M397.2,185.7c0,0,27.5,16.9,5.5,51.1"/>
	<path class="st10" d="M190.5,167.1c0,0,15.3,26.8,0,35.6s-29.6,14-40.6,20.6c-11,6.6-15.9,14.5-13.5,22.4
		c2.5,7.9,16.2,12.3,24.2,15.9c8,3.5,18.9,9.6,23.3,14.8c4.4,5.2,7.7,19,9.4,23.8c1.6,4.8-0.5,14.9,0.8,18"/>
	<path class="st10" d="M166.6,179.6c0,0,22.1,7.5,17.4,23.1c-4.8,15.6-15.2,37.6-19.7,41.5c-4.5,3.9-11.3,14.5-13.4,19.1
		c-2.1,4.6-5.3,14.5-3.4,18.3c1.9,3.8,13.6,14.4,10.8,25.8c-2.9,11.3-17.4,19.3-19.1,20.1"/>
	<path class="st9" d="M239.7,152.9c0,0,4.3,40.4-42.4,43.2c0,0-55.2-1.6-61-4.4"/>
	<path class="st10" d="M129.9,262.8c0,0-21.9,17.8-15.4,33.4"/>
	<path class="st10" d="M340.4,167.1c0,0-17.4,25.8,7.1,44.2s23.3,27.7,26.3,38.1c2.9,10.4,3.8,20.8,2.9,22.5
		c-2.9,5.9-11,16.1-23.8,13.6"/>
	<path class="st10" d="M375.2,180c0,0-1.5,17-14.8,19c-13.3,2-19.5,10.1-17,19s6.5,21.8-3.4,31.5s-17.2,13.7-18.1,21
		c-0.9,7.3,4.3,12.8,6.8,18.7c2.5,5.9,0.8,17.7-4,18.2"/>
	<path class="st10" d="M388.4,196.1c0,0,3.2,13.7,2.9,21.2c-0.2,7.5-12.8,7.2-16.1,28.3s3.6,37,6.6,40.2c3,3.3,9.9,18.1,6.2,25.1"/>
	<path class="st9" d="M297.3,154.1c0,0,2.9,40,37.6,44.8c34.7,4.8,45-19,45-19"/>
</g>
<g id="Blunt">
	<g id="Layer_8">
		<path class="st11" d="M272.2,323.1c0,0-6.4-3-7.3,4.2c-0.9,7.2,0.5,7.2,4.6,8.7c1.6-3.2,2.8-9.8,5.3-12.2
			C272.2,323.1,272.2,323.1,272.2,323.1z"/>
		<path class="st11" d="M272.1,327.3c0,0,2.5-5.6,5.6-6.3c3-0.7,4.6,3.3,6.4,3.5c1.8,0.2,7.2-0.9,17.1-0.1
			c9.9,0.8,14.6,1.1,17.6,1.5s6.1,0.9,6.1,0.9s-22.5,14.1-23.4,15.6c-1,1.5-18.5-2.2-20.7-3.2s-10.9-2.6-10.7-3.8
			c0.2-1.2,0.2-1.2,0.2-1.2S271.7,328.9,272.1,327.3z"/>
		<path class="st12" d="M301.7,342c0,0,19-14.3,22.9-15.6c3.9-1.3,8.9,0,13.7-0.1c4.8-0.1,31.6-1.4,37.5-2.2
			c5.9-0.7,15.5-0.3,23.5,2.3c8.1,2.5,21.5,0.7,21.5,0.7s-6.8,4.2-8.6,5.1c-1.9,0.8-13.1,4.4-16.9,8.1c-3.8,3.7-14.1,8-16.1,9.5
			c-2,1.5-12.9,10.5-14.9,11.7c-2,1.2-5.5-4.2-10-5c-4.5-0.8-13.2-2.1-18.1-4.6s-30.8-7.3-36.2-8.1C300.5,343.3,301.7,342,301.7,342
			z"/>
		
			<linearGradient id="SVGID_1_" gradientUnits="userSpaceOnUse" x1="472.343" y1="360.4668" x2="573.0547" y2="360.4668" gradientTransform="matrix(0.6241 9.550462e-02 -9.955856e-02 0.6506 122.4141 64.5938)">
			<stop  offset="0.3064" style="stop-color:#FFFFFF"/>
			<stop  offset="0.739" style="stop-color:#000000"/>
		</linearGradient>
		<path class="st13" d="M363.9,361.1c1.5-2.3,11.8-9,14.7-10.4s19.6-11.4,22-12.5s12.1-5.6,13.7-6.5c1.6-0.8,5.9-3.6,6.1-4.1
			c0.2-0.5,0.6-0.8,0.6-0.8s2.8-1.6,4.1-1.1s4.8,2.4,5.4,4.5c0.6,2.1-1.9,3.5-3.2,10.1s-1.3,8.3-1.3,11.5c0,3.2,0,10-1,12.5
			s-0.6,4.5,0.4,7.3c1,2.7,3,6.9-9.8,1.9c-12.8-5-16.9-4.3-19.3-5s-5.5-3.6-10-4c-4.5-0.3-10.6,1.7-14.9,0.4
			c-4.3-1.3-7.5-3.5-7.5-3.5"/>
		
			<linearGradient id="SVGID_2_" gradientUnits="userSpaceOnUse" x1="542.83" y1="361.5051" x2="568.3984" y2="361.5051" gradientTransform="matrix(0.6241 9.550462e-02 -9.955856e-02 0.6506 122.4141 64.5938)">
			<stop  offset="0" style="stop-color:#E91300"/>
			<stop  offset="1" style="stop-color:#FF9B0A"/>
		</linearGradient>
		<path class="st14" d="M432.1,330.9c0,0,9.3,9.5,9.7,18.2c0.1,4.4-2.9,4.7-3.6,7.5c-0.7,2.8-0.1,7.1-1.3,9.5
			c-1.2,2.4-3.8,7.6-6.5,8c-2.7,0.3-4.6-3.6-5.2-6.3c-0.5-2.7-0.9-12.3-0.1-15.5c0.8-3.2,2.8-9,2.6-11c-0.2-1.6,2.9-7.7,4-9.7
			C431.9,331.2,432.1,330.9,432.1,330.9z"/>
		<g>
			<path class="st15" d="M355.8,340.3c1.4-1.4,3-2.5,4.6-3.5c0.8-0.5,1.6-1,2.5-1.4c0.8-0.4,1.7-0.8,2.6-1.3
				c1.8-0.8,3.6-1.4,5.5-1.8c1.9-0.4,3.8-0.7,5.8-0.6c-3.6,1-7.2,2.3-10.6,3.8C362.6,337,359.2,338.6,355.8,340.3z"/>
		</g>
		<g>
			<path class="st15" d="M366.6,341.6c1.3-1.4,2.8-2.6,4.4-3.6c0.8-0.5,1.6-1,2.4-1.5c0.8-0.5,1.6-0.9,2.5-1.3
				c0.9-0.4,1.7-0.8,2.6-1.1c0.9-0.3,1.8-0.6,2.7-0.8c1.8-0.5,3.7-0.8,5.7-0.7c-0.9,0.3-1.7,0.6-2.6,1c-0.9,0.3-1.7,0.7-2.6,1
				c-1.7,0.7-3.4,1.4-5,2.2c-1.7,0.8-3.3,1.6-5,2.4l-2.5,1.2L366.6,341.6z"/>
		</g>
	</g>
</g>
<g id="Kapica">
	<g id="Layer_9">
		<path class="st16" d="M394.4,193.4c0,0-126.5-84.4-259.8,9.2c-3.4-4.3-20.7-14.5-24.2-21.5c-4-8-10.3-21.6-11.5-29.5
			c-3.3-21.3-2.1-44.2,11.1-68.6c26.2-48.2,117.4-66.7,117.4-66.7s50.7-11.1,78.8,0s81.1,44.5,98.1,77.2S394.4,193.4,394.4,193.4z"
			/>
		<path class="st17" d="M399.3,183.9c0,0-116.2-111.6-272.5,7.8c-11.7-6.7-12.4-7.7-12.4-7.7s123.4-135.4,291.4-20
			C405.9,163.7,399.3,186.1,399.3,183.9z"/>
		<path class="st18" d="M405.6,164.9c-0.5,0.7-142.4-116.7-291.1,19.2c-6.2-8.7-8-12.9-8-12.9S226,35,410,147.4
			C410,147.4,406.3,164.3,405.6,164.9z"/>
		<path class="st19" d="M410,147.4c0,0-166.9-109-303.6,23.8c0,0-2.6-9.1-4.3-17.3c0,0,113.6-141.7,309-23.8
			C411.2,130.1,411.5,135.9,410,147.4z"/>
		<path class="st20" d="M405.9,164"/>
		<path class="st16" d="M98.1,155.1"/>
		<g>
			<path d="M274.1,17.1c12.7,0,22.9,1.5,30.3,4.4c29,11.5,79.5,44.5,94.9,74.2c6.1,11.8,6.8,30.2,2.1,53.2c-2,9.8-4.7,18.5-6.7,24.5
				c-6.4-3.2-16.2-7.6-28.8-12.1c-21.1-7.5-54.5-16.4-93.5-16.4c-50.9,0-98.7,14.8-142.2,44c-1.2-0.8-2.4-1.7-3.8-2.5
				c-3.4-2.3-9.2-6-10.4-8.4c-4.4-8.7-7.7-18.1-9.7-27.3c-5.1-23.7-1.8-45.6,9.8-65.1c26.3-44,112.5-63.5,113.4-63.7
				C229.7,21.9,251.7,17.1,274.1,17.1L274.1,17.1 M274.1,9.1c-23.6,0-46.3,5-46.3,5s-90.1,19.8-118.5,67.4
				c-14.5,24.3-15.4,49.5-10.8,70.8c2.4,11,6.2,20.9,10.4,29.2c3.6,7.2,17.4,13.1,20.8,17.4c49.8-35,99.7-46,142.7-46
				c73.2,0,126.7,31.9,126.7,31.9s24.6-59.8,7.4-92.8s-70.7-66.7-99.1-77.9C297.9,10.3,285.9,9.1,274.1,9.1L274.1,9.1z"/>
		</g>
		<path class="st21" d="M392,107.4c0,0-0.8,45.6-15.7,60.9c-6.2,6.4,20,11.3,20,11.3s16.8-53,14.1-60.2
			C407.7,112.3,392,107.4,392,107.4z"/>
	</g>
</g>
</svg>
