<?xml version="1.0" encoding="utf-8" standalone="no"?>
<!DOCTYPE svg PUBLIC "-//W3C//DTD SVG 1.1//EN"
  "http://www.w3.org/Graphics/SVG/1.1/DTD/svg11.dtd">
<svg xmlns:xlink="http://www.w3.org/1999/xlink" width="460.8pt" height="345.6pt" viewBox="0 0 460.8 345.6" xmlns="http://www.w3.org/2000/svg" version="1.1">
 <metadata>
  <rdf:RDF xmlns:dc="http://purl.org/dc/elements/1.1/" xmlns:cc="http://creativecommons.org/ns#" xmlns:rdf="http://www.w3.org/1999/02/22-rdf-syntax-ns#">
   <cc:Work>
    <dc:type rdf:resource="http://purl.org/dc/dcmitype/StillImage"/>
    <dc:date>2022-10-15T21:35:32.701745</dc:date>
    <dc:format>image/svg+xml</dc:format>
    <dc:creator>
     <cc:Agent>
      <dc:title>Matplotlib v3.5.1, https://matplotlib.org/</dc:title>
     </cc:Agent>
    </dc:creator>
   </cc:Work>
  </rdf:RDF>
 </metadata>
 <defs>
  <style type="text/css">*{stroke-linejoin: round; stroke-linecap: butt}</style>
 </defs>
 <g id="figure_1">
  <g id="patch_1">
   <path d="M 0 345.6 
L 460.8 345.6 
L 460.8 0 
L 0 0 
z
" style="fill: #ffffff"/>
  </g>
  <g id="axes_1">
   <g id="patch_2">
    <path d="M 57.6 307.584 
L 414.72 307.584 
L 414.72 41.472 
L 57.6 41.472 
z
" style="fill: #ffffff"/>
   </g>
   <g id="matplotlib.axis_1">
    <g id="xtick_1">
     <g id="line2d_1">
      <defs>
       <path id="m611b175562" d="M 0 0 
L 0 3.5 
" style="stroke: #000000; stroke-width: 0.8"/>
      </defs>
      <g>
       <use xlink:href="#m611b175562" x="73.832727" y="307.584" style="stroke: #000000; stroke-width: 0.8"/>
      </g>
     </g>
     <g id="text_1">
      <!-- 0 -->
      <g transform="translate(70.651477 322.182437)scale(0.1 -0.1)">
       <defs>
        <path id="DejaVuSans-30" d="M 2034 4250 
Q 1547 4250 1301 3770 
Q 1056 3291 1056 2328 
Q 1056 1369 1301 889 
Q 1547 409 2034 409 
Q 2525 409 2770 889 
Q 3016 1369 3016 2328 
Q 3016 3291 2770 3770 
Q 2525 4250 2034 4250 
z
M 2034 4750 
Q 2819 4750 3233 4129 
Q 3647 3509 3647 2328 
Q 3647 1150 3233 529 
Q 2819 -91 2034 -91 
Q 1250 -91 836 529 
Q 422 1150 422 2328 
Q 422 3509 836 4129 
Q 1250 4750 2034 4750 
z
" transform="scale(0.015625)"/>
       </defs>
       <use xlink:href="#DejaVuSans-30"/>
      </g>
     </g>
    </g>
    <g id="xtick_2">
     <g id="line2d_2">
      <g>
       <use xlink:href="#m611b175562" x="117.134434" y="307.584" style="stroke: #000000; stroke-width: 0.8"/>
      </g>
     </g>
     <g id="text_2">
      <!-- 2 -->
      <g transform="translate(113.953184 322.182437)scale(0.1 -0.1)">
       <defs>
        <path id="DejaVuSans-32" d="M 1228 531 
L 3431 531 
L 3431 0 
L 469 0 
L 469 531 
Q 828 903 1448 1529 
Q 2069 2156 2228 2338 
Q 2531 2678 2651 2914 
Q 2772 3150 2772 3378 
Q 2772 3750 2511 3984 
Q 2250 4219 1831 4219 
Q 1534 4219 1204 4116 
Q 875 4013 500 3803 
L 500 4441 
Q 881 4594 1212 4672 
Q 1544 4750 1819 4750 
Q 2544 4750 2975 4387 
Q 3406 4025 3406 3419 
Q 3406 3131 3298 2873 
Q 3191 2616 2906 2266 
Q 2828 2175 2409 1742 
Q 1991 1309 1228 531 
z
" transform="scale(0.015625)"/>
       </defs>
       <use xlink:href="#DejaVuSans-32"/>
      </g>
     </g>
    </g>
    <g id="xtick_3">
     <g id="line2d_3">
      <g>
       <use xlink:href="#m611b175562" x="160.436141" y="307.584" style="stroke: #000000; stroke-width: 0.8"/>
      </g>
     </g>
     <g id="text_3">
      <!-- 4 -->
      <g transform="translate(157.254891 322.182437)scale(0.1 -0.1)">
       <defs>
        <path id="DejaVuSans-34" d="M 2419 4116 
L 825 1625 
L 2419 1625 
L 2419 4116 
z
M 2253 4666 
L 3047 4666 
L 3047 1625 
L 3713 1625 
L 3713 1100 
L 3047 1100 
L 3047 0 
L 2419 0 
L 2419 1100 
L 313 1100 
L 313 1709 
L 2253 4666 
z
" transform="scale(0.015625)"/>
       </defs>
       <use xlink:href="#DejaVuSans-34"/>
      </g>
     </g>
    </g>
    <g id="xtick_4">
     <g id="line2d_4">
      <g>
       <use xlink:href="#m611b175562" x="203.737847" y="307.584" style="stroke: #000000; stroke-width: 0.8"/>
      </g>
     </g>
     <g id="text_4">
      <!-- 6 -->
      <g transform="translate(200.556597 322.182437)scale(0.1 -0.1)">
       <defs>
        <path id="DejaVuSans-36" d="M 2113 2584 
Q 1688 2584 1439 2293 
Q 1191 2003 1191 1497 
Q 1191 994 1439 701 
Q 1688 409 2113 409 
Q 2538 409 2786 701 
Q 3034 994 3034 1497 
Q 3034 2003 2786 2293 
Q 2538 2584 2113 2584 
z
M 3366 4563 
L 3366 3988 
Q 3128 4100 2886 4159 
Q 2644 4219 2406 4219 
Q 1781 4219 1451 3797 
Q 1122 3375 1075 2522 
Q 1259 2794 1537 2939 
Q 1816 3084 2150 3084 
Q 2853 3084 3261 2657 
Q 3669 2231 3669 1497 
Q 3669 778 3244 343 
Q 2819 -91 2113 -91 
Q 1303 -91 875 529 
Q 447 1150 447 2328 
Q 447 3434 972 4092 
Q 1497 4750 2381 4750 
Q 2619 4750 2861 4703 
Q 3103 4656 3366 4563 
z
" transform="scale(0.015625)"/>
       </defs>
       <use xlink:href="#DejaVuSans-36"/>
      </g>
     </g>
    </g>
    <g id="xtick_5">
     <g id="line2d_5">
      <g>
       <use xlink:href="#m611b175562" x="247.039554" y="307.584" style="stroke: #000000; stroke-width: 0.8"/>
      </g>
     </g>
     <g id="text_5">
      <!-- 8 -->
      <g transform="translate(243.858304 322.182437)scale(0.1 -0.1)">
       <defs>
        <path id="DejaVuSans-38" d="M 2034 2216 
Q 1584 2216 1326 1975 
Q 1069 1734 1069 1313 
Q 1069 891 1326 650 
Q 1584 409 2034 409 
Q 2484 409 2743 651 
Q 3003 894 3003 1313 
Q 3003 1734 2745 1975 
Q 2488 2216 2034 2216 
z
M 1403 2484 
Q 997 2584 770 2862 
Q 544 3141 544 3541 
Q 544 4100 942 4425 
Q 1341 4750 2034 4750 
Q 2731 4750 3128 4425 
Q 3525 4100 3525 3541 
Q 3525 3141 3298 2862 
Q 3072 2584 2669 2484 
Q 3125 2378 3379 2068 
Q 3634 1759 3634 1313 
Q 3634 634 3220 271 
Q 2806 -91 2034 -91 
Q 1263 -91 848 271 
Q 434 634 434 1313 
Q 434 1759 690 2068 
Q 947 2378 1403 2484 
z
M 1172 3481 
Q 1172 3119 1398 2916 
Q 1625 2713 2034 2713 
Q 2441 2713 2670 2916 
Q 2900 3119 2900 3481 
Q 2900 3844 2670 4047 
Q 2441 4250 2034 4250 
Q 1625 4250 1398 4047 
Q 1172 3844 1172 3481 
z
" transform="scale(0.015625)"/>
       </defs>
       <use xlink:href="#DejaVuSans-38"/>
      </g>
     </g>
    </g>
    <g id="xtick_6">
     <g id="line2d_6">
      <g>
       <use xlink:href="#m611b175562" x="290.34126" y="307.584" style="stroke: #000000; stroke-width: 0.8"/>
      </g>
     </g>
     <g id="text_6">
      <!-- 10 -->
      <g transform="translate(283.97876 322.182437)scale(0.1 -0.1)">
       <defs>
        <path id="DejaVuSans-31" d="M 794 531 
L 1825 531 
L 1825 4091 
L 703 3866 
L 703 4441 
L 1819 4666 
L 2450 4666 
L 2450 531 
L 3481 531 
L 3481 0 
L 794 0 
L 794 531 
z
" transform="scale(0.015625)"/>
       </defs>
       <use xlink:href="#DejaVuSans-31"/>
       <use xlink:href="#DejaVuSans-30" x="63.623047"/>
      </g>
     </g>
    </g>
    <g id="xtick_7">
     <g id="line2d_7">
      <g>
       <use xlink:href="#m611b175562" x="333.642967" y="307.584" style="stroke: #000000; stroke-width: 0.8"/>
      </g>
     </g>
     <g id="text_7">
      <!-- 12 -->
      <g transform="translate(327.280467 322.182437)scale(0.1 -0.1)">
       <use xlink:href="#DejaVuSans-31"/>
       <use xlink:href="#DejaVuSans-32" x="63.623047"/>
      </g>
     </g>
    </g>
    <g id="xtick_8">
     <g id="line2d_8">
      <g>
       <use xlink:href="#m611b175562" x="376.944674" y="307.584" style="stroke: #000000; stroke-width: 0.8"/>
      </g>
     </g>
     <g id="text_8">
      <!-- 14 -->
      <g transform="translate(370.582174 322.182437)scale(0.1 -0.1)">
       <use xlink:href="#DejaVuSans-31"/>
       <use xlink:href="#DejaVuSans-34" x="63.623047"/>
      </g>
     </g>
    </g>
   </g>
   <g id="matplotlib.axis_2">
    <g id="ytick_1">
     <g id="line2d_9">
      <defs>
       <path id="md85d011088" d="M 0 0 
L -3.5 0 
" style="stroke: #000000; stroke-width: 0.8"/>
      </defs>
      <g>
       <use xlink:href="#md85d011088" x="57.6" y="269.75183" style="stroke: #000000; stroke-width: 0.8"/>
      </g>
     </g>
     <g id="text_9">
      <!-- 0 -->
      <g transform="translate(44.2375 273.551049)scale(0.1 -0.1)">
       <use xlink:href="#DejaVuSans-30"/>
      </g>
     </g>
    </g>
    <g id="ytick_2">
     <g id="line2d_10">
      <g>
       <use xlink:href="#md85d011088" x="57.6" y="226.858213" style="stroke: #000000; stroke-width: 0.8"/>
      </g>
     </g>
     <g id="text_10">
      <!-- 5 -->
      <g transform="translate(44.2375 230.657432)scale(0.1 -0.1)">
       <defs>
        <path id="DejaVuSans-35" d="M 691 4666 
L 3169 4666 
L 3169 4134 
L 1269 4134 
L 1269 2991 
Q 1406 3038 1543 3061 
Q 1681 3084 1819 3084 
Q 2600 3084 3056 2656 
Q 3513 2228 3513 1497 
Q 3513 744 3044 326 
Q 2575 -91 1722 -91 
Q 1428 -91 1123 -41 
Q 819 9 494 109 
L 494 744 
Q 775 591 1075 516 
Q 1375 441 1709 441 
Q 2250 441 2565 725 
Q 2881 1009 2881 1497 
Q 2881 1984 2565 2268 
Q 2250 2553 1709 2553 
Q 1456 2553 1204 2497 
Q 953 2441 691 2322 
L 691 4666 
z
" transform="scale(0.015625)"/>
       </defs>
       <use xlink:href="#DejaVuSans-35"/>
      </g>
     </g>
    </g>
    <g id="ytick_3">
     <g id="line2d_11">
      <g>
       <use xlink:href="#md85d011088" x="57.6" y="183.964596" style="stroke: #000000; stroke-width: 0.8"/>
      </g>
     </g>
     <g id="text_11">
      <!-- 10 -->
      <g transform="translate(37.875 187.763814)scale(0.1 -0.1)">
       <use xlink:href="#DejaVuSans-31"/>
       <use xlink:href="#DejaVuSans-30" x="63.623047"/>
      </g>
     </g>
    </g>
    <g id="ytick_4">
     <g id="line2d_12">
      <g>
       <use xlink:href="#md85d011088" x="57.6" y="141.070979" style="stroke: #000000; stroke-width: 0.8"/>
      </g>
     </g>
     <g id="text_12">
      <!-- 15 -->
      <g transform="translate(37.875 144.870197)scale(0.1 -0.1)">
       <use xlink:href="#DejaVuSans-31"/>
       <use xlink:href="#DejaVuSans-35" x="63.623047"/>
      </g>
     </g>
    </g>
    <g id="ytick_5">
     <g id="line2d_13">
      <g>
       <use xlink:href="#md85d011088" x="57.6" y="98.177362" style="stroke: #000000; stroke-width: 0.8"/>
      </g>
     </g>
     <g id="text_13">
      <!-- 20 -->
      <g transform="translate(37.875 101.97658)scale(0.1 -0.1)">
       <use xlink:href="#DejaVuSans-32"/>
       <use xlink:href="#DejaVuSans-30" x="63.623047"/>
      </g>
     </g>
    </g>
    <g id="ytick_6">
     <g id="line2d_14">
      <g>
       <use xlink:href="#md85d011088" x="57.6" y="55.283745" style="stroke: #000000; stroke-width: 0.8"/>
      </g>
     </g>
     <g id="text_14">
      <!-- 25 -->
      <g transform="translate(37.875 59.082963)scale(0.1 -0.1)">
       <use xlink:href="#DejaVuSans-32"/>
       <use xlink:href="#DejaVuSans-35" x="63.623047"/>
      </g>
     </g>
    </g>
   </g>
   <g id="line2d_15">
    <path d="M 73.832727 269.494468 
L 86.823239 269.408681 
L 86.931494 269.151319 
L 87.905782 264.089872 
L 88.230545 263.746723 
L 90.503884 263.660936 
L 90.720393 263.403574 
L 91.045156 262.374128 
L 92.127698 257.741617 
L 92.452461 256.797957 
L 93.101987 255.596936 
L 94.292784 251.564936 
L 99.705497 225.314043 
L 101.978837 212.102809 
L 103.277888 203.609872 
L 104.143922 197.433191 
L 105.11821 189.71234 
L 106.525516 178.302638 
L 111.505212 143.558809 
L 112.046483 141.156766 
L 112.371246 140.127319 
L 112.804263 137.639489 
L 114.211569 127.259234 
L 114.861094 123.741957 
L 115.618874 121.597277 
L 116.051891 121.082553 
L 116.376654 120.739404 
L 117.242688 119.195234 
L 117.78396 117.651064 
L 118.325231 116.192681 
L 118.974756 115.334809 
L 122.655401 115.420596 
L 122.980164 116.707404 
L 123.846198 120.482043 
L 124.170961 120.996766 
L 124.712233 121.082553 
L 124.928741 121.16834 
L 125.470012 121.16834 
L 125.903029 121.940426 
L 127.202081 126.744511 
L 128.284623 129.489702 
L 129.691929 135.494809 
L 130.99098 142.100426 
L 131.74876 146.218213 
L 136.620202 173.841702 
L 138.568779 186.881362 
L 141.599898 209.27183 
L 143.007204 219.566298 
L 143.873238 225.742979 
L 146.687849 245.045106 
L 147.120866 246.760851 
L 147.662137 249.420255 
L 147.770391 249.59183 
L 148.636425 253.452255 
L 150.151985 262.459915 
L 151.018019 266.148766 
L 151.667545 267.864511 
L 152.100562 268.465021 
L 152.317071 268.550809 
L 152.533579 268.636596 
L 153.399613 268.722383 
L 153.616122 268.893957 
L 156.430733 268.893957 
L 156.647241 268.722383 
L 156.972004 268.550809 
L 157.188513 268.465021 
L 158.054547 267.692936 
L 158.379309 267.349787 
L 158.704072 267.178213 
L 159.028835 267.092426 
L 159.137089 267.006638 
L 159.353598 266.406128 
L 160.436141 260.915745 
L 160.652649 260.74417 
L 160.869158 260.829957 
L 162.168209 260.74417 
L 162.492972 260.401021 
L 162.817734 259.371574 
L 164.22504 253.194894 
L 165.199328 250.621277 
L 166.065362 246.846638 
L 167.580922 238.954213 
L 168.555211 234.664851 
L 169.529499 229.860766 
L 171.153313 221.625191 
L 172.560618 213.218043 
L 174.725704 198.805787 
L 178.622857 168.780255 
L 179.380637 163.289872 
L 181.437468 147.84817 
L 183.494299 130.604936 
L 184.252079 127.173447 
L 184.576842 125.20034 
L 184.685096 125.114553 
L 184.901605 124.256681 
L 187.607961 107.785532 
L 188.257487 105.640851 
L 191.396861 98.434723 
L 191.721624 98.091574 
L 191.938132 98.005787 
L 194.969252 98.091574 
L 195.294014 98.692085 
L 196.268303 101.437277 
L 196.917828 101.866213 
L 197.783862 101.952 
L 198.000371 102.209362 
L 198.325134 102.89566 
L 199.407676 106.756085 
L 199.840694 107.871319 
L 200.273711 108.729191 
L 201.03149 110.702298 
L 203.954356 122.712511 
L 205.361661 129.918638 
L 206.877221 138.840511 
L 208.501035 149.649702 
L 212.18168 173.58434 
L 213.588985 183.878809 
L 214.996291 194.688 
L 218.02741 217.850553 
L 218.676936 222.054128 
L 219.54297 225.142468 
L 219.975987 227.88766 
L 220.192496 228.316596 
L 222.57409 241.013106 
L 224.089649 246.589277 
L 225.280446 249.677617 
L 226.038226 251.736511 
L 227.445532 253.795404 
L 229.394108 253.709617 
L 229.610617 253.62383 
L 229.718871 253.62383 
L 229.93538 253.452255 
L 230.151888 253.366468 
L 230.69316 253.280681 
L 231.342685 252.68017 
L 231.667448 250.964426 
L 232.425228 247.104 
L 232.749991 246.503489 
L 232.966499 246.417702 
L 234.049042 246.331915 
L 234.373805 246.074553 
L 234.915076 244.187234 
L 235.564602 241.098894 
L 236.105873 239.383149 
L 236.863653 237.838979 
L 237.188416 237.152681 
L 238.379212 233.034894 
L 238.81223 231.490723 
L 239.678264 228.48817 
L 240.436044 225.742979 
L 241.410332 221.453617 
L 245.199231 199.835234 
L 246.065265 193.658553 
L 247.472571 182.849362 
L 248.555114 175.042723 
L 250.070673 164.834043 
L 251.26147 156.255319 
L 252.127504 150.078638 
L 252.993538 143.129872 
L 253.967827 134.551149 
L 255.158624 124.085106 
L 255.591641 121.683064 
L 256.349421 118.937872 
L 256.782438 116.106894 
L 256.890692 115.849532 
L 257.86498 109.844426 
L 259.813557 98.177362 
L 260.571337 95.517957 
L 261.329117 93.459064 
L 263.385948 87.282383 
L 264.143728 86.76766 
L 264.360236 86.853447 
L 267.066593 86.939234 
L 267.49961 88.654979 
L 268.473899 92.086468 
L 268.690407 92.34383 
L 269.77295 92.429617 
L 269.989458 92.686979 
L 270.53073 94.745872 
L 271.829781 99.549957 
L 272.804069 101.179915 
L 273.886612 104.868766 
L 274.319629 106.498723 
L 275.077409 109.243915 
L 277.025986 117.393702 
L 278.6498 125.629277 
L 279.732342 131.805957 
L 280.598376 137.124766 
L 282.655207 151.022298 
L 285.578073 170.238638 
L 288.500938 191.857021 
L 289.583481 200.435745 
L 290.990786 209.700766 
L 291.85682 212.789106 
L 291.965074 212.874894 
L 292.289837 213.90434 
L 292.831109 216.906894 
L 293.913651 223.85566 
L 294.996194 228.573957 
L 295.320957 229.260255 
L 295.645719 229.603404 
L 295.753974 229.603404 
L 295.970482 229.774979 
L 297.053025 229.860766 
L 297.919059 230.632851 
L 298.568585 231.91966 
L 299.21811 232.863319 
L 303.00701 232.777532 
L 303.331772 231.490723 
L 304.306061 227.201362 
L 304.630824 226.858213 
L 304.847332 226.772426 
L 305.821621 226.686638 
L 306.254638 226.257702 
L 306.5794 225.39983 
L 307.661943 220.681532 
L 308.636231 217.250043 
L 310.043537 211.244936 
L 311.342588 204.639319 
L 314.590216 183.449872 
L 315.347996 178.302638 
L 318.703878 156.341106 
L 320.760709 140.899404 
L 321.734998 132.406468 
L 322.709286 124.085106 
L 326.60644 92.429617 
L 327.255965 87.196596 
L 327.905491 83.679319 
L 328.230254 82.135149 
L 328.555017 80.84834 
L 329.204542 76.644766 
L 329.962322 70.982809 
L 330.828356 65.578213 
L 331.369627 62.833021 
L 332.019153 60.602553 
L 334.833764 54.168511 
L 335.266781 53.653787 
L 335.48329 53.568 
L 338.622663 53.653787 
L 338.839172 54.082723 
L 339.380443 56.65634 
L 340.029969 59.229957 
L 340.246477 59.658894 
L 341.437274 59.744681 
L 341.870291 61.031489 
L 342.952834 65.664 
L 344.576648 71.154383 
L 345.334428 74.500085 
L 348.582056 93.030128 
L 349.664599 100.064681 
L 350.422378 104.782979 
L 351.396667 111.045447 
L 352.046192 115.249021 
L 353.561752 125.543489 
L 354.752549 134.122213 
L 356.268109 145.703489 
L 358.108431 159.429447 
L 360.598279 177.959489 
L 362.222093 190.141277 
L 363.521145 195.803234 
L 363.954162 197.862128 
L 365.902738 209.529191 
L 366.44401 211.931234 
L 366.985281 213.646979 
L 367.418298 214.419064 
L 367.634807 214.676426 
L 372.614503 214.590638 
L 373.697046 213.732766 
L 373.913554 213.389617 
L 374.887843 212.617532 
L 374.996097 212.274383 
L 375.753877 207.384511 
L 376.186894 206.097702 
L 376.403402 205.84034 
L 377.485945 205.754553 
L 377.810708 205.411404 
L 378.135471 204.467745 
L 378.89325 200.349957 
L 379.542776 197.261617 
L 380.40881 194.173277 
L 380.950082 191.685447 
L 383.331675 178.988936 
L 383.872947 176.415319 
L 388.960897 147.590809 
L 392.31678 121.854638 
L 394.481865 105.726638 
L 395.780916 95.346383 
L 396.863459 85.909787 
L 398.487273 72.098043 
L 398.487273 72.098043 
" clip-path="url(#pd622b28b82)" style="fill: none; stroke: #0000ff; stroke-width: 1.5; stroke-linecap: square"/>
   </g>
   <g id="line2d_16">
    <path d="M 73.832727 269.75183 
L 86.390222 269.75183 
L 86.606731 295.488 
L 110.530924 295.488 
L 110.747432 269.75183 
L 122.438893 269.75183 
L 122.655401 244.01566 
L 146.038323 244.01566 
L 146.254832 269.75183 
L 158.812327 269.75183 
L 159.028835 295.488 
L 182.953028 295.488 
L 183.169537 269.75183 
L 194.752743 269.75183 
L 194.969252 244.01566 
L 218.243919 244.01566 
L 218.460427 269.75183 
L 231.017922 269.75183 
L 231.234431 295.488 
L 255.05037 295.488 
L 255.266878 269.75183 
L 266.850085 269.75183 
L 267.066593 244.01566 
L 290.124752 244.01566 
L 290.34126 269.75183 
L 302.790501 269.75183 
L 303.00701 295.488 
L 326.714694 295.488 
L 326.931203 269.75183 
L 338.514409 269.75183 
L 338.730918 244.01566 
L 361.680822 244.01566 
L 361.897331 269.75183 
L 374.454826 269.75183 
L 374.671334 295.488 
L 398.054256 295.488 
L 398.270764 269.75183 
L 398.487273 269.75183 
L 398.487273 269.75183 
" clip-path="url(#pd622b28b82)" style="fill: none; stroke: #000000; stroke-width: 1.5; stroke-linecap: square"/>
   </g>
   <g id="patch_3">
    <path d="M 57.6 307.584 
L 57.6 41.472 
" style="fill: none; stroke: #000000; stroke-width: 0.8; stroke-linejoin: miter; stroke-linecap: square"/>
   </g>
   <g id="patch_4">
    <path d="M 414.72 307.584 
L 414.72 41.472 
" style="fill: none; stroke: #000000; stroke-width: 0.8; stroke-linejoin: miter; stroke-linecap: square"/>
   </g>
   <g id="patch_5">
    <path d="M 57.6 307.584 
L 414.72 307.584 
" style="fill: none; stroke: #000000; stroke-width: 0.8; stroke-linejoin: miter; stroke-linecap: square"/>
   </g>
   <g id="patch_6">
    <path d="M 57.6 41.472 
L 414.72 41.472 
" style="fill: none; stroke: #000000; stroke-width: 0.8; stroke-linejoin: miter; stroke-linecap: square"/>
   </g>
  </g>
 </g>
 <defs>
  <clipPath id="pd622b28b82">
   <rect x="57.6" y="41.472" width="357.12" height="266.112"/>
  </clipPath>
 </defs>
</svg>
