<svg width="1280" height="720" xmlns="http://www.w3.org/2000/svg" xmlns:xlink="http://www.w3.org/1999/xlink" overflow="hidden"><defs><clipPath id="clip0"><rect x="0" y="0" width="1280" height="720"/></clipPath></defs><g clip-path="url(#clip0)"><rect x="0" y="0" width="1280" height="720" fill="#FFFFFF"/><path d="M22 681 1171.61 681 1171.61 689 22 689ZM1167.61 673 1191.61 685 1167.61 697Z"/><path d="M4-6.0625e-07 4.0001 672.697-3.9999 672.697-4 6.0625e-07ZM12.0001 668.697 0.000104987 692.697-11.9999 668.697Z" transform="matrix(1 0 0 -1 109 719.697)"/><path d="M282.5 280.5C282.5 266.693 293.469 255.5 307 255.5 320.531 255.5 331.5 266.693 331.5 280.5 331.5 294.307 320.531 305.5 307 305.5 293.469 305.5 282.5 294.307 282.5 280.5Z" stroke="#2F528F" stroke-width="1.33333" stroke-miterlimit="8" fill="#4472C4" fill-rule="evenodd"/><path d="M309.5 426C309.5 412.469 320.469 401.5 334 401.5 347.531 401.5 358.5 412.469 358.5 426 358.5 439.531 347.531 450.5 334 450.5 320.469 450.5 309.5 439.531 309.5 426Z" stroke="#2F528F" stroke-width="1.33333" stroke-miterlimit="8" fill="#4472C4" fill-rule="evenodd"/><path d="M196.5 515C196.5 501.469 207.469 490.5 221 490.5 234.531 490.5 245.5 501.469 245.5 515 245.5 528.531 234.531 539.5 221 539.5 207.469 539.5 196.5 528.531 196.5 515Z" stroke="#2F528F" stroke-width="1.33333" stroke-miterlimit="8" fill="#4472C4" fill-rule="evenodd"/><path d="M392.5 552C392.5 538.469 403.693 527.5 417.5 527.5 431.307 527.5 442.5 538.469 442.5 552 442.5 565.531 431.307 576.5 417.5 576.5 403.693 576.5 392.5 565.531 392.5 552Z" stroke="#2F528F" stroke-width="1.33333" stroke-miterlimit="8" fill="#4472C4" fill-rule="evenodd"/><path d="M214.5 365.5C214.5 351.693 225.469 340.5 239 340.5 252.531 340.5 263.5 351.693 263.5 365.5 263.5 379.307 252.531 390.5 239 390.5 225.469 390.5 214.5 379.307 214.5 365.5Z" stroke="#2F528F" stroke-width="1.33333" stroke-miterlimit="8" fill="#4472C4" fill-rule="evenodd"/><path d="M442.5 396.5C442.5 382.693 453.469 371.5 467 371.5 480.531 371.5 491.5 382.693 491.5 396.5 491.5 410.307 480.531 421.5 467 421.5 453.469 421.5 442.5 410.307 442.5 396.5Z" stroke="#2F528F" stroke-width="1.33333" stroke-miterlimit="8" fill="#4472C4" fill-rule="evenodd"/><rect x="689.5" y="113.5" width="44" height="44" stroke="#2F528F" stroke-width="1.33333" stroke-miterlimit="8" fill="#FF0000"/><rect x="875.5" y="182.5" width="44" height="44" stroke="#2F528F" stroke-width="1.33333" stroke-miterlimit="8" fill="#FF0000"/><rect x="711.5" y="290.5" width="44" height="44" stroke="#2F528F" stroke-width="1.33333" stroke-miterlimit="8" fill="#FF0000"/><rect x="816.5" y="97.5001" width="45" height="44" stroke="#2F528F" stroke-width="1.33333" stroke-miterlimit="8" fill="#FF0000"/><rect x="982.5" y="258.5" width="43.9999" height="44" stroke="#2F528F" stroke-width="1.33333" stroke-miterlimit="8" fill="#FF0000"/><path d="M448.5 119.5 732.476 580.508" stroke="#4472C4" stroke-width="3" stroke-miterlimit="8" fill="none" fill-rule="evenodd"/><path d="M567.5 101.5 838.729 541.815" stroke="#4472C4" stroke-width="3" stroke-miterlimit="8" stroke-dasharray="3 3" fill="none" fill-rule="evenodd"/><path d="M358.5 171.5 621.595 598.609" stroke="#4472C4" stroke-width="3" stroke-miterlimit="8" stroke-dasharray="3 3" fill="none" fill-rule="evenodd"/><text font-family="Calibri,Calibri_MSFontService,sans-serif" font-weight="400" font-size="21" transform="translate(400.021 73)">Granica <tspan font-size="21" x="-16.32" y="26">odlučivanja</tspan><tspan font-size="21" x="340.801" y="584">Vektori podrške</tspan></text><path d="M710.891 651.479 627.018 605.299 627.661 604.131 711.534 650.311ZM626.579 608.863 621.5 601.5 630.437 601.855Z"/><path d="M845.809 627.938 839.412 554.199 840.74 554.084 847.137 627.823ZM836.206 555.816 839.5 547.5 844.177 555.124Z"/></g></svg>