<svg xmlns="http://www.w3.org/2000/svg" xmlns:xlink="http://www.w3.org/1999/xlink" overflow="hidden" viewBox="-1.33 -265 1281.33 985"><defs><clipPath id="clip0"><rect x="0" y="0" width="1280" height="720"/></clipPath><clipPath id="clip1"><rect x="315" y="-64" width="158" height="405"/></clipPath><clipPath id="clip2"><rect x="652" y="-265" width="136" height="807"/></clipPath></defs><g clip-path="url(#clip0)"><rect x="0" y="0" width="1280" height="720" fill="#FFFFFF"/><path d="M0 76.0888 157.6 76.0888 157.6 200.889 0 200.889Z" fill="#E7E7E7" fill-rule="evenodd"/><path d="M157.6 76.0888 315.2 76.0888 315.2 200.889 157.6 200.889Z" fill="#E7E7E7" fill-rule="evenodd"/><path d="M315.2 76.0888 472.8 76.0888 472.8 200.889 315.2 200.889Z" fill="#E7E7E7" fill-rule="evenodd"/><path d="M472.8 76.0888 652.155 76.0888 652.155 200.889 472.8 200.889Z" fill="#E7E7E7" fill-rule="evenodd"/><path d="M652.155 76.0888 788 76.0888 788 200.889 652.155 200.889Z" fill="#E7E7E7" fill-rule="evenodd"/><path d="M788 76.0888 945.6 76.0888 945.6 200.889 788 200.889Z" fill="#E7E7E7" fill-rule="evenodd"/><path d="M945.6 76.0888 1103.2 76.0888 1103.2 200.889 945.6 200.889Z" fill="#E7E7E7" fill-rule="evenodd"/><path d="M1103.2 76.0888 1260.8 76.0888 1260.8 200.889 1103.2 200.889Z" fill="#E7E7E7" fill-rule="evenodd"/><path d="M0 200.889 157.6 200.889 157.6 239.289 0 239.289Z" fill="#CBCBCB" fill-rule="evenodd"/><path d="M157.6 200.889 315.2 200.889 315.2 239.289 157.6 239.289Z" fill="#CBCBCB" fill-rule="evenodd"/><path d="M315.2 200.889 472.8 200.889 472.8 239.289 315.2 239.289Z" fill="#CBCBCB" fill-rule="evenodd"/><path d="M472.8 200.889 652.155 200.889 652.155 239.289 472.8 239.289Z" fill="#CBCBCB" fill-rule="evenodd"/><path d="M652.155 200.889 788 200.889 788 239.289 652.155 239.289Z" fill="#CBCBCB" fill-rule="evenodd"/><path d="M788 200.889 945.6 200.889 945.6 239.289 788 239.289Z" fill="#CBCBCB" fill-rule="evenodd"/><path d="M945.6 200.889 1103.2 200.889 1103.2 239.289 945.6 239.289Z" fill="#CBCBCB" fill-rule="evenodd"/><path d="M1103.2 200.889 1260.8 200.889 1260.8 239.289 1103.2 239.289Z" fill="#CBCBCB" fill-rule="evenodd"/><path d="M157.6 75.4222 157.6 239.955" stroke="#000000" stroke-width="1.33333" stroke-linejoin="round" stroke-miterlimit="10" fill="none" fill-rule="evenodd"/><path d="M315.2 75.4222 315.2 239.955" stroke="#000000" stroke-width="1.33333" stroke-linejoin="round" stroke-miterlimit="10" fill="none" fill-rule="evenodd"/><path d="M472.8 75.4222 472.8 239.955" stroke="#000000" stroke-width="1.33333" stroke-linejoin="round" stroke-miterlimit="10" fill="none" fill-rule="evenodd"/><path d="M652.155 75.4222 652.155 239.955" stroke="#000000" stroke-width="1.33333" stroke-linejoin="round" stroke-miterlimit="10" fill="none" fill-rule="evenodd"/><path d="M788 75.4222 788 239.955" stroke="#000000" stroke-width="1.33333" stroke-linejoin="round" stroke-miterlimit="10" fill="none" fill-rule="evenodd"/><path d="M945.6 75.4222 945.6 239.955" stroke="#000000" stroke-width="1.33333" stroke-linejoin="round" stroke-miterlimit="10" fill="none" fill-rule="evenodd"/><path d="M1103.2 75.4222 1103.2 239.955" stroke="#000000" stroke-width="1.33333" stroke-linejoin="round" stroke-miterlimit="10" fill="none" fill-rule="evenodd"/><path d="M-0.666667 200.889 1261.47 200.889" stroke="#000000" stroke-width="1.33333" stroke-linejoin="round" stroke-miterlimit="10" fill="none" fill-rule="evenodd"/><path d="M0 75.4222 0 239.955" stroke="#000000" stroke-width="1.33333" stroke-linejoin="round" stroke-miterlimit="10" fill="none" fill-rule="evenodd"/><path d="M1260.8 75.4222 1260.8 239.955" stroke="#000000" stroke-width="1.33333" stroke-linejoin="round" stroke-miterlimit="10" fill="none" fill-rule="evenodd"/><path d="M-0.666667 76.0888 1261.47 76.0888" stroke="#000000" stroke-width="1.33333" stroke-linejoin="round" stroke-miterlimit="10" fill="none" fill-rule="evenodd"/><path d="M-0.666667 239.289 1261.47 239.289" stroke="#000000" stroke-width="1.33333" stroke-linejoin="round" stroke-miterlimit="10" fill="none" fill-rule="evenodd"/><text font-family="Calibri,Calibri_MSFontService,sans-serif" font-weight="700" font-size="24" transform="translate(39.5833 146)">Metoda<tspan font-size="24" x="148.513" y="-14">Logistička </tspan><tspan font-size="24" x="154.253" y="15">regresija</tspan></text><g clip-path="url(#clip1)"><text font-family="Calibri,Calibri_MSFontService,sans-serif" font-weight="700" font-size="24" transform="translate(326.623 132)">SVM (linearni </text></g><text font-family="Calibri,Calibri_MSFontService,sans-serif" font-weight="700" font-size="24" transform="translate(359.243 161)">kernel)<tspan font-size="24" x="180.107" y="-44">SVM </tspan><tspan font-size="24" x="134.067" y="-15">(polinomijalni </tspan><tspan font-size="24" x="168.474" y="14">kernel)</tspan></text><g clip-path="url(#clip2)"><text font-family="Calibri,Calibri_MSFontService,sans-serif" font-weight="700" font-size="24" transform="translate(662.381 103)">SVM (radial </text></g><text font-family="Calibri,Calibri_MSFontService,sans-serif" font-weight="700" font-size="24" transform="translate(695.327 132)">basis <tspan font-size="24" x="-16.8333" y="29">function </tspan><tspan font-size="24" x="-10.0067" y="58">kernel)</tspan><tspan font-size="24" x="129.296" y="14">XGBoost</tspan><tspan font-size="24" x="287.406" y="-15">Random </tspan><tspan font-size="24" x="298.399" y="14">Forest </tspan><tspan font-size="24" x="269.286" y="43">Classificator</tspan><tspan font-size="24" x="464.506" y="14">CNN</tspan><tspan font-weight="400" font-size="24" x="-653.457" y="96">Tačnost</tspan><tspan font-weight="400" font-size="24" x="-494.844" y="96">66.33%</tspan><tspan font-weight="400" font-size="24" x="-337.244" y="96">70.11%</tspan><tspan font-weight="400" font-size="24" x="-168.767" y="96">52.67%</tspan><tspan font-weight="400" font-size="24" x="-11.1666" y="96">51.45%</tspan><tspan font-weight="400" font-size="24" x="135.556" y="96">85.90%</tspan><tspan font-weight="400" font-size="24" x="293.156" y="96">82.67%</tspan><tspan font-weight="400" font-size="24" x="450.756" y="96">97.28%</tspan></text></g></svg>