<?xml version="1.0" encoding="UTF-8" standalone="no"?>
<svg
   width="460.8pt"
   height="345.6pt"
   viewBox="0 0 460.8 345.6"
   version="1.1"
   id="svg345"
   sodipodi:docname="Figure_Srpski3.svg"
   inkscape:version="1.2.1 (9c6d41e410, 2022-07-14)"
   xmlns:inkscape="http://www.inkscape.org/namespaces/inkscape"
   xmlns:sodipodi="http://sodipodi.sourceforge.net/DTD/sodipodi-0.dtd"
   xmlns:xlink="http://www.w3.org/1999/xlink"
   xmlns="http://www.w3.org/2000/svg"
   xmlns:svg="http://www.w3.org/2000/svg"
   xmlns:rdf="http://www.w3.org/1999/02/22-rdf-syntax-ns#"
   xmlns:cc="http://creativecommons.org/ns#"
   xmlns:dc="http://purl.org/dc/elements/1.1/">
  <sodipodi:namedview
     id="namedview347"
     pagecolor="#ffffff"
     bordercolor="#999999"
     borderopacity="1"
     inkscape:showpageshadow="0"
     inkscape:pageopacity="0"
     inkscape:pagecheckerboard="0"
     inkscape:deskcolor="#d1d1d1"
     inkscape:document-units="pt"
     showgrid="false"
     inkscape:zoom="2.1533203"
     inkscape:cx="408.67121"
     inkscape:cy="441.64354"
     inkscape:window-width="2560"
     inkscape:window-height="1371"
     inkscape:window-x="0"
     inkscape:window-y="0"
     inkscape:window-maximized="1"
     inkscape:current-layer="svg345" />
  <metadata
     id="metadata2">
    <rdf:RDF>
      <cc:Work>
        <dc:type
           rdf:resource="http://purl.org/dc/dcmitype/StillImage" />
        <dc:date>2022-11-18T11:21:29.755259</dc:date>
        <dc:format>image/svg+xml</dc:format>
        <dc:creator>
          <cc:Agent>
            <dc:title>Matplotlib v3.6.1, https://matplotlib.org/</dc:title>
          </cc:Agent>
        </dc:creator>
      </cc:Work>
    </rdf:RDF>
  </metadata>
  <defs
     id="defs6">
    <style
       type="text/css"
       id="style4">*{stroke-linejoin: round; stroke-linecap: butt}</style>
  </defs>
  <g
     id="figure_1">
    <g
       id="patch_1">
      <path
         d="M 0 345.6  L 460.8 345.6  L 460.8 0  L 0 0  z "
         style="fill: #ffffff"
         id="path8" />
    </g>
    <g
       id="axes_1">
      <g
         id="patch_2">
        <path
           d="M 57.6 307.584  L 414.72 307.584  L 414.72 41.472  L 57.6 41.472  z "
           style="fill: #ffffff"
           id="path11" />
      </g>
      <g
         id="matplotlib.axis_1">
        <g
           id="xtick_1">
          <g
             id="line2d_1">
            <defs
               id="defs15">
              <path
                 id="m58ba2e0e11"
                 d="M 0 0  L 0 3.5  "
                 style="stroke: #000000; stroke-width: 0.8" />
            </defs>
            <g
               id="g19">
              <use
                 xlink:href="#m58ba2e0e11"
                 x="73.832727"
                 y="307.584"
                 style="stroke: #000000; stroke-width: 0.8"
                 id="use17" />
            </g>
          </g>
          <g
             id="text_1">
            <!-- 0 -->
            <g
               transform="translate(70.651477 322.182437) scale(0.1 -0.1)"
               id="g27">
              <defs
                 id="defs23">
                <path
                   id="DejaVuSans-30"
                   d="M 2034 4250  Q 1547 4250 1301 3770  Q 1056 3291 1056 2328  Q 1056 1369 1301 889  Q 1547 409 2034 409  Q 2525 409 2770 889  Q 3016 1369 3016 2328  Q 3016 3291 2770 3770  Q 2525 4250 2034 4250  z M 2034 4750  Q 2819 4750 3233 4129  Q 3647 3509 3647 2328  Q 3647 1150 3233 529  Q 2819 -91 2034 -91  Q 1250 -91 836 529  Q 422 1150 422 2328  Q 422 3509 836 4129  Q 1250 4750 2034 4750  z "
                   transform="scale(0.015625)" />
              </defs>
              <use
                 xlink:href="#DejaVuSans-30"
                 id="use25" />
            </g>
          </g>
        </g>
        <g
           id="xtick_2">
          <g
             id="line2d_2">
            <g
               id="g33">
              <use
                 xlink:href="#m58ba2e0e11"
                 x="127.941818"
                 y="307.584"
                 style="stroke: #000000; stroke-width: 0.8"
                 id="use31" />
            </g>
          </g>
          <g
             id="text_2">
            <!-- 500 -->
            <g
               transform="translate(118.398068 322.182437) scale(0.1 -0.1)"
               id="g45">
              <defs
                 id="defs37">
                <path
                   id="DejaVuSans-35"
                   d="M 691 4666  L 3169 4666  L 3169 4134  L 1269 4134  L 1269 2991  Q 1406 3038 1543 3061  Q 1681 3084 1819 3084  Q 2600 3084 3056 2656  Q 3513 2228 3513 1497  Q 3513 744 3044 326  Q 2575 -91 1722 -91  Q 1428 -91 1123 -41  Q 819 9 494 109  L 494 744  Q 775 591 1075 516  Q 1375 441 1709 441  Q 2250 441 2565 725  Q 2881 1009 2881 1497  Q 2881 1984 2565 2268  Q 2250 2553 1709 2553  Q 1456 2553 1204 2497  Q 953 2441 691 2322  L 691 4666  z "
                   transform="scale(0.015625)" />
              </defs>
              <use
                 xlink:href="#DejaVuSans-35"
                 id="use39" />
              <use
                 xlink:href="#DejaVuSans-30"
                 x="63.623047"
                 id="use41" />
              <use
                 xlink:href="#DejaVuSans-30"
                 x="127.246094"
                 id="use43" />
            </g>
          </g>
        </g>
        <g
           id="xtick_3">
          <g
             id="line2d_3">
            <g
               id="g51">
              <use
                 xlink:href="#m58ba2e0e11"
                 x="182.050909"
                 y="307.584"
                 style="stroke: #000000; stroke-width: 0.8"
                 id="use49" />
            </g>
          </g>
          <g
             id="text_3">
            <!-- 1000 -->
            <g
               transform="translate(169.325909 322.182437) scale(0.1 -0.1)"
               id="g65">
              <defs
                 id="defs55">
                <path
                   id="DejaVuSans-31"
                   d="M 794 531  L 1825 531  L 1825 4091  L 703 3866  L 703 4441  L 1819 4666  L 2450 4666  L 2450 531  L 3481 531  L 3481 0  L 794 0  L 794 531  z "
                   transform="scale(0.015625)" />
              </defs>
              <use
                 xlink:href="#DejaVuSans-31"
                 id="use57" />
              <use
                 xlink:href="#DejaVuSans-30"
                 x="63.623047"
                 id="use59" />
              <use
                 xlink:href="#DejaVuSans-30"
                 x="127.246094"
                 id="use61" />
              <use
                 xlink:href="#DejaVuSans-30"
                 x="190.869141"
                 id="use63" />
            </g>
          </g>
        </g>
        <g
           id="xtick_4">
          <g
             id="line2d_4">
            <g
               id="g71">
              <use
                 xlink:href="#m58ba2e0e11"
                 x="236.16"
                 y="307.584"
                 style="stroke: #000000; stroke-width: 0.8"
                 id="use69" />
            </g>
          </g>
          <g
             id="text_4">
            <!-- 1500 -->
            <g
               transform="translate(223.435 322.182437) scale(0.1 -0.1)"
               id="g82">
              <use
                 xlink:href="#DejaVuSans-31"
                 id="use74" />
              <use
                 xlink:href="#DejaVuSans-35"
                 x="63.623047"
                 id="use76" />
              <use
                 xlink:href="#DejaVuSans-30"
                 x="127.246094"
                 id="use78" />
              <use
                 xlink:href="#DejaVuSans-30"
                 x="190.869141"
                 id="use80" />
            </g>
          </g>
        </g>
        <g
           id="xtick_5">
          <g
             id="line2d_5">
            <g
               id="g88">
              <use
                 xlink:href="#m58ba2e0e11"
                 x="290.269091"
                 y="307.584"
                 style="stroke: #000000; stroke-width: 0.8"
                 id="use86" />
            </g>
          </g>
          <g
             id="text_5">
            <!-- 2000 -->
            <g
               transform="translate(277.544091 322.182437) scale(0.1 -0.1)"
               id="g102">
              <defs
                 id="defs92">
                <path
                   id="DejaVuSans-32"
                   d="M 1228 531  L 3431 531  L 3431 0  L 469 0  L 469 531  Q 828 903 1448 1529  Q 2069 2156 2228 2338  Q 2531 2678 2651 2914  Q 2772 3150 2772 3378  Q 2772 3750 2511 3984  Q 2250 4219 1831 4219  Q 1534 4219 1204 4116  Q 875 4013 500 3803  L 500 4441  Q 881 4594 1212 4672  Q 1544 4750 1819 4750  Q 2544 4750 2975 4387  Q 3406 4025 3406 3419  Q 3406 3131 3298 2873  Q 3191 2616 2906 2266  Q 2828 2175 2409 1742  Q 1991 1309 1228 531  z "
                   transform="scale(0.015625)" />
              </defs>
              <use
                 xlink:href="#DejaVuSans-32"
                 id="use94" />
              <use
                 xlink:href="#DejaVuSans-30"
                 x="63.623047"
                 id="use96" />
              <use
                 xlink:href="#DejaVuSans-30"
                 x="127.246094"
                 id="use98" />
              <use
                 xlink:href="#DejaVuSans-30"
                 x="190.869141"
                 id="use100" />
            </g>
          </g>
        </g>
        <g
           id="xtick_6">
          <g
             id="line2d_6">
            <g
               id="g108">
              <use
                 xlink:href="#m58ba2e0e11"
                 x="344.378182"
                 y="307.584"
                 style="stroke: #000000; stroke-width: 0.8"
                 id="use106" />
            </g>
          </g>
          <g
             id="text_6">
            <!-- 2500 -->
            <g
               transform="translate(331.653182 322.182437) scale(0.1 -0.1)"
               id="g119">
              <use
                 xlink:href="#DejaVuSans-32"
                 id="use111" />
              <use
                 xlink:href="#DejaVuSans-35"
                 x="63.623047"
                 id="use113" />
              <use
                 xlink:href="#DejaVuSans-30"
                 x="127.246094"
                 id="use115" />
              <use
                 xlink:href="#DejaVuSans-30"
                 x="190.869141"
                 id="use117" />
            </g>
          </g>
        </g>
        <g
           id="xtick_7">
          <g
             id="line2d_7">
            <g
               id="g125">
              <use
                 xlink:href="#m58ba2e0e11"
                 x="398.487273"
                 y="307.584"
                 style="stroke: #000000; stroke-width: 0.8"
                 id="use123" />
            </g>
          </g>
          <g
             id="text_7">
            <!-- 3000 -->
            <g
               transform="translate(385.762273 322.182437) scale(0.1 -0.1)"
               id="g139">
              <defs
                 id="defs129">
                <path
                   id="DejaVuSans-33"
                   d="M 2597 2516  Q 3050 2419 3304 2112  Q 3559 1806 3559 1356  Q 3559 666 3084 287  Q 2609 -91 1734 -91  Q 1441 -91 1130 -33  Q 819 25 488 141  L 488 750  Q 750 597 1062 519  Q 1375 441 1716 441  Q 2309 441 2620 675  Q 2931 909 2931 1356  Q 2931 1769 2642 2001  Q 2353 2234 1838 2234  L 1294 2234  L 1294 2753  L 1863 2753  Q 2328 2753 2575 2939  Q 2822 3125 2822 3475  Q 2822 3834 2567 4026  Q 2313 4219 1838 4219  Q 1578 4219 1281 4162  Q 984 4106 628 3988  L 628 4550  Q 988 4650 1302 4700  Q 1616 4750 1894 4750  Q 2613 4750 3031 4423  Q 3450 4097 3450 3541  Q 3450 3153 3228 2886  Q 3006 2619 2597 2516  z "
                   transform="scale(0.015625)" />
              </defs>
              <use
                 xlink:href="#DejaVuSans-33"
                 id="use131" />
              <use
                 xlink:href="#DejaVuSans-30"
                 x="63.623047"
                 id="use133" />
              <use
                 xlink:href="#DejaVuSans-30"
                 x="127.246094"
                 id="use135" />
              <use
                 xlink:href="#DejaVuSans-30"
                 x="190.869141"
                 id="use137" />
            </g>
          </g>
        </g>
        <g
           aria-label="Vreme"
           id="text342"
           style="font-size:9px;stroke-width:0.75">
          <path
             d="M 225.34589,336.03503 222.841,329.474 h 0.92725 l 2.07861,5.52392 2.08301,-5.52392 h 0.92285 l -2.50049,6.56103 z"
             id="path388" />
          <path
             d="m 232.62762,331.86902 q -0.13623,-0.0791 -0.29882,-0.11426 -0.15821,-0.0395 -0.35157,-0.0395 -0.68554,0 -1.05468,0.44824 -0.36475,0.44385 -0.36475,1.27881 v 2.59277 h -0.81299 v -4.92187 h 0.81299 v 0.76465 q 0.25488,-0.44824 0.66357,-0.66358 0.4087,-0.21972 0.99317,-0.21972 0.0835,0 0.18457,0.0132 0.10107,0.009 0.22412,0.0308 z"
             id="path390" />
          <path
             d="m 237.48798,333.37195 v 0.39551 h -3.71778 q 0.0527,0.83496 0.50098,1.27441 0.45264,0.43506 1.25684,0.43506 0.46582,0 0.90087,-0.11426 0.43946,-0.11426 0.87012,-0.34277 v 0.76465 q -0.43506,0.18457 -0.89209,0.28125 -0.45703,0.0967 -0.92724,0.0967 -1.17774,0 -1.86768,-0.68555 -0.68555,-0.68555 -0.68555,-1.85449 0,-1.2085 0.65039,-1.91602 0.65479,-0.71191 1.76221,-0.71191 0.99316,0 1.56885,0.6416 0.58008,0.63721 0.58008,1.73584 z m -0.8086,-0.23731 q -0.009,-0.66357 -0.37353,-1.05908 -0.36035,-0.39551 -0.95801,-0.39551 -0.67676,0 -1.08545,0.38233 -0.4043,0.38232 -0.46582,1.07666 z"
             id="path392" />
          <path
             d="m 242.64716,332.05798 q 0.30322,-0.54492 0.72509,-0.8042 0.42188,-0.25927 0.99317,-0.25927 0.76904,0 1.18652,0.54052 0.41748,0.53614 0.41748,1.5293 v 2.9707 h -0.81299 v -2.94433 q 0,-0.70752 -0.25049,-1.05029 -0.25048,-0.34278 -0.76464,-0.34278 -0.62842,0 -0.99317,0.41748 -0.36474,0.41748 -0.36474,1.13819 v 2.78173 h -0.81299 v -2.94433 q 0,-0.71192 -0.25049,-1.05029 -0.25049,-0.34278 -0.77344,-0.34278 -0.61963,0 -0.98437,0.42188 -0.36475,0.41748 -0.36475,1.13379 v 2.78173 h -0.81299 v -4.92187 h 0.81299 v 0.76465 q 0.27686,-0.45264 0.66358,-0.66797 0.38671,-0.21533 0.91845,-0.21533 0.53614,0 0.90967,0.27246 0.37793,0.27246 0.55811,0.79101 z"
             id="path394" />
          <path
             d="m 251.79218,333.37195 v 0.39551 h -3.71778 q 0.0527,0.83496 0.50098,1.27441 0.45264,0.43506 1.25683,0.43506 0.46582,0 0.90088,-0.11426 0.43946,-0.11426 0.87012,-0.34277 v 0.76465 q -0.43506,0.18457 -0.89209,0.28125 -0.45703,0.0967 -0.92725,0.0967 -1.17773,0 -1.86767,-0.68555 -0.68555,-0.68555 -0.68555,-1.85449 0,-1.2085 0.65039,-1.91602 0.65479,-0.71191 1.76221,-0.71191 0.99316,0 1.56885,0.6416 0.58008,0.63721 0.58008,1.73584 z m -0.8086,-0.23731 q -0.009,-0.66357 -0.37353,-1.05908 -0.36036,-0.39551 -0.95801,-0.39551 -0.67676,0 -1.08545,0.38233 -0.4043,0.38232 -0.46582,1.07666 z"
             id="path396" />
        </g>
      </g>
      <g
         id="matplotlib.axis_2">
        <g
           id="ytick_1">
          <g
             id="line2d_8">
            <defs
               id="defs162">
              <path
                 id="m203b591927"
                 d="M 0 0  L -3.5 0  "
                 style="stroke: #000000; stroke-width: 0.8" />
            </defs>
            <g
               id="g166">
              <use
                 xlink:href="#m203b591927"
                 x="57.6"
                 y="295.487857"
                 style="stroke: #000000; stroke-width: 0.8"
                 id="use164" />
            </g>
          </g>
          <g
             id="text_9">
            <!-- 0.0 -->
            <g
               transform="translate(34.696875 299.287075) scale(0.1 -0.1)"
               id="g178">
              <defs
                 id="defs170">
                <path
                   id="DejaVuSans-2e"
                   d="M 684 794  L 1344 794  L 1344 0  L 684 0  L 684 794  z "
                   transform="scale(0.015625)" />
              </defs>
              <use
                 xlink:href="#DejaVuSans-30"
                 id="use172" />
              <use
                 xlink:href="#DejaVuSans-2e"
                 x="63.623047"
                 id="use174" />
              <use
                 xlink:href="#DejaVuSans-30"
                 x="95.410156"
                 id="use176" />
            </g>
          </g>
        </g>
        <g
           id="ytick_2">
          <g
             id="line2d_9">
            <g
               id="g184">
              <use
                 xlink:href="#m203b591927"
                 x="57.6"
                 y="258.938143"
                 style="stroke: #000000; stroke-width: 0.8"
                 id="use182" />
            </g>
          </g>
          <g
             id="text_10">
            <!-- 2.5 -->
            <g
               transform="translate(34.696875 262.737362) scale(0.1 -0.1)"
               id="g193">
              <use
                 xlink:href="#DejaVuSans-32"
                 id="use187" />
              <use
                 xlink:href="#DejaVuSans-2e"
                 x="63.623047"
                 id="use189" />
              <use
                 xlink:href="#DejaVuSans-35"
                 x="95.410156"
                 id="use191" />
            </g>
          </g>
        </g>
        <g
           id="ytick_3">
          <g
             id="line2d_10">
            <g
               id="g199">
              <use
                 xlink:href="#m203b591927"
                 x="57.6"
                 y="222.388429"
                 style="stroke: #000000; stroke-width: 0.8"
                 id="use197" />
            </g>
          </g>
          <g
             id="text_11">
            <!-- 5.0 -->
            <g
               transform="translate(34.696875 226.187648) scale(0.1 -0.1)"
               id="g208">
              <use
                 xlink:href="#DejaVuSans-35"
                 id="use202" />
              <use
                 xlink:href="#DejaVuSans-2e"
                 x="63.623047"
                 id="use204" />
              <use
                 xlink:href="#DejaVuSans-30"
                 x="95.410156"
                 id="use206" />
            </g>
          </g>
        </g>
        <g
           id="ytick_4">
          <g
             id="line2d_11">
            <g
               id="g214">
              <use
                 xlink:href="#m203b591927"
                 x="57.6"
                 y="185.838715"
                 style="stroke: #000000; stroke-width: 0.8"
                 id="use212" />
            </g>
          </g>
          <g
             id="text_12">
            <!-- 7.5 -->
            <g
               transform="translate(34.696875 189.637934) scale(0.1 -0.1)"
               id="g226">
              <defs
                 id="defs218">
                <path
                   id="DejaVuSans-37"
                   d="M 525 4666  L 3525 4666  L 3525 4397  L 1831 0  L 1172 0  L 2766 4134  L 525 4134  L 525 4666  z "
                   transform="scale(0.015625)" />
              </defs>
              <use
                 xlink:href="#DejaVuSans-37"
                 id="use220" />
              <use
                 xlink:href="#DejaVuSans-2e"
                 x="63.623047"
                 id="use222" />
              <use
                 xlink:href="#DejaVuSans-35"
                 x="95.410156"
                 id="use224" />
            </g>
          </g>
        </g>
        <g
           id="ytick_5">
          <g
             id="line2d_12">
            <g
               id="g232">
              <use
                 xlink:href="#m203b591927"
                 x="57.6"
                 y="149.289001"
                 style="stroke: #000000; stroke-width: 0.8"
                 id="use230" />
            </g>
          </g>
          <g
             id="text_13">
            <!-- 10.0 -->
            <g
               transform="translate(28.334375 153.08822) scale(0.1 -0.1)"
               id="g243">
              <use
                 xlink:href="#DejaVuSans-31"
                 id="use235" />
              <use
                 xlink:href="#DejaVuSans-30"
                 x="63.623047"
                 id="use237" />
              <use
                 xlink:href="#DejaVuSans-2e"
                 x="127.246094"
                 id="use239" />
              <use
                 xlink:href="#DejaVuSans-30"
                 x="159.033203"
                 id="use241" />
            </g>
          </g>
        </g>
        <g
           id="ytick_6">
          <g
             id="line2d_13">
            <g
               id="g249">
              <use
                 xlink:href="#m203b591927"
                 x="57.6"
                 y="112.739288"
                 style="stroke: #000000; stroke-width: 0.8"
                 id="use247" />
            </g>
          </g>
          <g
             id="text_14">
            <!-- 12.5 -->
            <g
               transform="translate(28.334375 116.538506) scale(0.1 -0.1)"
               id="g260">
              <use
                 xlink:href="#DejaVuSans-31"
                 id="use252" />
              <use
                 xlink:href="#DejaVuSans-32"
                 x="63.623047"
                 id="use254" />
              <use
                 xlink:href="#DejaVuSans-2e"
                 x="127.246094"
                 id="use256" />
              <use
                 xlink:href="#DejaVuSans-35"
                 x="159.033203"
                 id="use258" />
            </g>
          </g>
        </g>
        <g
           id="ytick_7">
          <g
             id="line2d_14">
            <g
               id="g266">
              <use
                 xlink:href="#m203b591927"
                 x="57.6"
                 y="76.189574"
                 style="stroke: #000000; stroke-width: 0.8"
                 id="use264" />
            </g>
          </g>
          <g
             id="text_15">
            <!-- 15.0 -->
            <g
               transform="translate(28.334375 79.988793) scale(0.1 -0.1)"
               id="g277">
              <use
                 xlink:href="#DejaVuSans-31"
                 id="use269" />
              <use
                 xlink:href="#DejaVuSans-35"
                 x="63.623047"
                 id="use271" />
              <use
                 xlink:href="#DejaVuSans-2e"
                 x="127.246094"
                 id="use273" />
              <use
                 xlink:href="#DejaVuSans-30"
                 x="159.033203"
                 id="use275" />
            </g>
          </g>
        </g>
      </g>
      <g
         id="line2d_15">
        <path
           d="M 73.832727 295.488  L 75.023127 293.529943  L 76.429964 289.322469  L 77.945018 283.582393  L 82.165527 267.614197  L 84.762764 258.879879  L 87.143564 251.680004  L 89.632582 244.866802  L 92.229818 238.409361  L 94.935273 232.283255  L 97.748945 226.467988  L 100.670836 220.946375  L 103.700945 215.704042  L 106.839273 210.729025  L 109.9776 206.162212  L 113.224145 201.819977  L 116.578909 197.698673  L 120.041891 193.795658  L 123.613091 190.109262  L 127.184291 186.736347  L 130.863709 183.562036  L 134.651345 180.588705  L 138.438982 177.89257  L 142.334836 175.389379  L 146.338909 173.084484  L 150.342982 171.035871  L 154.455273 169.185089  L 158.567564 167.579267  L 162.679855 166.208658  L 166.683927 165.100124  L 169.172945 164.602284  L 171.770182 164.335  L 173.718109 164.356001  L 175.016727 164.388618  L 176.964655 164.306301  L 178.263273 164.233703  L 180.319418 163.9983  L 183.457745 163.731217  L 185.513891 163.565024  L 187.137164 163.679084  L 187.786473 163.673616  L 189.7344 163.470201  L 191.141236 163.568413  L 192.1152 163.673369  L 193.954909 163.536406  L 195.361745 163.498981  L 197.309673 163.048443  L 199.2576 162.919325  L 200.015127 163.011738  L 200.664436 163.018494  L 202.504145 162.634245  L 203.694545 162.558689  L 204.993164 162.538885  L 206.183564 161.98317  L 207.482182 160.936273  L 208.889018 159.474587  L 210.404073 157.676698  L 214.7328 152.40431  L 218.195782 148.561275  L 221.658764 145.039951  L 225.338182 141.617407  L 229.0176 138.495852  L 232.805236 135.572802  L 236.701091 132.85164  L 240.596945 130.400846  L 244.601018 128.146651  L 248.605091 126.146043  L 252.717382 124.342207  L 256.829673 122.78134  L 260.292655 121.682987  L 263.106327 121.035669  L 265.162473 120.753309  L 267.002182 120.669314  L 272.088436 120.777788  L 273.387055 120.93032  L 275.334982 120.920684  L 276.6336 120.917152  L 278.581527 120.690338  L 280.529455 120.718532  L 281.936291 120.974408  L 283.776 120.918203  L 285.182836 120.938008  L 287.022545 120.598185  L 289.078691 120.561518  L 289.619782 120.680117  L 290.485527 120.822206  L 292.325236 120.646215  L 294.164945 120.47413  L 295.68 120.067321  L 297.627927 119.898808  L 298.818327 119.981889  L 299.142982 119.911265  L 300.982691 119.345789  L 302.064873 119.184811  L 303.147055 119.154062  L 304.0128 119.247497  L 304.445673 119.247036  L 306.826473 118.409814  L 308.341527 118.164238  L 309.531927 118.162895  L 309.856582 118.11549  L 311.046982 117.414121  L 312.3456 116.038537  L 313.752436 114.059045  L 315.159273 111.76613  L 321.003055 101.528621  L 324.033164 96.726498  L 327.171491 92.163708  L 330.418036 87.833873  L 333.7728 83.73194  L 337.235782 79.854075  L 340.698764 76.303605  L 344.269964 72.954312  L 347.949382 69.807187  L 351.737018 66.863976  L 355.524655 64.19943  L 359.420509 61.729707  L 363.316364 59.517703  L 367.320436 57.497564  L 370.566982 56.081338  L 373.380655 55.119113  L 375.4368 54.619311  L 377.276509 54.348867  L 379.224436 54.27251  L 380.631273 54.430378  L 381.497018 54.522376  L 383.444945 54.45943  L 384.743564 54.458107  L 386.691491 54.138492  L 388.747636 54.110022  L 390.154473 54.248142  L 391.994182 54.014498  L 393.942109 54.113731  L 394.374982 54.078263  L 396.322909 53.650255  L 398.270836 53.591953  L 398.487273 53.59937  L 398.487273 53.59937  "
           clip-path="url(#pfbecbc76ea)"
           style="fill: none; stroke: #1f77b4; stroke-width: 1.5; stroke-linecap: square"
           id="path323" />
      </g>
      <g
         id="patch_3">
        <path
           d="M 57.6 307.584  L 57.6 41.472  "
           style="fill: none; stroke: #000000; stroke-width: 0.8; stroke-linejoin: miter; stroke-linecap: square"
           id="path326" />
      </g>
      <g
         id="patch_4">
        <path
           d="M 414.72 307.584  L 414.72 41.472  "
           style="fill: none; stroke: #000000; stroke-width: 0.8; stroke-linejoin: miter; stroke-linecap: square"
           id="path329" />
      </g>
      <g
         id="patch_5">
        <path
           d="M 57.6 307.584  L 414.72 307.584  "
           style="fill: none; stroke: #000000; stroke-width: 0.8; stroke-linejoin: miter; stroke-linecap: square"
           id="path332" />
      </g>
      <g
         id="patch_6">
        <path
           d="M 57.6 41.472  L 414.72 41.472  "
           style="fill: none; stroke: #000000; stroke-width: 0.8; stroke-linejoin: miter; stroke-linecap: square"
           id="path335" />
      </g>
    </g>
  </g>
  <defs
     id="defs343">
    <clipPath
       id="pfbecbc76ea">
      <rect
         x="57.6"
         y="41.472"
         width="357.12"
         height="266.112"
         id="rect340" />
    </clipPath>
  </defs>
  <g
     aria-label="Visina najbolje bube"
     transform="rotate(-90)"
     id="text472"
     style="font-size:9px;stroke-width:0.75">
    <path
       d="m -217.22668,21.837891 -2.50489,-6.561036 h 0.92725 l 2.07861,5.523926 2.08301,-5.523926 h 0.92285 l -2.50049,6.561036 z"
       id="path399" />
    <path
       d="m -212.99475,16.916016 h 0.80859 v 4.921875 h -0.80859 z m 0,-1.916016 h 0.80859 v 1.023926 h -0.80859 z"
       id="path401" />
    <path
       d="m -207.35657,17.061035 v 0.764649 q -0.34277,-0.175782 -0.71191,-0.263672 -0.36914,-0.08789 -0.76465,-0.08789 -0.60205,0 -0.90527,0.18457 -0.29883,0.184571 -0.29883,0.553711 0,0.28125 0.21533,0.443848 0.21533,0.158203 0.86572,0.303223 l 0.27686,0.06152 q 0.86133,0.18457 1.22168,0.522949 0.36474,0.333985 0.36474,0.936035 0,0.685547 -0.54492,1.08545 -0.54052,0.399902 -1.48974,0.399902 -0.39551,0 -0.82618,-0.0791 -0.42626,-0.07471 -0.90087,-0.228515 v -0.834961 q 0.44824,0.23291 0.8833,0.351562 0.43506,0.114258 0.86132,0.114258 0.57129,0 0.87891,-0.193359 0.30762,-0.197754 0.30762,-0.553711 0,-0.32959 -0.22412,-0.505371 -0.21973,-0.175781 -0.97119,-0.338379 l -0.28125,-0.06592 q -0.75147,-0.158203 -1.08545,-0.483399 -0.33399,-0.329589 -0.33399,-0.900878 0,-0.694336 0.49219,-1.072266 0.49219,-0.37793 1.39746,-0.37793 0.44824,0 0.84375,0.06592 0.39551,0.06592 0.72949,0.197754 z"
       id="path403" />
    <path
       d="m -205.8053,16.916016 h 0.8086 v 4.921875 h -0.8086 z m 0,-1.916016 h 0.8086 v 1.023926 h -0.8086 z"
       id="path405" />
    <path
       d="m -199.2135,18.867187 v 2.970704 h -0.80859 v -2.944336 q 0,-0.698731 -0.27247,-1.045899 -0.27246,-0.347168 -0.81738,-0.347168 -0.65478,0 -1.03271,0.417481 -0.37793,0.41748 -0.37793,1.138183 v 2.781739 h -0.81299 v -4.921875 h 0.81299 v 0.764648 q 0.29004,-0.443848 0.68115,-0.663574 0.39551,-0.219727 0.90967,-0.219727 0.84814,0 1.2832,0.527344 0.43506,0.522949 0.43506,1.54248 z"
       id="path407" />
    <path
       d="m -195.36389,19.36377 q -0.97998,0 -1.35791,0.224121 -0.37793,0.224121 -0.37793,0.764648 0,0.430664 0.28125,0.685547 0.28564,0.250488 0.77344,0.250488 0.67236,0 1.07666,-0.474609 0.40869,-0.479004 0.40869,-1.27002 V 19.36377 Z m 1.61279,-0.333985 v 2.808106 h -0.80859 V 21.09082 q -0.27686,0.448242 -0.68994,0.663575 -0.41309,0.210937 -1.01075,0.210937 -0.75586,0 -1.2041,-0.421875 -0.44385,-0.42627 -0.44385,-1.138184 0,-0.830566 0.55372,-1.252441 0.5581,-0.421875 1.66113,-0.421875 h 1.13379 v -0.0791 q 0,-0.558105 -0.36914,-0.861328 -0.36475,-0.307617 -1.02832,-0.307617 -0.42188,0 -0.82178,0.101074 -0.3999,0.101075 -0.76904,0.303223 v -0.74707 q 0.44384,-0.171387 0.86132,-0.254883 0.41748,-0.08789 0.81299,-0.08789 1.06787,0 1.59522,0.553711 0.52734,0.553711 0.52734,1.678711 z"
       id="path409" />
    <path
       d="m -185.13342,18.867187 v 2.970704 h -0.8086 v -2.944336 q 0,-0.698731 -0.27246,-1.045899 -0.27246,-0.347168 -0.81738,-0.347168 -0.65479,0 -1.03272,0.417481 -0.37792,0.41748 -0.37792,1.138183 v 2.781739 h -0.81299 v -4.921875 h 0.81299 v 0.764648 q 0.29003,-0.443848 0.68115,-0.663574 0.39551,-0.219727 0.90967,-0.219727 0.84814,0 1.2832,0.527344 0.43506,0.522949 0.43506,1.54248 z"
       id="path411" />
    <path
       d="m -181.28381,19.36377 q -0.97998,0 -1.35791,0.224121 -0.37793,0.224121 -0.37793,0.764648 0,0.430664 0.28125,0.685547 0.28564,0.250488 0.77343,0.250488 0.67237,0 1.07666,-0.474609 0.4087,-0.479004 0.4087,-1.27002 V 19.36377 Z m 1.61279,-0.333985 v 2.808106 h -0.80859 V 21.09082 q -0.27686,0.448242 -0.68995,0.663575 -0.41308,0.210937 -1.01074,0.210937 -0.75586,0 -1.2041,-0.421875 -0.44385,-0.42627 -0.44385,-1.138184 0,-0.830566 0.55371,-1.252441 0.55811,-0.421875 1.66114,-0.421875 h 1.13379 v -0.0791 q 0,-0.558105 -0.36914,-0.861328 -0.36475,-0.307617 -1.02833,-0.307617 -0.42187,0 -0.82177,0.101074 -0.3999,0.101075 -0.76905,0.303223 v -0.74707 q 0.44385,-0.171387 0.86133,-0.254883 0.41748,-0.08789 0.81299,-0.08789 1.06787,0 1.59522,0.553711 0.52734,0.553711 0.52734,1.678711 z"
       id="path413" />
    <path
       d="m -178.00549,16.916016 h 0.80859 v 5.009765 q 0,0.94043 -0.36035,1.362305 -0.35596,0.421875 -1.15137,0.421875 h -0.30762 v -0.685547 h 0.21534 q 0.46142,0 0.62841,-0.215332 0.167,-0.210937 0.167,-0.883301 z m 0,-1.916016 h 0.80859 v 1.023926 h -0.80859 z"
       id="path415" />
    <path
       d="m -171.9718,19.381348 q 0,-0.89209 -0.36914,-1.397461 -0.36475,-0.509766 -1.00635,-0.509766 -0.6416,0 -1.01074,0.509766 -0.36475,0.505371 -0.36475,1.397461 0,0.892089 0.36475,1.401855 0.36914,0.505371 1.01074,0.505371 0.6416,0 1.00635,-0.505371 0.36914,-0.509766 0.36914,-1.401855 z m -2.75098,-1.718262 q 0.25488,-0.439453 0.6416,-0.650391 0.39112,-0.215332 0.93164,-0.215332 0.89649,0 1.45459,0.711914 0.5625,0.711914 0.5625,1.872071 0,1.160156 -0.5625,1.87207 -0.5581,0.711914 -1.45459,0.711914 -0.54052,0 -0.93164,-0.210937 -0.38672,-0.215333 -0.6416,-0.654786 v 0.738282 h -0.81299 V 15 h 0.81299 z"
       id="path417" />
    <path
       d="m -167.88489,17.48291 q -0.65039,0 -1.02832,0.509766 -0.37793,0.505371 -0.37793,1.388672 0,0.8833 0.37354,1.393066 0.37793,0.505371 1.03271,0.505371 0.646,0 1.02393,-0.509765 0.37793,-0.509766 0.37793,-1.388672 0,-0.874512 -0.37793,-1.384278 -0.37793,-0.51416 -1.02393,-0.51416 z m 0,-0.685547 q 1.05469,0 1.65674,0.685547 0.60205,0.685547 0.60205,1.898438 0,1.208496 -0.60205,1.898437 -0.60205,0.685547 -1.65674,0.685547 -1.05908,0 -1.66113,-0.685547 -0.59766,-0.689941 -0.59766,-1.898437 0,-1.212891 0.59766,-1.898438 0.60205,-0.685547 1.66113,-0.685547 z"
       id="path419" />
    <path
       d="m -164.28577,15 h 0.8086 v 6.837891 h -0.8086 z"
       id="path421" />
    <path
       d="m -161.78528,16.916016 h 0.8086 v 5.009765 q 0,0.94043 -0.36036,1.362305 -0.35595,0.421875 -1.15136,0.421875 h -0.30762 v -0.685547 h 0.21533 q 0.46143,0 0.62842,-0.215332 0.16699,-0.210937 0.16699,-0.883301 z m 0,-1.916016 h 0.8086 v 1.023926 h -0.8086 z"
       id="path423" />
    <path
       d="m -155.07483,19.174805 v 0.395507 h -3.71777 q 0.0527,0.834961 0.50097,1.274415 0.45264,0.435058 1.25684,0.435058 0.46582,0 0.90088,-0.114258 0.43945,-0.114257 0.87012,-0.342773 v 0.764648 q -0.43506,0.184571 -0.89209,0.28125 -0.45704,0.09668 -0.92725,0.09668 -1.17773,0 -1.86768,-0.685547 -0.68554,-0.685547 -0.68554,-1.854492 0,-1.208496 0.65039,-1.916016 0.65478,-0.711914 1.76221,-0.711914 0.99316,0 1.56884,0.641602 0.58008,0.637207 0.58008,1.73584 z m -0.80859,-0.237305 q -0.009,-0.663574 -0.37354,-1.059082 -0.36035,-0.395508 -0.95801,-0.395508 -0.67675,0 -1.08545,0.382324 -0.40429,0.382325 -0.46582,1.076661 z"
       id="path425" />
    <path
       d="m -147.35364,19.381348 q 0,-0.89209 -0.36914,-1.397461 -0.36474,-0.509766 -1.00635,-0.509766 -0.6416,0 -1.01074,0.509766 -0.36474,0.505371 -0.36474,1.397461 0,0.892089 0.36474,1.401855 0.36914,0.505371 1.01074,0.505371 0.64161,0 1.00635,-0.505371 0.36914,-0.509766 0.36914,-1.401855 z m -2.75097,-1.718262 q 0.25488,-0.439453 0.6416,-0.650391 0.39111,-0.215332 0.93164,-0.215332 0.89648,0 1.45459,0.711914 0.5625,0.711914 0.5625,1.872071 0,1.160156 -0.5625,1.87207 -0.55811,0.711914 -1.45459,0.711914 -0.54053,0 -0.93164,-0.210937 -0.38672,-0.215333 -0.6416,-0.654786 v 0.738282 h -0.81299 V 15 h 0.81299 z"
       id="path427" />
    <path
       d="m -145.25745,19.895508 v -2.979492 h 0.8086 v 2.94873 q 0,0.698731 0.27246,1.050293 0.27246,0.347168 0.81738,0.347168 0.65479,0 1.03272,-0.41748 0.38232,-0.417481 0.38232,-1.138184 v -2.790527 h 0.80859 v 4.921875 h -0.80859 v -0.75586 q -0.29443,0.448242 -0.68555,0.667969 -0.38672,0.215332 -0.90088,0.215332 -0.84814,0 -1.28759,-0.527344 -0.43946,-0.527343 -0.43946,-1.54248 z m 2.03467,-3.098145 z"
       id="path429" />
    <path
       d="m -135.93665,19.381348 q 0,-0.89209 -0.36914,-1.397461 -0.36474,-0.509766 -1.00634,-0.509766 -0.64161,0 -1.01075,0.509766 -0.36474,0.505371 -0.36474,1.397461 0,0.892089 0.36474,1.401855 0.36914,0.505371 1.01075,0.505371 0.6416,0 1.00634,-0.505371 0.36914,-0.509766 0.36914,-1.401855 z m -2.75097,-1.718262 q 0.25488,-0.439453 0.6416,-0.650391 0.39111,-0.215332 0.93164,-0.215332 0.89648,0 1.45459,0.711914 0.5625,0.711914 0.5625,1.872071 0,1.160156 -0.5625,1.87207 -0.55811,0.711914 -1.45459,0.711914 -0.54053,0 -0.93164,-0.210937 -0.38672,-0.215333 -0.6416,-0.654786 v 0.738282 h -0.81299 V 15 h 0.81299 z"
       id="path431" />
    <path
       d="m -129.547,19.174805 v 0.395507 h -3.71777 q 0.0527,0.834961 0.50098,1.274415 0.45263,0.435058 1.25683,0.435058 0.46582,0 0.90088,-0.114258 0.43945,-0.114257 0.87012,-0.342773 v 0.764648 q -0.43506,0.184571 -0.89209,0.28125 -0.45703,0.09668 -0.92725,0.09668 -1.17773,0 -1.86767,-0.685547 -0.68555,-0.685547 -0.68555,-1.854492 0,-1.208496 0.65039,-1.916016 0.65479,-0.711914 1.76221,-0.711914 0.99316,0 1.56884,0.641602 0.58008,0.637207 0.58008,1.73584 z m -0.80859,-0.237305 q -0.009,-0.663574 -0.37354,-1.059082 -0.36035,-0.395508 -0.958,-0.395508 -0.67676,0 -1.08545,0.382324 -0.4043,0.382325 -0.46582,1.076661 z"
       id="path433" />
  </g>
</svg>
