<?xml version="1.0" encoding="UTF-8" standalone="no"?>
<svg
   width="460.8pt"
   height="345.6pt"
   viewBox="0 0 460.8 345.6"
   version="1.1"
   id="svg1021"
   sodipodi:docname="Figure_Srpski1.svg"
   inkscape:version="1.2.1 (9c6d41e410, 2022-07-14)"
   xmlns:inkscape="http://www.inkscape.org/namespaces/inkscape"
   xmlns:sodipodi="http://sodipodi.sourceforge.net/DTD/sodipodi-0.dtd"
   xmlns:xlink="http://www.w3.org/1999/xlink"
   xmlns="http://www.w3.org/2000/svg"
   xmlns:svg="http://www.w3.org/2000/svg"
   xmlns:rdf="http://www.w3.org/1999/02/22-rdf-syntax-ns#"
   xmlns:cc="http://creativecommons.org/ns#"
   xmlns:dc="http://purl.org/dc/elements/1.1/">
  <sodipodi:namedview
     id="namedview1023"
     pagecolor="#ffffff"
     bordercolor="#999999"
     borderopacity="1"
     inkscape:showpageshadow="0"
     inkscape:pageopacity="0"
     inkscape:pagecheckerboard="0"
     inkscape:deskcolor="#d1d1d1"
     inkscape:document-units="pt"
     showgrid="false"
     inkscape:zoom="2.1533203"
     inkscape:cx="434.21315"
     inkscape:cy="301.39501"
     inkscape:window-width="2560"
     inkscape:window-height="1371"
     inkscape:window-x="0"
     inkscape:window-y="0"
     inkscape:window-maximized="1"
     inkscape:current-layer="axes_1" />
  <metadata
     id="metadata661">
    <rdf:RDF>
      <cc:Work>
        <dc:type
           rdf:resource="http://purl.org/dc/dcmitype/StillImage" />
        <dc:date>2022-10-15T14:33:28.062074</dc:date>
        <dc:format>image/svg+xml</dc:format>
        <dc:creator>
          <cc:Agent>
            <dc:title>Matplotlib v3.6.1, https://matplotlib.org/</dc:title>
          </cc:Agent>
        </dc:creator>
      </cc:Work>
    </rdf:RDF>
  </metadata>
  <defs
     id="defs665">
    <style
       type="text/css"
       id="style663">*{stroke-linejoin: round; stroke-linecap: butt}</style>
  </defs>
  <g
     id="figure_1">
    <g
       id="patch_1">
      <path
         d="M 0 345.6  L 460.8 345.6  L 460.8 0  L 0 0  z "
         style="fill: #ffffff"
         id="path667" />
    </g>
    <g
       id="axes_1">
      <g
         id="patch_2">
        <path
           d="M 57.6 307.584  L 414.72 307.584  L 414.72 41.472  L 57.6 41.472  z "
           style="fill: #ffffff"
           id="path670" />
      </g>
      <g
         id="matplotlib.axis_1">
        <g
           id="xtick_1">
          <g
             id="line2d_1">
            <defs
               id="defs674">
              <path
                 id="mee8b996f0b"
                 d="M 0 0  L 0 3.5  "
                 style="stroke: #000000; stroke-width: 0.8" />
            </defs>
            <g
               id="g678">
              <use
                 xlink:href="#mee8b996f0b"
                 x="73.832727"
                 y="307.584"
                 style="stroke: #000000; stroke-width: 0.8"
                 id="use676" />
            </g>
          </g>
          <g
             id="text_1">
            <!-- 0 -->
            <g
               transform="translate(70.651477 322.182437) scale(0.1 -0.1)"
               id="g686">
              <defs
                 id="defs682">
                <path
                   id="DejaVuSans-30"
                   d="M 2034 4250  Q 1547 4250 1301 3770  Q 1056 3291 1056 2328  Q 1056 1369 1301 889  Q 1547 409 2034 409  Q 2525 409 2770 889  Q 3016 1369 3016 2328  Q 3016 3291 2770 3770  Q 2525 4250 2034 4250  z M 2034 4750  Q 2819 4750 3233 4129  Q 3647 3509 3647 2328  Q 3647 1150 3233 529  Q 2819 -91 2034 -91  Q 1250 -91 836 529  Q 422 1150 422 2328  Q 422 3509 836 4129  Q 1250 4750 2034 4750  z "
                   transform="scale(0.015625)" />
              </defs>
              <use
                 xlink:href="#DejaVuSans-30"
                 id="use684" />
            </g>
          </g>
        </g>
        <g
           id="xtick_2">
          <g
             id="line2d_2">
            <g
               id="g692">
              <use
                 xlink:href="#mee8b996f0b"
                 x="127.941818"
                 y="307.584"
                 style="stroke: #000000; stroke-width: 0.8"
                 id="use690" />
            </g>
          </g>
          <g
             id="text_2">
            <!-- 500 -->
            <g
               transform="translate(118.398068 322.182437) scale(0.1 -0.1)"
               id="g704">
              <defs
                 id="defs696">
                <path
                   id="DejaVuSans-35"
                   d="M 691 4666  L 3169 4666  L 3169 4134  L 1269 4134  L 1269 2991  Q 1406 3038 1543 3061  Q 1681 3084 1819 3084  Q 2600 3084 3056 2656  Q 3513 2228 3513 1497  Q 3513 744 3044 326  Q 2575 -91 1722 -91  Q 1428 -91 1123 -41  Q 819 9 494 109  L 494 744  Q 775 591 1075 516  Q 1375 441 1709 441  Q 2250 441 2565 725  Q 2881 1009 2881 1497  Q 2881 1984 2565 2268  Q 2250 2553 1709 2553  Q 1456 2553 1204 2497  Q 953 2441 691 2322  L 691 4666  z "
                   transform="scale(0.015625)" />
              </defs>
              <use
                 xlink:href="#DejaVuSans-35"
                 id="use698" />
              <use
                 xlink:href="#DejaVuSans-30"
                 x="63.623047"
                 id="use700" />
              <use
                 xlink:href="#DejaVuSans-30"
                 x="127.246094"
                 id="use702" />
            </g>
          </g>
        </g>
        <g
           id="xtick_3">
          <g
             id="line2d_3">
            <g
               id="g710">
              <use
                 xlink:href="#mee8b996f0b"
                 x="182.050909"
                 y="307.584"
                 style="stroke: #000000; stroke-width: 0.8"
                 id="use708" />
            </g>
          </g>
          <g
             id="text_3">
            <!-- 1000 -->
            <g
               transform="translate(169.325909 322.182437) scale(0.1 -0.1)"
               id="g724">
              <defs
                 id="defs714">
                <path
                   id="DejaVuSans-31"
                   d="M 794 531  L 1825 531  L 1825 4091  L 703 3866  L 703 4441  L 1819 4666  L 2450 4666  L 2450 531  L 3481 531  L 3481 0  L 794 0  L 794 531  z "
                   transform="scale(0.015625)" />
              </defs>
              <use
                 xlink:href="#DejaVuSans-31"
                 id="use716" />
              <use
                 xlink:href="#DejaVuSans-30"
                 x="63.623047"
                 id="use718" />
              <use
                 xlink:href="#DejaVuSans-30"
                 x="127.246094"
                 id="use720" />
              <use
                 xlink:href="#DejaVuSans-30"
                 x="190.869141"
                 id="use722" />
            </g>
          </g>
        </g>
        <g
           id="xtick_4">
          <g
             id="line2d_4">
            <g
               id="g730">
              <use
                 xlink:href="#mee8b996f0b"
                 x="236.16"
                 y="307.584"
                 style="stroke: #000000; stroke-width: 0.8"
                 id="use728" />
            </g>
          </g>
          <g
             id="text_4">
            <!-- 1500 -->
            <g
               transform="translate(223.435 322.182437) scale(0.1 -0.1)"
               id="g741">
              <use
                 xlink:href="#DejaVuSans-31"
                 id="use733" />
              <use
                 xlink:href="#DejaVuSans-35"
                 x="63.623047"
                 id="use735" />
              <use
                 xlink:href="#DejaVuSans-30"
                 x="127.246094"
                 id="use737" />
              <use
                 xlink:href="#DejaVuSans-30"
                 x="190.869141"
                 id="use739" />
            </g>
          </g>
        </g>
        <g
           id="xtick_5">
          <g
             id="line2d_5">
            <g
               id="g747">
              <use
                 xlink:href="#mee8b996f0b"
                 x="290.269091"
                 y="307.584"
                 style="stroke: #000000; stroke-width: 0.8"
                 id="use745" />
            </g>
          </g>
          <g
             id="text_5">
            <!-- 2000 -->
            <g
               transform="translate(277.544091 322.182437) scale(0.1 -0.1)"
               id="g761">
              <defs
                 id="defs751">
                <path
                   id="DejaVuSans-32"
                   d="M 1228 531  L 3431 531  L 3431 0  L 469 0  L 469 531  Q 828 903 1448 1529  Q 2069 2156 2228 2338  Q 2531 2678 2651 2914  Q 2772 3150 2772 3378  Q 2772 3750 2511 3984  Q 2250 4219 1831 4219  Q 1534 4219 1204 4116  Q 875 4013 500 3803  L 500 4441  Q 881 4594 1212 4672  Q 1544 4750 1819 4750  Q 2544 4750 2975 4387  Q 3406 4025 3406 3419  Q 3406 3131 3298 2873  Q 3191 2616 2906 2266  Q 2828 2175 2409 1742  Q 1991 1309 1228 531  z "
                   transform="scale(0.015625)" />
              </defs>
              <use
                 xlink:href="#DejaVuSans-32"
                 id="use753" />
              <use
                 xlink:href="#DejaVuSans-30"
                 x="63.623047"
                 id="use755" />
              <use
                 xlink:href="#DejaVuSans-30"
                 x="127.246094"
                 id="use757" />
              <use
                 xlink:href="#DejaVuSans-30"
                 x="190.869141"
                 id="use759" />
            </g>
          </g>
        </g>
        <g
           id="xtick_6">
          <g
             id="line2d_6">
            <g
               id="g767">
              <use
                 xlink:href="#mee8b996f0b"
                 x="344.378182"
                 y="307.584"
                 style="stroke: #000000; stroke-width: 0.8"
                 id="use765" />
            </g>
          </g>
          <g
             id="text_6">
            <!-- 2500 -->
            <g
               transform="translate(331.653182 322.182437) scale(0.1 -0.1)"
               id="g778">
              <use
                 xlink:href="#DejaVuSans-32"
                 id="use770" />
              <use
                 xlink:href="#DejaVuSans-35"
                 x="63.623047"
                 id="use772" />
              <use
                 xlink:href="#DejaVuSans-30"
                 x="127.246094"
                 id="use774" />
              <use
                 xlink:href="#DejaVuSans-30"
                 x="190.869141"
                 id="use776" />
            </g>
          </g>
        </g>
        <g
           id="xtick_7">
          <g
             id="line2d_7">
            <g
               id="g784">
              <use
                 xlink:href="#mee8b996f0b"
                 x="398.487273"
                 y="307.584"
                 style="stroke: #000000; stroke-width: 0.8"
                 id="use782" />
            </g>
          </g>
          <g
             id="text_7">
            <!-- 3000 -->
            <g
               transform="translate(385.762273 322.182437) scale(0.1 -0.1)"
               id="g798">
              <defs
                 id="defs788">
                <path
                   id="DejaVuSans-33"
                   d="M 2597 2516  Q 3050 2419 3304 2112  Q 3559 1806 3559 1356  Q 3559 666 3084 287  Q 2609 -91 1734 -91  Q 1441 -91 1130 -33  Q 819 25 488 141  L 488 750  Q 750 597 1062 519  Q 1375 441 1716 441  Q 2309 441 2620 675  Q 2931 909 2931 1356  Q 2931 1769 2642 2001  Q 2353 2234 1838 2234  L 1294 2234  L 1294 2753  L 1863 2753  Q 2328 2753 2575 2939  Q 2822 3125 2822 3475  Q 2822 3834 2567 4026  Q 2313 4219 1838 4219  Q 1578 4219 1281 4162  Q 984 4106 628 3988  L 628 4550  Q 988 4650 1302 4700  Q 1616 4750 1894 4750  Q 2613 4750 3031 4423  Q 3450 4097 3450 3541  Q 3450 3153 3228 2886  Q 3006 2619 2597 2516  z "
                   transform="scale(0.015625)" />
              </defs>
              <use
                 xlink:href="#DejaVuSans-33"
                 id="use790" />
              <use
                 xlink:href="#DejaVuSans-30"
                 x="63.623047"
                 id="use792" />
              <use
                 xlink:href="#DejaVuSans-30"
                 x="127.246094"
                 id="use794" />
              <use
                 xlink:href="#DejaVuSans-30"
                 x="190.869141"
                 id="use796" />
            </g>
          </g>
        </g>
        <g
           aria-label="Vreme"
           id="text342"
           style="font-size:9px;stroke-width:0.75">
          <path
             d="M 225.34589,336.03503 222.841,329.474 h 0.92725 l 2.07861,5.52392 2.08301,-5.52392 h 0.92285 l -2.50049,6.56103 z"
             id="path698" />
          <path
             d="m 232.62762,331.86902 q -0.13623,-0.0791 -0.29882,-0.11426 -0.15821,-0.0395 -0.35157,-0.0395 -0.68554,0 -1.05468,0.44824 -0.36475,0.44385 -0.36475,1.27881 v 2.59277 h -0.81299 v -4.92187 h 0.81299 v 0.76465 q 0.25488,-0.44824 0.66357,-0.66358 0.4087,-0.21972 0.99317,-0.21972 0.0835,0 0.18457,0.0132 0.10107,0.009 0.22412,0.0308 z"
             id="path700" />
          <path
             d="m 237.48798,333.37195 v 0.39551 h -3.71778 q 0.0527,0.83496 0.50098,1.27441 0.45264,0.43506 1.25684,0.43506 0.46582,0 0.90087,-0.11426 0.43946,-0.11426 0.87012,-0.34277 v 0.76465 q -0.43506,0.18457 -0.89209,0.28125 -0.45703,0.0967 -0.92724,0.0967 -1.17774,0 -1.86768,-0.68555 -0.68555,-0.68555 -0.68555,-1.85449 0,-1.2085 0.65039,-1.91602 0.65479,-0.71191 1.76221,-0.71191 0.99316,0 1.56885,0.6416 0.58008,0.63721 0.58008,1.73584 z m -0.8086,-0.23731 q -0.009,-0.66357 -0.37353,-1.05908 -0.36035,-0.39551 -0.95801,-0.39551 -0.67676,0 -1.08545,0.38233 -0.4043,0.38232 -0.46582,1.07666 z"
             id="path702" />
          <path
             d="m 242.64716,332.05798 q 0.30322,-0.54492 0.72509,-0.8042 0.42188,-0.25927 0.99317,-0.25927 0.76904,0 1.18652,0.54052 0.41748,0.53614 0.41748,1.5293 v 2.9707 h -0.81299 v -2.94433 q 0,-0.70752 -0.25049,-1.05029 -0.25048,-0.34278 -0.76464,-0.34278 -0.62842,0 -0.99317,0.41748 -0.36474,0.41748 -0.36474,1.13819 v 2.78173 h -0.81299 v -2.94433 q 0,-0.71192 -0.25049,-1.05029 -0.25049,-0.34278 -0.77344,-0.34278 -0.61963,0 -0.98437,0.42188 -0.36475,0.41748 -0.36475,1.13379 v 2.78173 h -0.81299 v -4.92187 h 0.81299 v 0.76465 q 0.27686,-0.45264 0.66358,-0.66797 0.38671,-0.21533 0.91845,-0.21533 0.53614,0 0.90967,0.27246 0.37793,0.27246 0.55811,0.79101 z"
             id="path704" />
          <path
             d="m 251.79218,333.37195 v 0.39551 h -3.71778 q 0.0527,0.83496 0.50098,1.27441 0.45264,0.43506 1.25683,0.43506 0.46582,0 0.90088,-0.11426 0.43946,-0.11426 0.87012,-0.34277 v 0.76465 q -0.43506,0.18457 -0.89209,0.28125 -0.45703,0.0967 -0.92725,0.0967 -1.17773,0 -1.86767,-0.68555 -0.68555,-0.68555 -0.68555,-1.85449 0,-1.2085 0.65039,-1.91602 0.65479,-0.71191 1.76221,-0.71191 0.99316,0 1.56885,0.6416 0.58008,0.63721 0.58008,1.73584 z m -0.8086,-0.23731 q -0.009,-0.66357 -0.37353,-1.05908 -0.36036,-0.39551 -0.95801,-0.39551 -0.67676,0 -1.08545,0.38233 -0.4043,0.38232 -0.46582,1.07666 z"
             id="path706" />
        </g>
      </g>
      <g
         id="matplotlib.axis_2">
        <g
           id="ytick_1">
          <g
             id="line2d_8">
            <defs
               id="defs821">
              <path
                 id="m67af0090ef"
                 d="M 0 0  L -3.5 0  "
                 style="stroke: #000000; stroke-width: 0.8" />
            </defs>
            <g
               id="g825">
              <use
                 xlink:href="#m67af0090ef"
                 x="57.6"
                 y="295.487866"
                 style="stroke: #000000; stroke-width: 0.8"
                 id="use823" />
            </g>
          </g>
          <g
             id="text_9">
            <!-- 0.0 -->
            <g
               transform="translate(34.696875 299.287084) scale(0.1 -0.1)"
               id="g837">
              <defs
                 id="defs829">
                <path
                   id="DejaVuSans-2e"
                   d="M 684 794  L 1344 794  L 1344 0  L 684 0  L 684 794  z "
                   transform="scale(0.015625)" />
              </defs>
              <use
                 xlink:href="#DejaVuSans-30"
                 id="use831" />
              <use
                 xlink:href="#DejaVuSans-2e"
                 x="63.623047"
                 id="use833" />
              <use
                 xlink:href="#DejaVuSans-30"
                 x="95.410156"
                 id="use835" />
            </g>
          </g>
        </g>
        <g
           id="ytick_2">
          <g
             id="line2d_9">
            <g
               id="g843">
              <use
                 xlink:href="#m67af0090ef"
                 x="57.6"
                 y="261.270333"
                 style="stroke: #000000; stroke-width: 0.8"
                 id="use841" />
            </g>
          </g>
          <g
             id="text_10">
            <!-- 2.5 -->
            <g
               transform="translate(34.696875 265.069551) scale(0.1 -0.1)"
               id="g852">
              <use
                 xlink:href="#DejaVuSans-32"
                 id="use846" />
              <use
                 xlink:href="#DejaVuSans-2e"
                 x="63.623047"
                 id="use848" />
              <use
                 xlink:href="#DejaVuSans-35"
                 x="95.410156"
                 id="use850" />
            </g>
          </g>
        </g>
        <g
           id="ytick_3">
          <g
             id="line2d_10">
            <g
               id="g858">
              <use
                 xlink:href="#m67af0090ef"
                 x="57.6"
                 y="227.052799"
                 style="stroke: #000000; stroke-width: 0.8"
                 id="use856" />
            </g>
          </g>
          <g
             id="text_11">
            <!-- 5.0 -->
            <g
               transform="translate(34.696875 230.852018) scale(0.1 -0.1)"
               id="g867">
              <use
                 xlink:href="#DejaVuSans-35"
                 id="use861" />
              <use
                 xlink:href="#DejaVuSans-2e"
                 x="63.623047"
                 id="use863" />
              <use
                 xlink:href="#DejaVuSans-30"
                 x="95.410156"
                 id="use865" />
            </g>
          </g>
        </g>
        <g
           id="ytick_4">
          <g
             id="line2d_11">
            <g
               id="g873">
              <use
                 xlink:href="#m67af0090ef"
                 x="57.6"
                 y="192.835266"
                 style="stroke: #000000; stroke-width: 0.8"
                 id="use871" />
            </g>
          </g>
          <g
             id="text_12">
            <!-- 7.5 -->
            <g
               transform="translate(34.696875 196.634485) scale(0.1 -0.1)"
               id="g885">
              <defs
                 id="defs877">
                <path
                   id="DejaVuSans-37"
                   d="M 525 4666  L 3525 4666  L 3525 4397  L 1831 0  L 1172 0  L 2766 4134  L 525 4134  L 525 4666  z "
                   transform="scale(0.015625)" />
              </defs>
              <use
                 xlink:href="#DejaVuSans-37"
                 id="use879" />
              <use
                 xlink:href="#DejaVuSans-2e"
                 x="63.623047"
                 id="use881" />
              <use
                 xlink:href="#DejaVuSans-35"
                 x="95.410156"
                 id="use883" />
            </g>
          </g>
        </g>
        <g
           id="ytick_5">
          <g
             id="line2d_12">
            <g
               id="g891">
              <use
                 xlink:href="#m67af0090ef"
                 x="57.6"
                 y="158.617733"
                 style="stroke: #000000; stroke-width: 0.8"
                 id="use889" />
            </g>
          </g>
          <g
             id="text_13">
            <!-- 10.0 -->
            <g
               transform="translate(28.334375 162.416952) scale(0.1 -0.1)"
               id="g902">
              <use
                 xlink:href="#DejaVuSans-31"
                 id="use894" />
              <use
                 xlink:href="#DejaVuSans-30"
                 x="63.623047"
                 id="use896" />
              <use
                 xlink:href="#DejaVuSans-2e"
                 x="127.246094"
                 id="use898" />
              <use
                 xlink:href="#DejaVuSans-30"
                 x="159.033203"
                 id="use900" />
            </g>
          </g>
        </g>
        <g
           id="ytick_6">
          <g
             id="line2d_13">
            <g
               id="g908">
              <use
                 xlink:href="#m67af0090ef"
                 x="57.6"
                 y="124.4002"
                 style="stroke: #000000; stroke-width: 0.8"
                 id="use906" />
            </g>
          </g>
          <g
             id="text_14">
            <!-- 12.5 -->
            <g
               transform="translate(28.334375 128.199419) scale(0.1 -0.1)"
               id="g919">
              <use
                 xlink:href="#DejaVuSans-31"
                 id="use911" />
              <use
                 xlink:href="#DejaVuSans-32"
                 x="63.623047"
                 id="use913" />
              <use
                 xlink:href="#DejaVuSans-2e"
                 x="127.246094"
                 id="use915" />
              <use
                 xlink:href="#DejaVuSans-35"
                 x="159.033203"
                 id="use917" />
            </g>
          </g>
        </g>
        <g
           id="ytick_7">
          <g
             id="line2d_14">
            <g
               id="g925">
              <use
                 xlink:href="#m67af0090ef"
                 x="57.6"
                 y="90.182667"
                 style="stroke: #000000; stroke-width: 0.8"
                 id="use923" />
            </g>
          </g>
          <g
             id="text_15">
            <!-- 15.0 -->
            <g
               transform="translate(28.334375 93.981885) scale(0.1 -0.1)"
               id="g936">
              <use
                 xlink:href="#DejaVuSans-31"
                 id="use928" />
              <use
                 xlink:href="#DejaVuSans-35"
                 x="63.623047"
                 id="use930" />
              <use
                 xlink:href="#DejaVuSans-2e"
                 x="127.246094"
                 id="use932" />
              <use
                 xlink:href="#DejaVuSans-30"
                 x="159.033203"
                 id="use934" />
            </g>
          </g>
        </g>
        <g
           id="ytick_8">
          <g
             id="line2d_15">
            <g
               id="g942">
              <use
                 xlink:href="#m67af0090ef"
                 x="57.6"
                 y="55.965134"
                 style="stroke: #000000; stroke-width: 0.8"
                 id="use940" />
            </g>
          </g>
          <g
             id="text_16">
            <!-- 17.5 -->
            <g
               transform="translate(28.334375 59.764352) scale(0.1 -0.1)"
               id="g953">
              <use
                 xlink:href="#DejaVuSans-31"
                 id="use945" />
              <use
                 xlink:href="#DejaVuSans-37"
                 x="63.623047"
                 id="use947" />
              <use
                 xlink:href="#DejaVuSans-2e"
                 x="127.246094"
                 id="use949" />
              <use
                 xlink:href="#DejaVuSans-35"
                 x="159.033203"
                 id="use951" />
            </g>
          </g>
        </g>
        <g
           id="text_17">
          <!-- best bug height -->
        </g>
      </g>
      <g
         id="line2d_16">
        <path
           d="M 73.832727 295.488  L 74.2656 295.361362  L 74.590255 294.915442  L 75.564218 292.786949  L 78.161455 287.353209  L 80.975127 281.989708  L 83.897018 276.913316  L 86.927127 272.107673  L 90.065455 267.559301  L 93.312 263.257163  L 96.558545 259.317852  L 99.913309 255.587312  L 103.376291 252.062336  L 106.947491 248.740768  L 110.626909 245.621455  L 114.414545 242.704205  L 118.3104 239.989774  L 119.609018 239.261851  L 120.258327 239.004528  L 124.370618 237.128861  L 128.591127 235.450858  L 132.811636 234.011528  L 137.140364 232.77326  L 141.469091 231.767758  L 142.1184 231.722621  L 142.443055 231.898404  L 142.767709 232.336482  L 143.417018 232.999578  L 143.741673 232.989936  L 147.745745 231.138968  L 151.858036 229.475959  L 156.078545 228.007359  L 160.299055 226.76995  L 165.277091 225.54353  L 165.601745 225.812897  L 166.359273 226.923923  L 166.683927 227.069578  L 167.1168 226.881214  L 171.120873 224.773823  L 175.233164 222.858759  L 179.453673 221.14184  L 183.674182 219.664974  L 185.730327 219.074993  L 186.271418 219.335712  L 186.920727 220.192557  L 187.245382 220.208164  L 188.219345 219.634106  L 192.223418 217.373158  L 196.335709 215.309203  L 200.448 213.492069  L 204.668509 211.870902  L 206.4 211.343445  L 206.724655 211.600352  L 207.049309 212.080794  L 207.698618 212.806048  L 208.023273 212.817644  L 209.430109 212.08391  L 213.5424 210.045141  L 217.654691 208.25128  L 220.468364 207.218392  L 220.793018 207.439908  L 221.658764 208.51894  L 221.983418 208.508293  L 222.957382 207.867806  L 226.853236 205.411759  L 230.857309 203.148691  L 234.9696 201.08287  L 237.783273 199.838081  L 238.107927 199.968693  L 238.973673 200.894038  L 239.406545 200.716591  L 240.488727 200.224922  L 240.705164 200.318629  L 241.029818 200.796432  L 241.462691 201.570017  L 242.003782 201.999784  L 242.328436 201.806982  L 245.791418 198.726216  L 247.847564 197.124043  L 251.418764 194.840214  L 255.422836 192.546436  L 259.535127 190.449101  L 260.076218 190.301819  L 260.400873 190.567593  L 260.725527 190.937859  L 261.591273 191.351368  L 262.024145 191.894631  L 262.565236 192.151516  L 262.998109 191.778164  L 264.621382 190.216434  L 268.3008 187.022981  L 272.088436 184.033485  L 275.876073 181.32213  L 279.771927 178.8021  L 283.776 176.476801  L 284.317091 176.252271  L 284.533527 176.34041  L 284.858182 176.810176  L 285.291055 177.568424  L 285.507491 177.739051  L 285.832145 177.658338  L 287.022545 176.629115  L 290.701964 173.600846  L 294.4896 170.769907  L 298.385455 168.137547  L 298.710109 168.041936  L 298.926545 168.157717  L 299.2512 168.688571  L 299.684073 169.521533  L 299.900509 169.707349  L 300.658036 169.702864  L 300.982691 169.739663  L 301.199127 169.864219  L 301.415564 169.901953  L 301.740218 170.290755  L 302.064873 170.535145  L 302.497745 170.580423  L 303.147055 170.851567  L 303.471709 171.114947  L 303.796364 171.000208  L 304.121018 170.744488  L 307.042909 167.441526  L 310.505891 163.921683  L 314.077091 160.604431  L 317.756509 157.488724  L 321.544145 154.574522  L 322.193455 154.17023  L 322.518109 154.279432  L 322.842764 154.789276  L 323.275636 156.185536  L 324.033164 158.888496  L 325.115345 161.106538  L 325.331782 161.196478  L 325.44 161.145323  L 325.872873 160.224891  L 326.522182 158.037341  L 328.578327 150.969868  L 330.850909 143.952696  L 333.231709 137.328957  L 335.828945 130.788397  L 338.426182 124.847708  L 341.131636 119.202153  L 343.945309 113.835402  L 346.542545 109.295483  L 347.949382 107.664936  L 348.598691 107.046625  L 348.923345 107.018028  L 349.356218 106.949053  L 349.572655 107.151478  L 349.897309 107.852569  L 350.221964 108.619254  L 350.4384 108.755498  L 350.654836 108.66286  L 351.087709 108.0982  L 353.035636 105.063917  L 357.256145 100.649193  L 357.5808 100.598398  L 358.013673 100.753025  L 358.230109 100.90884  L 358.7712 101.519994  L 358.987636 101.737016  L 359.204073 102.010652  L 359.420509 102.012946  L 359.745164 101.711516  L 366.454691 92.834463  L 369.160145 89.706409  L 369.4848 89.600475  L 370.025891 89.498868  L 370.566982 89.574214  L 370.783418 89.740313  L 371.108073 90.461998  L 371.432727 91.213385  L 371.649164 91.328606  L 371.8656 91.182328  L 372.947782 89.225181  L 375.761455 84.259972  L 378.791564 79.370301  L 381.929891 74.740755  L 384.96 70.654556  L 385.284655 70.426772  L 386.042182 70.567627  L 386.366836 71.196616  L 386.799709 72.269644  L 387.016145 72.378141  L 387.232582 72.217334  L 387.990109 70.759803  L 389.938036 66.947478  L 391.777745 63.700963  L 394.807855 58.677584  L 397.729745 54.24361  L 398.162618 53.812407  L 398.487273 53.568  L 398.487273 53.568  "
           clip-path="url(#p8dd896c88d)"
           style="fill: none; stroke: #1f77b4; stroke-width: 1.5; stroke-linecap: square"
           id="path999" />
      </g>
      <g
         id="patch_3">
        <path
           d="M 57.6 307.584  L 57.6 41.472  "
           style="fill: none; stroke: #000000; stroke-width: 0.8; stroke-linejoin: miter; stroke-linecap: square"
           id="path1002" />
      </g>
      <g
         id="patch_4">
        <path
           d="M 414.72 307.584  L 414.72 41.472  "
           style="fill: none; stroke: #000000; stroke-width: 0.8; stroke-linejoin: miter; stroke-linecap: square"
           id="path1005" />
      </g>
      <g
         id="patch_5">
        <path
           d="M 57.6 307.584  L 414.72 307.584  "
           style="fill: none; stroke: #000000; stroke-width: 0.8; stroke-linejoin: miter; stroke-linecap: square"
           id="path1008" />
      </g>
      <g
         id="patch_6">
        <path
           d="M 57.6 41.472  L 414.72 41.472  "
           style="fill: none; stroke: #000000; stroke-width: 0.8; stroke-linejoin: miter; stroke-linecap: square"
           id="path1011" />
      </g>
    </g>
  </g>
  <g
     aria-label="Visina najbolje bube"
     transform="rotate(-90)"
     id="text472"
     style="font-size:9px;stroke-width:0.75">
    <path
       d="m -217.22668,23.378891 -2.50489,-6.561035 h 0.92725 l 2.07861,5.523926 2.08301,-5.523926 h 0.92285 l -2.50049,6.561035 z"
       id="path453" />
    <path
       d="m -212.99475,18.457016 h 0.80859 v 4.921875 h -0.80859 z m 0,-1.916016 h 0.80859 v 1.023926 h -0.80859 z"
       id="path455" />
    <path
       d="m -207.35657,18.602036 v 0.764648 q -0.34277,-0.175781 -0.71191,-0.263672 -0.36914,-0.08789 -0.76465,-0.08789 -0.60205,0 -0.90527,0.184571 -0.29883,0.18457 -0.29883,0.553711 0,0.28125 0.21533,0.443847 0.21533,0.158203 0.86572,0.303223 l 0.27686,0.06152 q 0.86133,0.184571 1.22168,0.52295 0.36474,0.333984 0.36474,0.936035 0,0.685547 -0.54492,1.085449 -0.54052,0.399902 -1.48974,0.399902 -0.39551,0 -0.82618,-0.0791 -0.42626,-0.07471 -0.90087,-0.228516 v -0.834961 q 0.44824,0.23291 0.8833,0.351563 0.43506,0.114258 0.86132,0.114258 0.57129,0 0.87891,-0.19336 0.30762,-0.197754 0.30762,-0.553711 0,-0.32959 -0.22412,-0.505371 -0.21973,-0.175781 -0.97119,-0.338379 l -0.28125,-0.06592 q -0.75147,-0.158203 -1.08545,-0.483398 -0.33399,-0.32959 -0.33399,-0.900879 0,-0.694336 0.49219,-1.072266 0.49219,-0.377929 1.39746,-0.377929 0.44824,0 0.84375,0.06592 0.39551,0.06592 0.72949,0.197754 z"
       id="path457" />
    <path
       d="m -205.8053,18.457016 h 0.8086 v 4.921875 h -0.8086 z m 0,-1.916016 h 0.8086 v 1.023926 h -0.8086 z"
       id="path459" />
    <path
       d="m -199.2135,20.408188 v 2.970703 h -0.80859 v -2.944336 q 0,-0.69873 -0.27247,-1.045898 -0.27246,-0.347168 -0.81738,-0.347168 -0.65478,0 -1.03271,0.41748 -0.37793,0.417481 -0.37793,1.138184 v 2.781738 h -0.81299 v -4.921875 h 0.81299 v 0.764648 q 0.29004,-0.443847 0.68115,-0.663574 0.39551,-0.219726 0.90967,-0.219726 0.84814,0 1.2832,0.527343 0.43506,0.52295 0.43506,1.542481 z"
       id="path461" />
    <path
       d="m -195.36389,20.90477 q -0.97998,0 -1.35791,0.224121 -0.37793,0.224121 -0.37793,0.764648 0,0.430664 0.28125,0.685547 0.28564,0.250489 0.77344,0.250489 0.67236,0 1.07666,-0.47461 0.40869,-0.479004 0.40869,-1.270019 V 20.90477 Z m 1.61279,-0.333984 v 2.808105 h -0.80859 v -0.74707 q -0.27686,0.448242 -0.68994,0.663574 -0.41309,0.210937 -1.01075,0.210937 -0.75586,0 -1.2041,-0.421875 -0.44385,-0.426269 -0.44385,-1.138183 0,-0.830567 0.55372,-1.252442 0.5581,-0.421875 1.66113,-0.421875 h 1.13379 v -0.0791 q 0,-0.558106 -0.36914,-0.861328 -0.36475,-0.307617 -1.02832,-0.307617 -0.42188,0 -0.82178,0.101074 -0.3999,0.101074 -0.76904,0.303222 v -0.74707 q 0.44384,-0.171387 0.86132,-0.254883 0.41748,-0.08789 0.81299,-0.08789 1.06787,0 1.59522,0.553711 0.52734,0.553711 0.52734,1.678711 z"
       id="path463" />
    <path
       d="m -185.13342,20.408188 v 2.970703 h -0.8086 v -2.944336 q 0,-0.69873 -0.27246,-1.045898 -0.27246,-0.347168 -0.81738,-0.347168 -0.65479,0 -1.03272,0.41748 -0.37792,0.417481 -0.37792,1.138184 v 2.781738 h -0.81299 v -4.921875 h 0.81299 v 0.764648 q 0.29003,-0.443847 0.68115,-0.663574 0.39551,-0.219726 0.90967,-0.219726 0.84814,0 1.2832,0.527343 0.43506,0.52295 0.43506,1.542481 z"
       id="path465" />
    <path
       d="m -181.28381,20.90477 q -0.97998,0 -1.35791,0.224121 -0.37793,0.224121 -0.37793,0.764648 0,0.430664 0.28125,0.685547 0.28564,0.250489 0.77343,0.250489 0.67237,0 1.07666,-0.47461 0.4087,-0.479004 0.4087,-1.270019 V 20.90477 Z m 1.61279,-0.333984 v 2.808105 h -0.80859 v -0.74707 q -0.27686,0.448242 -0.68995,0.663574 -0.41308,0.210937 -1.01074,0.210937 -0.75586,0 -1.2041,-0.421875 -0.44385,-0.426269 -0.44385,-1.138183 0,-0.830567 0.55371,-1.252442 0.55811,-0.421875 1.66114,-0.421875 h 1.13379 v -0.0791 q 0,-0.558106 -0.36914,-0.861328 -0.36475,-0.307617 -1.02833,-0.307617 -0.42187,0 -0.82177,0.101074 -0.3999,0.101074 -0.76905,0.303222 v -0.74707 q 0.44385,-0.171387 0.86133,-0.254883 0.41748,-0.08789 0.81299,-0.08789 1.06787,0 1.59522,0.553711 0.52734,0.553711 0.52734,1.678711 z"
       id="path467" />
    <path
       d="m -178.00549,18.457016 h 0.80859 v 5.009766 q 0,0.940429 -0.36035,1.362304 -0.35596,0.421875 -1.15137,0.421875 h -0.30762 v -0.685547 h 0.21534 q 0.46142,0 0.62841,-0.215332 0.167,-0.210937 0.167,-0.8833 z m 0,-1.916016 h 0.80859 v 1.023926 h -0.80859 z"
       id="path469" />
    <path
       d="m -171.9718,20.922348 q 0,-0.89209 -0.36914,-1.397461 -0.36475,-0.509766 -1.00635,-0.509766 -0.6416,0 -1.01074,0.509766 -0.36475,0.505371 -0.36475,1.397461 0,0.89209 0.36475,1.401855 0.36914,0.505372 1.01074,0.505372 0.6416,0 1.00635,-0.505372 0.36914,-0.509765 0.36914,-1.401855 z m -2.75098,-1.718262 q 0.25488,-0.439453 0.6416,-0.65039 0.39112,-0.215332 0.93164,-0.215332 0.89649,0 1.45459,0.711914 0.5625,0.711914 0.5625,1.87207 0,1.160156 -0.5625,1.87207 -0.5581,0.711914 -1.45459,0.711914 -0.54052,0 -0.93164,-0.210937 -0.38672,-0.215332 -0.6416,-0.654785 v 0.738281 h -0.81299 V 16.541 h 0.81299 z"
       id="path471" />
    <path
       d="m -167.88489,19.023911 q -0.65039,0 -1.02832,0.509765 -0.37793,0.505371 -0.37793,1.388672 0,0.883301 0.37354,1.393066 0.37793,0.505372 1.03271,0.505372 0.646,0 1.02393,-0.509766 0.37793,-0.509766 0.37793,-1.388672 0,-0.874512 -0.37793,-1.384277 -0.37793,-0.51416 -1.02393,-0.51416 z m 0,-0.685547 q 1.05469,0 1.65674,0.685547 0.60205,0.685546 0.60205,1.898437 0,1.208496 -0.60205,1.898438 -0.60205,0.685546 -1.65674,0.685546 -1.05908,0 -1.66113,-0.685546 -0.59766,-0.689942 -0.59766,-1.898438 0,-1.212891 0.59766,-1.898437 0.60205,-0.685547 1.66113,-0.685547 z"
       id="path473" />
    <path
       d="m -164.28577,16.541 h 0.8086 v 6.837891 h -0.8086 z"
       id="path475" />
    <path
       d="m -161.78528,18.457016 h 0.8086 v 5.009766 q 0,0.940429 -0.36036,1.362304 -0.35595,0.421875 -1.15136,0.421875 h -0.30762 v -0.685547 h 0.21533 q 0.46143,0 0.62842,-0.215332 0.16699,-0.210937 0.16699,-0.8833 z m 0,-1.916016 h 0.8086 v 1.023926 h -0.8086 z"
       id="path477" />
    <path
       d="m -155.07483,20.715805 v 0.395508 h -3.71777 q 0.0527,0.834961 0.50097,1.274414 0.45264,0.435059 1.25684,0.435059 0.46582,0 0.90088,-0.114258 0.43945,-0.114258 0.87012,-0.342774 v 0.764649 q -0.43506,0.18457 -0.89209,0.28125 -0.45704,0.09668 -0.92725,0.09668 -1.17773,0 -1.86768,-0.685546 -0.68554,-0.685547 -0.68554,-1.854493 0,-1.208496 0.65039,-1.916015 0.65478,-0.711914 1.76221,-0.711914 0.99316,0 1.56884,0.641601 0.58008,0.637207 0.58008,1.73584 z m -0.80859,-0.237305 q -0.009,-0.663574 -0.37354,-1.059082 -0.36035,-0.395507 -0.95801,-0.395507 -0.67675,0 -1.08545,0.382324 -0.40429,0.382324 -0.46582,1.07666 z"
       id="path479" />
    <path
       d="m -147.35364,20.922348 q 0,-0.89209 -0.36914,-1.397461 -0.36474,-0.509766 -1.00635,-0.509766 -0.6416,0 -1.01074,0.509766 -0.36474,0.505371 -0.36474,1.397461 0,0.89209 0.36474,1.401855 0.36914,0.505372 1.01074,0.505372 0.64161,0 1.00635,-0.505372 0.36914,-0.509765 0.36914,-1.401855 z m -2.75097,-1.718262 q 0.25488,-0.439453 0.6416,-0.65039 0.39111,-0.215332 0.93164,-0.215332 0.89648,0 1.45459,0.711914 0.5625,0.711914 0.5625,1.87207 0,1.160156 -0.5625,1.87207 -0.55811,0.711914 -1.45459,0.711914 -0.54053,0 -0.93164,-0.210937 -0.38672,-0.215332 -0.6416,-0.654785 v 0.738281 h -0.81299 V 16.541 h 0.81299 z"
       id="path481" />
    <path
       d="m -145.25745,21.436508 v -2.979492 h 0.8086 v 2.94873 q 0,0.698731 0.27246,1.050293 0.27246,0.347168 0.81738,0.347168 0.65479,0 1.03272,-0.41748 0.38232,-0.417481 0.38232,-1.138184 v -2.790527 h 0.80859 v 4.921875 h -0.80859 v -0.755859 q -0.29443,0.448242 -0.68555,0.667968 -0.38672,0.215332 -0.90088,0.215332 -0.84814,0 -1.28759,-0.527343 -0.43946,-0.527344 -0.43946,-1.542481 z m 2.03467,-3.098144 z"
       id="path483" />
    <path
       d="m -135.93665,20.922348 q 0,-0.89209 -0.36914,-1.397461 -0.36474,-0.509766 -1.00634,-0.509766 -0.64161,0 -1.01075,0.509766 -0.36474,0.505371 -0.36474,1.397461 0,0.89209 0.36474,1.401855 0.36914,0.505372 1.01075,0.505372 0.6416,0 1.00634,-0.505372 0.36914,-0.509765 0.36914,-1.401855 z m -2.75097,-1.718262 q 0.25488,-0.439453 0.6416,-0.65039 0.39111,-0.215332 0.93164,-0.215332 0.89648,0 1.45459,0.711914 0.5625,0.711914 0.5625,1.87207 0,1.160156 -0.5625,1.87207 -0.55811,0.711914 -1.45459,0.711914 -0.54053,0 -0.93164,-0.210937 -0.38672,-0.215332 -0.6416,-0.654785 v 0.738281 h -0.81299 V 16.541 h 0.81299 z"
       id="path485" />
    <path
       d="m -129.547,20.715805 v 0.395508 h -3.71777 q 0.0527,0.834961 0.50098,1.274414 0.45263,0.435059 1.25683,0.435059 0.46582,0 0.90088,-0.114258 0.43945,-0.114258 0.87012,-0.342774 v 0.764649 q -0.43506,0.18457 -0.89209,0.28125 -0.45703,0.09668 -0.92725,0.09668 -1.17773,0 -1.86767,-0.685546 -0.68555,-0.685547 -0.68555,-1.854493 0,-1.208496 0.65039,-1.916015 0.65479,-0.711914 1.76221,-0.711914 0.99316,0 1.56884,0.641601 0.58008,0.637207 0.58008,1.73584 z m -0.80859,-0.237305 q -0.009,-0.663574 -0.37354,-1.059082 -0.36035,-0.395507 -0.958,-0.395507 -0.67676,0 -1.08545,0.382324 -0.4043,0.382324 -0.46582,1.07666 z"
       id="path487" />
  </g>
  <defs
     id="defs1019">
    <clipPath
       id="p8dd896c88d">
      <rect
         x="57.6"
         y="41.472"
         width="357.12"
         height="266.112"
         id="rect1016" />
    </clipPath>
  </defs>
</svg>
