<?xml version="1.0" encoding="UTF-8" standalone="no"?>
<svg
   width="460.8pt"
   height="345.6pt"
   viewBox="0 0 460.8 345.6"
   version="1.1"
   id="svg292"
   sodipodi:docname="Figure_Srpski2.svg"
   inkscape:version="1.2.1 (9c6d41e410, 2022-07-14)"
   xmlns:inkscape="http://www.inkscape.org/namespaces/inkscape"
   xmlns:sodipodi="http://sodipodi.sourceforge.net/DTD/sodipodi-0.dtd"
   xmlns:xlink="http://www.w3.org/1999/xlink"
   xmlns="http://www.w3.org/2000/svg"
   xmlns:svg="http://www.w3.org/2000/svg"
   xmlns:rdf="http://www.w3.org/1999/02/22-rdf-syntax-ns#"
   xmlns:cc="http://creativecommons.org/ns#"
   xmlns:dc="http://purl.org/dc/elements/1.1/">
  <sodipodi:namedview
     id="namedview294"
     pagecolor="#ffffff"
     bordercolor="#999999"
     borderopacity="1"
     inkscape:showpageshadow="0"
     inkscape:pageopacity="0"
     inkscape:pagecheckerboard="0"
     inkscape:deskcolor="#d1d1d1"
     inkscape:document-units="pt"
     showgrid="false"
     inkscape:zoom="2.1533203"
     inkscape:cx="351.55012"
     inkscape:cy="377.09207"
     inkscape:window-width="2560"
     inkscape:window-height="1371"
     inkscape:window-x="0"
     inkscape:window-y="0"
     inkscape:window-maximized="1"
     inkscape:current-layer="axes_1" />
  <metadata
     id="metadata2">
    <rdf:RDF>
      <cc:Work>
        <dc:type
           rdf:resource="http://purl.org/dc/dcmitype/StillImage" />
        <dc:date>2022-11-18T10:02:47.224954</dc:date>
        <dc:format>image/svg+xml</dc:format>
        <dc:creator>
          <cc:Agent>
            <dc:title>Matplotlib v3.6.1, https://matplotlib.org/</dc:title>
          </cc:Agent>
        </dc:creator>
      </cc:Work>
    </rdf:RDF>
  </metadata>
  <defs
     id="defs6">
    <style
       type="text/css"
       id="style4">*{stroke-linejoin: round; stroke-linecap: butt}</style>
  </defs>
  <g
     id="figure_1">
    <g
       id="patch_1">
      <path
         d="M 0 345.6  L 460.8 345.6  L 460.8 0  L 0 0  z "
         style="fill: #ffffff"
         id="path8" />
    </g>
    <g
       id="axes_1">
      <g
         id="patch_2">
        <path
           d="M 57.6 307.584  L 414.72 307.584  L 414.72 41.472  L 57.6 41.472  z "
           style="fill: #ffffff"
           id="path11" />
      </g>
      <g
         id="matplotlib.axis_1">
        <g
           id="xtick_1">
          <g
             id="line2d_1">
            <defs
               id="defs15">
              <path
                 id="m82ea5ff426"
                 d="M 0 0  L 0 3.5  "
                 style="stroke: #000000; stroke-width: 0.8" />
            </defs>
            <g
               id="g19">
              <use
                 xlink:href="#m82ea5ff426"
                 x="73.832727"
                 y="307.584"
                 style="stroke: #000000; stroke-width: 0.8"
                 id="use17" />
            </g>
          </g>
          <g
             id="text_1">
            <!-- 0 -->
            <g
               transform="translate(70.651477 322.182437) scale(0.1 -0.1)"
               id="g27">
              <defs
                 id="defs23">
                <path
                   id="DejaVuSans-30"
                   d="M 2034 4250  Q 1547 4250 1301 3770  Q 1056 3291 1056 2328  Q 1056 1369 1301 889  Q 1547 409 2034 409  Q 2525 409 2770 889  Q 3016 1369 3016 2328  Q 3016 3291 2770 3770  Q 2525 4250 2034 4250  z M 2034 4750  Q 2819 4750 3233 4129  Q 3647 3509 3647 2328  Q 3647 1150 3233 529  Q 2819 -91 2034 -91  Q 1250 -91 836 529  Q 422 1150 422 2328  Q 422 3509 836 4129  Q 1250 4750 2034 4750  z "
                   transform="scale(0.015625)" />
              </defs>
              <use
                 xlink:href="#DejaVuSans-30"
                 id="use25" />
            </g>
          </g>
        </g>
        <g
           id="xtick_2">
          <g
             id="line2d_2">
            <g
               id="g33">
              <use
                 xlink:href="#m82ea5ff426"
                 x="127.941818"
                 y="307.584"
                 style="stroke: #000000; stroke-width: 0.8"
                 id="use31" />
            </g>
          </g>
          <g
             id="text_2">
            <!-- 500 -->
            <g
               transform="translate(118.398068 322.182437) scale(0.1 -0.1)"
               id="g45">
              <defs
                 id="defs37">
                <path
                   id="DejaVuSans-35"
                   d="M 691 4666  L 3169 4666  L 3169 4134  L 1269 4134  L 1269 2991  Q 1406 3038 1543 3061  Q 1681 3084 1819 3084  Q 2600 3084 3056 2656  Q 3513 2228 3513 1497  Q 3513 744 3044 326  Q 2575 -91 1722 -91  Q 1428 -91 1123 -41  Q 819 9 494 109  L 494 744  Q 775 591 1075 516  Q 1375 441 1709 441  Q 2250 441 2565 725  Q 2881 1009 2881 1497  Q 2881 1984 2565 2268  Q 2250 2553 1709 2553  Q 1456 2553 1204 2497  Q 953 2441 691 2322  L 691 4666  z "
                   transform="scale(0.015625)" />
              </defs>
              <use
                 xlink:href="#DejaVuSans-35"
                 id="use39" />
              <use
                 xlink:href="#DejaVuSans-30"
                 x="63.623047"
                 id="use41" />
              <use
                 xlink:href="#DejaVuSans-30"
                 x="127.246094"
                 id="use43" />
            </g>
          </g>
        </g>
        <g
           id="xtick_3">
          <g
             id="line2d_3">
            <g
               id="g51">
              <use
                 xlink:href="#m82ea5ff426"
                 x="182.050909"
                 y="307.584"
                 style="stroke: #000000; stroke-width: 0.8"
                 id="use49" />
            </g>
          </g>
          <g
             id="text_3">
            <!-- 1000 -->
            <g
               transform="translate(169.325909 322.182437) scale(0.1 -0.1)"
               id="g65">
              <defs
                 id="defs55">
                <path
                   id="DejaVuSans-31"
                   d="M 794 531  L 1825 531  L 1825 4091  L 703 3866  L 703 4441  L 1819 4666  L 2450 4666  L 2450 531  L 3481 531  L 3481 0  L 794 0  L 794 531  z "
                   transform="scale(0.015625)" />
              </defs>
              <use
                 xlink:href="#DejaVuSans-31"
                 id="use57" />
              <use
                 xlink:href="#DejaVuSans-30"
                 x="63.623047"
                 id="use59" />
              <use
                 xlink:href="#DejaVuSans-30"
                 x="127.246094"
                 id="use61" />
              <use
                 xlink:href="#DejaVuSans-30"
                 x="190.869141"
                 id="use63" />
            </g>
          </g>
        </g>
        <g
           id="xtick_4">
          <g
             id="line2d_4">
            <g
               id="g71">
              <use
                 xlink:href="#m82ea5ff426"
                 x="236.16"
                 y="307.584"
                 style="stroke: #000000; stroke-width: 0.8"
                 id="use69" />
            </g>
          </g>
          <g
             id="text_4">
            <!-- 1500 -->
            <g
               transform="translate(223.435 322.182437) scale(0.1 -0.1)"
               id="g82">
              <use
                 xlink:href="#DejaVuSans-31"
                 id="use74" />
              <use
                 xlink:href="#DejaVuSans-35"
                 x="63.623047"
                 id="use76" />
              <use
                 xlink:href="#DejaVuSans-30"
                 x="127.246094"
                 id="use78" />
              <use
                 xlink:href="#DejaVuSans-30"
                 x="190.869141"
                 id="use80" />
            </g>
          </g>
        </g>
        <g
           id="xtick_5">
          <g
             id="line2d_5">
            <g
               id="g88">
              <use
                 xlink:href="#m82ea5ff426"
                 x="290.269091"
                 y="307.584"
                 style="stroke: #000000; stroke-width: 0.8"
                 id="use86" />
            </g>
          </g>
          <g
             id="text_5">
            <!-- 2000 -->
            <g
               transform="translate(277.544091 322.182437) scale(0.1 -0.1)"
               id="g102">
              <defs
                 id="defs92">
                <path
                   id="DejaVuSans-32"
                   d="M 1228 531  L 3431 531  L 3431 0  L 469 0  L 469 531  Q 828 903 1448 1529  Q 2069 2156 2228 2338  Q 2531 2678 2651 2914  Q 2772 3150 2772 3378  Q 2772 3750 2511 3984  Q 2250 4219 1831 4219  Q 1534 4219 1204 4116  Q 875 4013 500 3803  L 500 4441  Q 881 4594 1212 4672  Q 1544 4750 1819 4750  Q 2544 4750 2975 4387  Q 3406 4025 3406 3419  Q 3406 3131 3298 2873  Q 3191 2616 2906 2266  Q 2828 2175 2409 1742  Q 1991 1309 1228 531  z "
                   transform="scale(0.015625)" />
              </defs>
              <use
                 xlink:href="#DejaVuSans-32"
                 id="use94" />
              <use
                 xlink:href="#DejaVuSans-30"
                 x="63.623047"
                 id="use96" />
              <use
                 xlink:href="#DejaVuSans-30"
                 x="127.246094"
                 id="use98" />
              <use
                 xlink:href="#DejaVuSans-30"
                 x="190.869141"
                 id="use100" />
            </g>
          </g>
        </g>
        <g
           id="xtick_6">
          <g
             id="line2d_6">
            <g
               id="g108">
              <use
                 xlink:href="#m82ea5ff426"
                 x="344.378182"
                 y="307.584"
                 style="stroke: #000000; stroke-width: 0.8"
                 id="use106" />
            </g>
          </g>
          <g
             id="text_6">
            <!-- 2500 -->
            <g
               transform="translate(331.653182 322.182437) scale(0.1 -0.1)"
               id="g119">
              <use
                 xlink:href="#DejaVuSans-32"
                 id="use111" />
              <use
                 xlink:href="#DejaVuSans-35"
                 x="63.623047"
                 id="use113" />
              <use
                 xlink:href="#DejaVuSans-30"
                 x="127.246094"
                 id="use115" />
              <use
                 xlink:href="#DejaVuSans-30"
                 x="190.869141"
                 id="use117" />
            </g>
          </g>
        </g>
        <g
           id="xtick_7">
          <g
             id="line2d_7">
            <g
               id="g125">
              <use
                 xlink:href="#m82ea5ff426"
                 x="398.487273"
                 y="307.584"
                 style="stroke: #000000; stroke-width: 0.8"
                 id="use123" />
            </g>
          </g>
          <g
             id="text_7">
            <!-- 3000 -->
            <g
               transform="translate(385.762273 322.182437) scale(0.1 -0.1)"
               id="g139">
              <defs
                 id="defs129">
                <path
                   id="DejaVuSans-33"
                   d="M 2597 2516  Q 3050 2419 3304 2112  Q 3559 1806 3559 1356  Q 3559 666 3084 287  Q 2609 -91 1734 -91  Q 1441 -91 1130 -33  Q 819 25 488 141  L 488 750  Q 750 597 1062 519  Q 1375 441 1716 441  Q 2309 441 2620 675  Q 2931 909 2931 1356  Q 2931 1769 2642 2001  Q 2353 2234 1838 2234  L 1294 2234  L 1294 2753  L 1863 2753  Q 2328 2753 2575 2939  Q 2822 3125 2822 3475  Q 2822 3834 2567 4026  Q 2313 4219 1838 4219  Q 1578 4219 1281 4162  Q 984 4106 628 3988  L 628 4550  Q 988 4650 1302 4700  Q 1616 4750 1894 4750  Q 2613 4750 3031 4423  Q 3450 4097 3450 3541  Q 3450 3153 3228 2886  Q 3006 2619 2597 2516  z "
                   transform="scale(0.015625)" />
              </defs>
              <use
                 xlink:href="#DejaVuSans-33"
                 id="use131" />
              <use
                 xlink:href="#DejaVuSans-30"
                 x="63.623047"
                 id="use133" />
              <use
                 xlink:href="#DejaVuSans-30"
                 x="127.246094"
                 id="use135" />
              <use
                 xlink:href="#DejaVuSans-30"
                 x="190.869141"
                 id="use137" />
            </g>
          </g>
        </g>
      </g>
      <g
         id="matplotlib.axis_2">
        <g
           id="ytick_1">
          <g
             id="line2d_8">
            <defs
               id="defs162">
              <path
                 id="m91dd6512f4"
                 d="M 0 0  L -3.5 0  "
                 style="stroke: #000000; stroke-width: 0.8" />
            </defs>
            <g
               id="g166">
              <use
                 xlink:href="#m91dd6512f4"
                 x="57.6"
                 y="295.487712"
                 style="stroke: #000000; stroke-width: 0.8"
                 id="use164" />
            </g>
          </g>
          <g
             id="text_9">
            <!-- 0 -->
            <g
               transform="translate(44.2375 299.28693) scale(0.1 -0.1)"
               id="g171">
              <use
                 xlink:href="#DejaVuSans-30"
                 id="use169" />
            </g>
          </g>
        </g>
        <g
           id="ytick_2">
          <g
             id="line2d_9">
            <g
               id="g177">
              <use
                 xlink:href="#m91dd6512f4"
                 x="57.6"
                 y="236.693521"
                 style="stroke: #000000; stroke-width: 0.8"
                 id="use175" />
            </g>
          </g>
          <g
             id="text_10">
            <!-- 2 -->
            <g
               transform="translate(44.2375 240.49274) scale(0.1 -0.1)"
               id="g182">
              <use
                 xlink:href="#DejaVuSans-32"
                 id="use180" />
            </g>
          </g>
        </g>
        <g
           id="ytick_3">
          <g
             id="line2d_10">
            <g
               id="g188">
              <use
                 xlink:href="#m91dd6512f4"
                 x="57.6"
                 y="177.89933"
                 style="stroke: #000000; stroke-width: 0.8"
                 id="use186" />
            </g>
          </g>
          <g
             id="text_11">
            <!-- 4 -->
            <g
               transform="translate(44.2375 181.698549) scale(0.1 -0.1)"
               id="g196">
              <defs
                 id="defs192">
                <path
                   id="DejaVuSans-34"
                   d="M 2419 4116  L 825 1625  L 2419 1625  L 2419 4116  z M 2253 4666  L 3047 4666  L 3047 1625  L 3713 1625  L 3713 1100  L 3047 1100  L 3047 0  L 2419 0  L 2419 1100  L 313 1100  L 313 1709  L 2253 4666  z "
                   transform="scale(0.015625)" />
              </defs>
              <use
                 xlink:href="#DejaVuSans-34"
                 id="use194" />
            </g>
          </g>
        </g>
        <g
           id="ytick_4">
          <g
             id="line2d_11">
            <g
               id="g202">
              <use
                 xlink:href="#m91dd6512f4"
                 x="57.6"
                 y="119.10514"
                 style="stroke: #000000; stroke-width: 0.8"
                 id="use200" />
            </g>
          </g>
          <g
             id="text_12">
            <!-- 6 -->
            <g
               transform="translate(44.2375 122.904359) scale(0.1 -0.1)"
               id="g210">
              <defs
                 id="defs206">
                <path
                   id="DejaVuSans-36"
                   d="M 2113 2584  Q 1688 2584 1439 2293  Q 1191 2003 1191 1497  Q 1191 994 1439 701  Q 1688 409 2113 409  Q 2538 409 2786 701  Q 3034 994 3034 1497  Q 3034 2003 2786 2293  Q 2538 2584 2113 2584  z M 3366 4563  L 3366 3988  Q 3128 4100 2886 4159  Q 2644 4219 2406 4219  Q 1781 4219 1451 3797  Q 1122 3375 1075 2522  Q 1259 2794 1537 2939  Q 1816 3084 2150 3084  Q 2853 3084 3261 2657  Q 3669 2231 3669 1497  Q 3669 778 3244 343  Q 2819 -91 2113 -91  Q 1303 -91 875 529  Q 447 1150 447 2328  Q 447 3434 972 4092  Q 1497 4750 2381 4750  Q 2619 4750 2861 4703  Q 3103 4656 3366 4563  z "
                   transform="scale(0.015625)" />
              </defs>
              <use
                 xlink:href="#DejaVuSans-36"
                 id="use208" />
            </g>
          </g>
        </g>
        <g
           id="ytick_5">
          <g
             id="line2d_12">
            <g
               id="g216">
              <use
                 xlink:href="#m91dd6512f4"
                 x="57.6"
                 y="60.310949"
                 style="stroke: #000000; stroke-width: 0.8"
                 id="use214" />
            </g>
          </g>
          <g
             id="text_13">
            <!-- 8 -->
            <g
               transform="translate(44.2375 64.110168) scale(0.1 -0.1)"
               id="g224">
              <defs
                 id="defs220">
                <path
                   id="DejaVuSans-38"
                   d="M 2034 2216  Q 1584 2216 1326 1975  Q 1069 1734 1069 1313  Q 1069 891 1326 650  Q 1584 409 2034 409  Q 2484 409 2743 651  Q 3003 894 3003 1313  Q 3003 1734 2745 1975  Q 2488 2216 2034 2216  z M 1403 2484  Q 997 2584 770 2862  Q 544 3141 544 3541  Q 544 4100 942 4425  Q 1341 4750 2034 4750  Q 2731 4750 3128 4425  Q 3525 4100 3525 3541  Q 3525 3141 3298 2862  Q 3072 2584 2669 2484  Q 3125 2378 3379 2068  Q 3634 1759 3634 1313  Q 3634 634 3220 271  Q 2806 -91 2034 -91  Q 1263 -91 848 271  Q 434 634 434 1313  Q 434 1759 690 2068  Q 947 2378 1403 2484  z M 1172 3481  Q 1172 3119 1398 2916  Q 1625 2713 2034 2713  Q 2441 2713 2670 2916  Q 2900 3119 2900 3481  Q 2900 3844 2670 4047  Q 2441 4250 2034 4250  Q 1625 4250 1398 4047  Q 1172 3844 1172 3481  z "
                   transform="scale(0.015625)" />
              </defs>
              <use
                 xlink:href="#DejaVuSans-38"
                 id="use222" />
            </g>
          </g>
        </g>
        <g
           aria-label="Vreme"
           id="text342"
           style="font-size:9px;stroke-width:0.75">
          <path
             d="m 225.34593,336.03537 -2.50488,-6.56104 h 0.92725 l 2.07861,5.52393 2.08301,-5.52393 h 0.92285 l -2.50049,6.56104 z"
             id="path413" />
          <path
             d="m 232.62767,331.86935 q -0.13623,-0.0791 -0.29883,-0.11425 -0.1582,-0.0396 -0.35156,-0.0396 -0.68555,0 -1.05469,0.44824 -0.36474,0.44385 -0.36474,1.27881 v 2.59277 h -0.81299 v -4.92188 h 0.81299 v 0.76465 q 0.25488,-0.44824 0.66357,-0.66357 0.40869,-0.21973 0.99316,-0.21973 0.0835,0 0.18457,0.0132 0.10108,0.009 0.22413,0.0308 z"
             id="path415" />
          <path
             d="m 237.48802,333.37228 v 0.39551 h -3.71777 q 0.0527,0.83496 0.50097,1.27442 0.45264,0.43505 1.25684,0.43505 0.46582,0 0.90088,-0.11425 0.43945,-0.11426 0.87012,-0.34278 v 0.76465 q -0.43506,0.18457 -0.89209,0.28125 -0.45703,0.0967 -0.92725,0.0967 -1.17773,0 -1.86767,-0.68555 -0.68555,-0.68554 -0.68555,-1.85449 0,-1.20849 0.65039,-1.91601 0.65478,-0.71192 1.76221,-0.71192 0.99316,0 1.56884,0.6416 0.58008,0.63721 0.58008,1.73584 z m -0.80859,-0.2373 q -0.009,-0.66357 -0.37354,-1.05908 -0.36035,-0.39551 -0.958,-0.39551 -0.67676,0 -1.08545,0.38232 -0.4043,0.38233 -0.46582,1.07666 z"
             id="path417" />
          <path
             d="m 242.6472,332.05832 q 0.30322,-0.54492 0.7251,-0.8042 0.42187,-0.25928 0.99316,-0.25928 0.76905,0 1.18653,0.54053 0.41748,0.53613 0.41748,1.5293 v 2.9707 h -0.81299 v -2.94434 q 0,-0.70752 -0.25049,-1.05029 -0.25049,-0.34277 -0.76465,-0.34277 -0.62842,0 -0.99316,0.41748 -0.36475,0.41748 -0.36475,1.13818 v 2.78174 h -0.81299 v -2.94434 q 0,-0.71191 -0.25048,-1.05029 -0.25049,-0.34277 -0.77344,-0.34277 -0.61963,0 -0.98438,0.42187 -0.36474,0.41748 -0.36474,1.13379 v 2.78174 h -0.81299 v -4.92188 h 0.81299 v 0.76465 q 0.27685,-0.45263 0.66357,-0.66797 0.38672,-0.21533 0.91846,-0.21533 0.53613,0 0.90967,0.27246 0.37793,0.27246 0.5581,0.79102 z"
             id="path419" />
          <path
             d="m 251.79222,333.37228 v 0.39551 h -3.71777 q 0.0527,0.83496 0.50097,1.27442 0.45264,0.43505 1.25684,0.43505 0.46582,0 0.90088,-0.11425 0.43945,-0.11426 0.87012,-0.34278 v 0.76465 q -0.43506,0.18457 -0.89209,0.28125 -0.45703,0.0967 -0.92725,0.0967 -1.17773,0 -1.86768,-0.68555 -0.68554,-0.68554 -0.68554,-1.85449 0,-1.20849 0.65039,-1.91601 0.65478,-0.71192 1.76221,-0.71192 0.99316,0 1.56884,0.6416 0.58008,0.63721 0.58008,1.73584 z m -0.80859,-0.2373 q -0.009,-0.66357 -0.37354,-1.05908 -0.36035,-0.39551 -0.95801,-0.39551 -0.67675,0 -1.08544,0.38232 -0.4043,0.38233 -0.46583,1.07666 z"
             id="path421" />
        </g>
        <g
           aria-label="Visina najbolje bube"
           transform="rotate(-90)"
           id="text472"
           style="font-size:9px;stroke-width:0.75">
          <path
             d="m -217.22691,37.57925 -2.50489,-6.561035 h 0.92725 l 2.07861,5.523926 2.08301,-5.523926 h 0.92285 l -2.50049,6.561035 z"
             id="path424" />
          <path
             d="m -212.99498,32.657375 h 0.80859 v 4.921875 h -0.80859 z m 0,-1.916015 h 0.80859 v 1.023925 h -0.80859 z"
             id="path426" />
          <path
             d="m -207.3568,32.802395 v 0.764648 q -0.34277,-0.175781 -0.71191,-0.263672 -0.36914,-0.08789 -0.76465,-0.08789 -0.60205,0 -0.90527,0.18457 -0.29883,0.18457 -0.29883,0.553711 0,0.28125 0.21533,0.443848 0.21533,0.158203 0.86572,0.303222 l 0.27686,0.06152 q 0.86133,0.18457 1.22168,0.522949 0.36475,0.333984 0.36475,0.936035 0,0.685547 -0.54493,1.085449 -0.54052,0.399903 -1.48974,0.399903 -0.39551,0 -0.82617,-0.0791 -0.42627,-0.07471 -0.90088,-0.228515 v -0.834961 q 0.44824,0.23291 0.8833,0.351562 0.43506,0.114258 0.86133,0.114258 0.57128,0 0.8789,-0.193359 0.30762,-0.197754 0.30762,-0.553711 0,-0.32959 -0.22412,-0.505371 -0.21973,-0.175782 -0.97119,-0.338379 l -0.28125,-0.06592 q -0.75147,-0.158203 -1.08545,-0.483399 -0.33399,-0.32959 -0.33399,-0.900879 0,-0.694336 0.49219,-1.072265 0.49219,-0.37793 1.39746,-0.37793 0.44824,0 0.84375,0.06592 0.39551,0.06592 0.72949,0.197754 z"
             id="path428" />
          <path
             d="m -205.80553,32.657375 h 0.8086 v 4.921875 h -0.8086 z m 0,-1.916015 h 0.8086 v 1.023925 h -0.8086 z"
             id="path430" />
          <path
             d="m -199.21373,34.608547 v 2.970703 h -0.80859 v -2.944336 q 0,-0.69873 -0.27246,-1.045898 -0.27247,-0.347168 -0.81739,-0.347168 -0.65478,0 -1.03271,0.41748 -0.37793,0.417481 -0.37793,1.138184 v 2.781738 h -0.81299 v -4.921875 h 0.81299 v 0.764649 q 0.29004,-0.443848 0.68115,-0.663574 0.39551,-0.219727 0.90967,-0.219727 0.84814,0 1.2832,0.527344 0.43506,0.522949 0.43506,1.54248 z"
             id="path432" />
          <path
             d="m -195.36412,35.105129 q -0.97998,0 -1.35791,0.224121 -0.37793,0.224121 -0.37793,0.764649 0,0.430664 0.28125,0.685547 0.28564,0.250488 0.77344,0.250488 0.67236,0 1.07666,-0.474609 0.40869,-0.479004 0.40869,-1.27002 v -0.180176 z m 1.61279,-0.333984 v 2.808105 h -0.80859 v -0.74707 q -0.27686,0.448242 -0.68994,0.663574 -0.41309,0.210938 -1.01074,0.210938 -0.75586,0 -1.20411,-0.421875 -0.44384,-0.42627 -0.44384,-1.138184 0,-0.830566 0.55371,-1.252441 0.5581,-0.421875 1.66113,-0.421875 h 1.13379 v -0.0791 q 0,-0.558105 -0.36914,-0.861328 -0.36475,-0.307617 -1.02832,-0.307617 -0.42188,0 -0.82178,0.101074 -0.3999,0.101074 -0.76904,0.303223 v -0.747071 q 0.44385,-0.171386 0.86133,-0.254882 0.41748,-0.08789 0.81298,-0.08789 1.06787,0 1.59522,0.553711 0.52734,0.553711 0.52734,1.678711 z"
             id="path434" />
          <path
             d="m -185.13365,34.608547 v 2.970703 h -0.8086 v -2.944336 q 0,-0.69873 -0.27246,-1.045898 -0.27246,-0.347168 -0.81738,-0.347168 -0.65478,0 -1.03271,0.41748 -0.37793,0.417481 -0.37793,1.138184 v 2.781738 h -0.81299 v -4.921875 h 0.81299 v 0.764649 q 0.29004,-0.443848 0.68115,-0.663574 0.39551,-0.219727 0.90967,-0.219727 0.84814,0 1.2832,0.527344 0.43506,0.522949 0.43506,1.54248 z"
             id="path436" />
          <path
             d="m -181.28404,35.105129 q -0.97998,0 -1.35791,0.224121 -0.37793,0.224121 -0.37793,0.764649 0,0.430664 0.28125,0.685547 0.28564,0.250488 0.77344,0.250488 0.67236,0 1.07666,-0.474609 0.40869,-0.479004 0.40869,-1.27002 v -0.180176 z m 1.61279,-0.333984 v 2.808105 h -0.80859 v -0.74707 q -0.27686,0.448242 -0.68994,0.663574 -0.41309,0.210938 -1.01075,0.210938 -0.75586,0 -1.2041,-0.421875 -0.44385,-0.42627 -0.44385,-1.138184 0,-0.830566 0.55371,-1.252441 0.55811,-0.421875 1.66114,-0.421875 h 1.13379 v -0.0791 q 0,-0.558105 -0.36914,-0.861328 -0.36475,-0.307617 -1.02832,-0.307617 -0.42188,0 -0.82178,0.101074 -0.3999,0.101074 -0.76904,0.303223 v -0.747071 q 0.44384,-0.171386 0.86132,-0.254882 0.41748,-0.08789 0.81299,-0.08789 1.06787,0 1.59522,0.553711 0.52734,0.553711 0.52734,1.678711 z"
             id="path438" />
          <path
             d="m -178.00572,32.657375 h 0.80859 v 5.009766 q 0,0.94043 -0.36035,1.362305 -0.35596,0.421875 -1.15137,0.421875 h -0.30761 v -0.685547 h 0.21533 q 0.46142,0 0.62842,-0.215332 0.16699,-0.210938 0.16699,-0.883301 z m 0,-1.916015 h 0.80859 v 1.023925 h -0.80859 z"
             id="path440" />
          <path
             d="m -171.97203,35.122707 q 0,-0.892089 -0.36914,-1.397461 -0.36475,-0.509765 -1.00635,-0.509765 -0.6416,0 -1.01074,0.509765 -0.36475,0.505372 -0.36475,1.397461 0,0.89209 0.36475,1.401856 0.36914,0.505371 1.01074,0.505371 0.6416,0 1.00635,-0.505371 0.36914,-0.509766 0.36914,-1.401856 z m -2.75098,-1.718261 q 0.25489,-0.439453 0.6416,-0.650391 0.39112,-0.215332 0.93164,-0.215332 0.89649,0 1.45459,0.711914 0.5625,0.711914 0.5625,1.87207 0,1.160157 -0.5625,1.872071 -0.5581,0.711914 -1.45459,0.711914 -0.54052,0 -0.93164,-0.210938 -0.38671,-0.215332 -0.6416,-0.654785 v 0.738281 h -0.81299 v -6.83789 h 0.81299 z"
             id="path442" />
          <path
             d="m -167.88512,33.22427 q -0.65039,0 -1.02832,0.509765 -0.37793,0.505372 -0.37793,1.388672 0,0.883301 0.37354,1.393067 0.37793,0.505371 1.03271,0.505371 0.646,0 1.02393,-0.509766 0.37793,-0.509765 0.37793,-1.388672 0,-0.874511 -0.37793,-1.384277 -0.37793,-0.51416 -1.02393,-0.51416 z m 0,-0.685547 q 1.05469,0 1.65674,0.685547 0.60205,0.685547 0.60205,1.898437 0,1.208496 -0.60205,1.898438 -0.60205,0.685547 -1.65674,0.685547 -1.05908,0 -1.66113,-0.685547 -0.59766,-0.689942 -0.59766,-1.898438 0,-1.21289 0.59766,-1.898437 0.60205,-0.685547 1.66113,-0.685547 z"
             id="path444" />
          <path
             d="m -164.286,30.74136 h 0.8086 v 6.83789 h -0.8086 z"
             id="path446" />
          <path
             d="m -161.78551,32.657375 h 0.8086 v 5.009766 q 0,0.94043 -0.36036,1.362305 -0.35595,0.421875 -1.15136,0.421875 h -0.30762 v -0.685547 h 0.21533 q 0.46143,0 0.62842,-0.215332 0.16699,-0.210938 0.16699,-0.883301 z m 0,-1.916015 h 0.8086 v 1.023925 h -0.8086 z"
             id="path448" />
          <path
             d="m -155.07506,34.916164 v 0.395508 h -3.71777 q 0.0527,0.834961 0.50098,1.274414 0.45263,0.435059 1.25683,0.435059 0.46582,0 0.90088,-0.114258 0.43945,-0.114258 0.87012,-0.342773 v 0.764648 q -0.43506,0.18457 -0.89209,0.28125 -0.45703,0.09668 -0.92725,0.09668 -1.17773,0 -1.86767,-0.685547 -0.68555,-0.685547 -0.68555,-1.854492 0,-1.208496 0.65039,-1.916016 0.65478,-0.711914 1.76221,-0.711914 0.99316,0 1.56884,0.641602 0.58008,0.637207 0.58008,1.735839 z m -0.80859,-0.237304 q -0.009,-0.663575 -0.37354,-1.059082 -0.36035,-0.395508 -0.958,-0.395508 -0.67676,0 -1.08545,0.382324 -0.4043,0.382324 -0.46582,1.07666 z"
             id="path450" />
          <path
             d="m -147.35387,35.122707 q 0,-0.892089 -0.36914,-1.397461 -0.36474,-0.509765 -1.00634,-0.509765 -0.64161,0 -1.01075,0.509765 -0.36474,0.505372 -0.36474,1.397461 0,0.89209 0.36474,1.401856 0.36914,0.505371 1.01075,0.505371 0.6416,0 1.00634,-0.505371 0.36914,-0.509766 0.36914,-1.401856 z m -2.75097,-1.718261 q 0.25488,-0.439453 0.6416,-0.650391 0.39111,-0.215332 0.93164,-0.215332 0.89648,0 1.45459,0.711914 0.5625,0.711914 0.5625,1.87207 0,1.160157 -0.5625,1.872071 -0.55811,0.711914 -1.45459,0.711914 -0.54053,0 -0.93164,-0.210938 -0.38672,-0.215332 -0.6416,-0.654785 v 0.738281 h -0.81299 v -6.83789 h 0.81299 z"
             id="path452" />
          <path
             d="m -145.25768,35.636868 v -2.979493 h 0.8086 v 2.948731 q 0,0.69873 0.27246,1.050293 0.27246,0.347168 0.81738,0.347168 0.65479,0 1.03272,-0.417481 0.38232,-0.41748 0.38232,-1.138183 v -2.790528 h 0.8086 v 4.921875 h -0.8086 v -0.755859 q -0.29443,0.448242 -0.68555,0.667969 -0.38671,0.215332 -0.90087,0.215332 -0.84815,0 -1.2876,-0.527344 -0.43946,-0.527344 -0.43946,-1.54248 z m 2.03467,-3.098145 z"
             id="path454" />
          <path
             d="m -135.93687,35.122707 q 0,-0.892089 -0.36915,-1.397461 -0.36474,-0.509765 -1.00634,-0.509765 -0.6416,0 -1.01074,0.509765 -0.36475,0.505372 -0.36475,1.397461 0,0.89209 0.36475,1.401856 0.36914,0.505371 1.01074,0.505371 0.6416,0 1.00634,-0.505371 0.36915,-0.509766 0.36915,-1.401856 z m -2.75098,-1.718261 q 0.25488,-0.439453 0.6416,-0.650391 0.39111,-0.215332 0.93164,-0.215332 0.89649,0 1.45459,0.711914 0.5625,0.711914 0.5625,1.87207 0,1.160157 -0.5625,1.872071 -0.5581,0.711914 -1.45459,0.711914 -0.54053,0 -0.93164,-0.210938 -0.38672,-0.215332 -0.6416,-0.654785 v 0.738281 h -0.81299 v -6.83789 h 0.81299 z"
             id="path456" />
          <path
             d="m -129.54723,34.916164 v 0.395508 h -3.71777 q 0.0527,0.834961 0.50098,1.274414 0.45263,0.435059 1.25683,0.435059 0.46582,0 0.90088,-0.114258 0.43946,-0.114258 0.87012,-0.342773 v 0.764648 q -0.43506,0.18457 -0.89209,0.28125 -0.45703,0.09668 -0.92725,0.09668 -1.17773,0 -1.86767,-0.685547 -0.68555,-0.685547 -0.68555,-1.854492 0,-1.208496 0.65039,-1.916016 0.65479,-0.711914 1.76221,-0.711914 0.99316,0 1.56885,0.641602 0.58007,0.637207 0.58007,1.735839 z m -0.80859,-0.237304 q -0.009,-0.663575 -0.37353,-1.059082 -0.36036,-0.395508 -0.95801,-0.395508 -0.67676,0 -1.08545,0.382324 -0.4043,0.382324 -0.46582,1.07666 z"
             id="path458" />
        </g>
      </g>
      <g
         id="line2d_13">
        <path
           d="M 73.832727 295.488  L 75.023127 291.573525  L 76.429964 283.498947  L 78.053236 271.908278  L 84.329891 227.37157  L 86.602473 213.463784  L 88.983273 200.24378  L 91.472291 187.667213  L 94.069527 175.696333  L 96.774982 164.298833  L 99.480436 153.847335  L 102.294109 143.853029  L 105.216 134.304793  L 108.137891 125.505909  L 111.168 117.086925  L 114.198109 109.313685  L 117.336436 101.878173  L 120.474764 95.012444  L 123.613091 88.668438  L 126.859636 82.611349  L 130.106182 77.03053  L 133.352727 71.893108  L 136.599273 67.170841  L 139.845818 62.839366  L 143.092364 58.877598  L 146.338909 55.267251  L 147.745745 54.13579  L 148.719709 53.679953  L 149.693673 53.613408  L 150.775855 54.153316  L 151.966255 55.334752  L 152.940218 55.846084  L 154.130618 57.051256  L 155.104582 57.58262  L 156.294982 58.810399  L 157.268945 59.360138  L 158.459345 60.608966  L 159.433309 61.175839  L 160.623709 62.444743  L 161.597673 63.027852  L 162.788073 64.315451  L 163.762036 64.913611  L 164.952436 66.218095  L 165.9264 66.829898  L 167.1168 68.149609  L 168.090764 68.773752  L 169.281164 70.114745  L 170.255127 70.784152  L 171.445527 72.172567  L 172.419491 72.847895  L 173.609891 74.244956  L 174.583855 74.93518  L 175.774255 76.666983  L 176.856436 79.117223  L 177.938618 82.052937  L 179.0208 84.228083  L 180.2112 87.762193  L 181.185164 90.989664  L 182.267345 93.693673  L 183.349527 96.941131  L 184.431709 99.302183  L 185.513891 102.242409  L 186.487855 104.02084  L 187.678255 107.003908  L 188.652218 108.34096  L 189.7344 108.971344  L 190.816582 110.470897  L 191.898764 111.197933  L 193.089164 112.861378  L 194.063127 113.601986  L 195.253527 115.355932  L 196.227491 116.160949  L 197.309673 118.129635  L 198.500073 121.111805  L 199.474036 122.424764  L 200.448 122.849461  L 201.6384 124.482118  L 202.720582 125.165125  L 203.802764 126.73733  L 204.884945 127.50246  L 205.967127 129.156691  L 207.049309 129.992941  L 208.239709 132.166723  L 209.321891 134.495425  L 210.295855 135.74249  L 211.378036 138.037053  L 212.460218 139.246382  L 213.5424 141.39321  L 214.624582 142.46443  L 215.706764 144.484963  L 216.788945 145.437863  L 217.871127 147.348479  L 218.845091 148.002663  L 220.035491 150.014462  L 221.009455 150.58845  L 222.199855 152.510281  L 223.173818 153.015231  L 224.364218 154.859911  L 225.338182 155.305694  L 227.718982 159.320283  L 228.692945 161.791259  L 229.775127 163.321713  L 230.857309 165.611576  L 231.939491 166.73809  L 233.021673 168.872091  L 233.995636 169.634261  L 235.186036 171.848552  L 236.16 172.495882  L 237.3504 174.582557  L 238.324364 175.131813  L 239.514764 177.109234  L 240.488727 177.574544  L 241.679127 179.458925  L 242.653091 179.852758  L 243.843491 181.658845  L 244.817455 181.992523  L 246.007855 183.729203  L 247.090036 183.923298  L 248.172218 182.985997  L 249.470836 180.642671  L 250.877673 177.162222  L 252.392727 172.815785  L 257.911855 155.779019  L 260.941964 147.290317  L 263.972073 139.459938  L 267.002182 132.224046  L 270.140509 125.299514  L 273.278836 118.905404  L 276.417164 112.999389  L 279.663709 107.365002  L 282.910255 102.180219  L 286.1568 97.415745  L 289.403345 93.046352  L 292.649891 89.050238  L 295.896436 85.408521  L 299.142982 82.104824  L 302.389527 79.124943  L 305.527855 76.540623  L 308.666182 74.237773  L 311.804509 72.208092  L 314.942836 70.44446  L 318.081164 68.940841  L 321.111273 67.731053  L 322.301673 67.42106  L 323.0592 67.383777  L 324.033164 67.591194  L 325.115345 68.28498  L 326.197527 69.572712  L 327.279709 71.221769  L 328.361891 72.411028  L 329.444073 74.018513  L 330.418036 74.996535  L 331.608436 76.73964  L 332.5824 77.686428  L 333.7728 79.394119  L 334.746764 80.313994  L 335.937164 81.991418  L 336.911127 82.890989  L 338.101527 84.5478  L 339.075491 85.440793  L 340.265891 87.089142  L 341.239855 87.966339  L 342.430255 89.59854  L 343.404218 90.468614  L 344.594618 92.091931  L 345.568582 92.947722  L 346.758982 94.55578  L 347.732945 95.402354  L 348.923345 96.999259  L 349.897309 97.832115  L 351.087709 99.413336  L 352.061673 100.233552  L 353.252073 101.799532  L 354.226036 102.604832  L 355.416436 104.153123  L 356.3904 104.943818  L 357.5808 106.474811  L 358.554764 107.252042  L 359.745164 108.767065  L 360.719127 109.532188  L 361.909527 111.032784  L 362.883491 111.787013  L 364.073891 113.274565  L 365.047855 114.018981  L 366.238255 115.494722  L 367.212218 116.230289  L 368.402618 117.695317  L 369.376582 118.422897  L 370.566982 119.878194  L 371.540945 120.598555  L 372.731345 122.044995  L 373.705309 122.758824  L 374.895709 124.19719  L 375.869673 124.905098  L 377.060073 126.336087  L 378.034036 127.038624  L 379.224436 128.462859  L 380.1984 129.160514  L 381.3888 130.578551  L 382.362764 131.271762  L 383.553164 132.684098  L 384.527127 133.373256  L 385.717527 134.780333  L 386.691491 135.465787  L 387.881891 136.868001  L 388.855855 137.550063  L 390.046255 138.947766  L 391.020218 139.626716  L 392.210618 141.020223  L 393.184582 141.696308  L 394.374982 143.085899  L 395.348945 143.759342  L 396.539345 145.145266  L 397.513309 145.816266  L 398.487273 147.068969  L 398.487273 147.068969  "
           clip-path="url(#p26c2434e88)"
           style="fill: none; stroke: #1f77b4; stroke-width: 1.5; stroke-linecap: square"
           id="path270" />
      </g>
      <g
         id="patch_3">
        <path
           d="M 57.6 307.584  L 57.6 41.472  "
           style="fill: none; stroke: #000000; stroke-width: 0.8; stroke-linejoin: miter; stroke-linecap: square"
           id="path273" />
      </g>
      <g
         id="patch_4">
        <path
           d="M 414.72 307.584  L 414.72 41.472  "
           style="fill: none; stroke: #000000; stroke-width: 0.8; stroke-linejoin: miter; stroke-linecap: square"
           id="path276" />
      </g>
      <g
         id="patch_5">
        <path
           d="M 57.6 307.584  L 414.72 307.584  "
           style="fill: none; stroke: #000000; stroke-width: 0.8; stroke-linejoin: miter; stroke-linecap: square"
           id="path279" />
      </g>
      <g
         id="patch_6">
        <path
           d="M 57.6 41.472  L 414.72 41.472  "
           style="fill: none; stroke: #000000; stroke-width: 0.8; stroke-linejoin: miter; stroke-linecap: square"
           id="path282" />
      </g>
    </g>
  </g>
  <defs
     id="defs290">
    <clipPath
       id="p26c2434e88">
      <rect
         x="57.6"
         y="41.472"
         width="357.12"
         height="266.112"
         id="rect287" />
    </clipPath>
  </defs>
</svg>
