<svg width="1280" height="720" xmlns="http://www.w3.org/2000/svg" xmlns:xlink="http://www.w3.org/1999/xlink" overflow="hidden"><defs><clipPath id="clip0"><rect x="0" y="0" width="1280" height="720"/></clipPath></defs><g clip-path="url(#clip0)"><rect x="0" y="0" width="1280" height="720" fill="#FFFFFF"/><path d="M122 130.457C142.193 88.6519 162.387 46.8463 184.563 53.7527 206.739 60.6591 232.88 123.257 255.056 171.896 277.232 220.534 293.093 288.569 317.618 345.583 342.144 402.598 378.859 483.858 402.21 513.981 425.561 544.105 441.863 531.908 457.723 526.324 473.584 520.741 485.774 501.638 497.376 480.478 508.978 459.318 516.615 418.027 527.335 399.365 538.056 380.703 547.309 356.163 561.701 368.507 576.093 380.85 594.451 428.901 613.689 473.425 632.928 517.949 653.783 605.233 677.133 635.651 700.484 666.068 726.772 677.383 753.795 655.929 780.817 634.475 816.357 547.337 839.268 506.928 862.178 466.518 874.074 455.791 891.256 413.471 908.439 371.152 921.51 268.585 942.364 253.009 963.218 237.433 993.031 307.672 1016.38 320.015 1039.73 332.358 1059.26 339.118 1082.47 327.068 1105.67 315.019 1134.02 261.972 1155.61 247.719 1177.19 233.465 1201.13 239.637 1212 241.547" stroke="#2F528F" stroke-width="8" stroke-miterlimit="8" fill="none" fill-rule="evenodd"/><path d="M346.5 387C346.5 377.887 353.664 370.5 362.5 370.5 371.337 370.5 378.5 377.887 378.5 387 378.5 396.113 371.337 403.5 362.5 403.5 353.664 403.5 346.5 396.113 346.5 387Z" stroke="#2F528F" stroke-width="3" stroke-miterlimit="8" fill="none" fill-rule="evenodd"/><path d="M417.5 512C417.5 502.887 424.887 495.5 434 495.5 443.113 495.5 450.5 502.887 450.5 512 450.5 521.113 443.113 528.5 434 528.5 424.887 528.5 417.5 521.113 417.5 512Z" stroke="#2F528F" stroke-width="3" stroke-miterlimit="8" fill="#4472C4" fill-rule="evenodd"/><path d="M477.5 418.5C477.5 409.664 484.887 402.5 494 402.5 503.113 402.5 510.5 409.664 510.5 418.5 510.5 427.337 503.113 434.5 494 434.5 484.887 434.5 477.5 427.337 477.5 418.5Z" stroke="#2F528F" stroke-width="3" stroke-miterlimit="8" fill="none" fill-rule="evenodd"/><path d="M285.5 232C285.5 222.887 292.887 215.5 302 215.5 311.113 215.5 318.5 222.887 318.5 232 318.5 241.113 311.113 248.5 302 248.5 292.887 248.5 285.5 241.113 285.5 232Z" stroke="#2F528F" stroke-width="3" stroke-miterlimit="8" fill="none" fill-rule="evenodd"/><path d="M306.936 252.648 348.254 362.408 346.382 363.113 305.064 253.352ZM350.592 360.104 349.667 369 343.105 362.922Z" fill="#4472C4"/><path d="M378.189 398.018 470.727 415.87 470.348 417.834 377.811 399.982ZM469.986 412.672 477.084 418.115 468.471 420.527Z" fill="#4472C4"/><path d="M0.843565-0.537028 36.6531 55.7127 34.966 56.7867-0.843565 0.537028ZM38.4677 52.9769 39.3897 61.8735 31.7192 57.2731Z" fill="#4472C4" transform="matrix(-1 0 0 1 489.39 436)"/><path d="M1.5-2.38246e-07 1.5001 653.5-1.4999 653.5-1.5 2.38246e-07ZM4.5001 652 0.000104987 661-4.4999 652Z" transform="matrix(1 0 0 -1 70.5001 699.5)"/><path d="M68.5001 698 1237.75 698 1237.75 701 68.5001 701ZM1236.25 695 1245.25 699.5 1236.25 704Z"/><text font-family="Calibri,Calibri_MSFontService,sans-serif" font-weight="400" font-size="24" transform="translate(36.78 26)">Greška</text><text font-family="Calibri,Calibri_MSFontService,sans-serif" font-weight="400" font-size="24" transform="translate(1150.42 647)">Vrednost</text><text font-family="Calibri,Calibri_MSFontService,sans-serif" font-weight="400" font-size="24" transform="translate(1143.56 676)">parametra</text><text font-family="Calibri,Calibri_MSFontService,sans-serif" font-weight="400" font-size="24" transform="translate(311.586 199)">1</text><text font-family="Calibri,Calibri_MSFontService,sans-serif" font-weight="400" font-size="24" transform="translate(377.792 363)">2</text><text font-family="Calibri,Calibri_MSFontService,sans-serif" font-weight="400" font-size="24" transform="translate(491.863 393)">3</text><text font-family="Calibri,Calibri_MSFontService,sans-serif" font-weight="400" font-size="24" transform="translate(412.998 491)">4</text></g></svg>