<?xml version="1.0" encoding="UTF-8" standalone="no"?>
<svg
   id="_1-10"
   data-name="1-10"
   viewBox="0 0 32 32"
   version="1.1"
   sodipodi:docname="aktuelne-oblasti.svg"
   inkscape:version="1.1.1 (3bf5ae0d25, 2021-09-20, custom)"
   xmlns:inkscape="http://www.inkscape.org/namespaces/inkscape"
   xmlns:sodipodi="http://sodipodi.sourceforge.net/DTD/sodipodi-0.dtd"
   xmlns="http://www.w3.org/2000/svg"
   xmlns:svg="http://www.w3.org/2000/svg"
   xmlns:rdf="http://www.w3.org/1999/02/22-rdf-syntax-ns#"
   xmlns:cc="http://creativecommons.org/ns#"
   xmlns:dc="http://purl.org/dc/elements/1.1/">
  <defs
     id="defs16" />
  <sodipodi:namedview
     id="namedview14"
     pagecolor="#505050"
     bordercolor="#eeeeee"
     borderopacity="1"
     inkscape:pageshadow="0"
     inkscape:pageopacity="0"
     inkscape:pagecheckerboard="0"
     showgrid="false"
     inkscape:zoom="13.46875"
     inkscape:cx="11.61949"
     inkscape:cy="23.424594"
     inkscape:window-width="1920"
     inkscape:window-height="1055"
     inkscape:window-x="0"
     inkscape:window-y="0"
     inkscape:window-maximized="1"
     inkscape:current-layer="_1-10" />
  <title
     id="title2">Target</title>
  <g
     id="Target"
     transform="matrix(1.1428571,0,0,1.1428571,-2.284949,-2.2839127)">
    <path
       d="M 15.419,12.05 A 1,1 0 1 0 15.141,10.07 6,6 0 1 0 21.93,16.859 1,1 0 0 0 19.95,16.581 4,4 0 1 1 15.419,12.05 Z"
       id="path4" />
    <path
       d="M 19.815,7.8 A 1,1 0 0 0 19.2,6.525 9.8,9.8 0 0 0 16,6 10,10 0 1 0 26,16 9.8,9.8 0 0 0 25.475,12.8 1.0001231,1.0001231 0 0 0 23.584,13.452 7.782,7.782 0 0 1 24,16 8,8 0 1 1 16,8 7.782,7.782 0 0 1 18.544,8.416 1,1 0 0 0 19.815,7.8 Z"
       id="path6" />
    <path
       d="M 29.386,11.9 A 1,1 0 0 0 27.41,12.128 0.982,0.982 0 0 0 27.455,12.423 12.135,12.135 0 0 1 28,16 12,12 0 1 1 16,4 a 12.135,12.135 0 0 1 3.575,0.545 0.982,0.982 0 0 0 0.3,0.045 h 0.01 a 1,1 0 0 0 0.259,-1.964 14,14 0 1 0 9.242,9.274 z"
       id="path8" />
    <path
       d="m 15.293,15.293 a 1,1 0 1 0 1.414,1.414 L 23.489,9.925 A 1.96,1.96 0 0 0 24,10 h 1.586 A 1.986,1.986 0 0 0 27,9.414 L 29.216,7.2 A 1.5,1.5 0 0 0 28.827,4.8 L 27.745,4.26 27.205,3.179 a 1.5,1.5 0 0 0 -2.4,-0.39 L 22.586,5 A 1.986,1.986 0 0 0 22,6.414 V 8 a 1.96,1.96 0 0 0 0.075,0.511 z M 24,6.414 25.726,4.688 26.105,5.447 a 1,1 0 0 0 0.448,0.448 L 27.312,6.274 25.586,8 H 24 Z"
       id="path10" />
  </g>
  <metadata
     id="metadata833">
    <rdf:RDF>
      <cc:Work
         rdf:about="">
        <dc:title>Target</dc:title>
      </cc:Work>
    </rdf:RDF>
  </metadata>
</svg>
