<svg width="100" height="100" version="1.1" viewBox="0 0 26.46 26.46" xmlns="http://www.w3.org/2000/svg"><path d="m3.2093 26.329c-0.16902-0.08423-0.31565-0.20878-0.41068-0.34885l-0.14781-0.21786v-2.1357l0.15505-0.22021c0.0853-0.12111 0.25754-0.27432 0.38282-0.34046l0.22777-0.12025 9.7985 0.0011c9.3946 0.0011 9.8071 5e-3 10.007 0.09601 0.25224 0.11458 0.46579 0.35656 0.54344 0.61581 0.0361 0.12051 0.051 0.54582 0.0401 1.1476-0.0166 0.91888-0.0222 0.96316-0.14453 1.137-0.16053 0.2281-0.23595 0.29163-0.49287 0.41515-0.2017 0.09698-0.44383 0.09942-9.9515 0.10053l-9.7448 0.0011zm9.6487-5.0455c-0.14228-0.03988-0.98459-0.85244-3.9462-3.8069-2.5748-2.5685-3.7959-3.8215-3.8621-3.9629-0.12126-0.25917-0.12594-0.65032-0.0107-0.89662 0.0485-0.10378 0.34262-0.44993 0.6535-0.76922 0.61591-0.63258 0.93868-0.84153 1.2969-0.83959 0.44183 0.0024 0.57475 0.11118 2.5739 2.1066l1.8993 1.8957v-7.0682c0-7.7439-0.0191-7.261 0.29991-7.6011 0.27934-0.2979 0.45928-0.33995 1.46-0.3412 0.8684-0.0011 0.91843 0.0045 1.1699 0.12978 0.16415 0.0818 0.31823 0.21102 0.41068 0.34442l0.14797 0.21351 0.0135 7.1494c7e-3 3.9322 0.0308 7.1494 0.052 7.1494s0.88724-0.85126 1.9246-1.8917c1.2411-1.2447 1.9568-1.9248 2.0928-1.9886 0.25173-0.11804 0.58489-0.12614 0.83803-0.02036 0.24849 0.10382 1.382 1.2258 1.5141 1.4987 0.134 0.27681 0.13524 0.68992 3e-3 0.94401-0.15089 0.28957-7.5281 7.6369-7.767 7.7355-0.21441 0.0885-0.49201 0.09551-0.76396 0.01929z" stroke-width=".051682"/></svg>
