<svg width="100" height="100" version="1.1" viewBox="0 0 26.46 26.46" xmlns="http://www.w3.org/2000/svg"><path d="m1.735 22.47c-0.1564-0.042-0.3049-0.0969-0.33-0.1221-0.0264-0.0264 1.629-1.726 3.918-4.024l3.964-3.978 1.207 1.197c0.6641 0.6582 1.305 1.257 1.423 1.331 0.5179 0.3228 1.355 0.4495 1.935 0.2931 0.5797-0.1561 0.8033-0.3275 2.084-1.598l1.233-1.222 3.967 3.975c2.427 2.432 3.949 3.993 3.919 4.023-0.0263 0.0263-0.1868 0.0839-0.3565 0.1281-0.2745 0.0714-1.546 0.08-11.49 0.0769-9.69-3e-3 -11.22-0.0136-11.47-0.0798zm-1.64-1.535c-0.0901-0.2586-0.0948-0.6349-0.0948-7.702 0-7.067 5e-3 -7.443 0.0948-7.702 0.0521-0.1495 0.1104-0.2718 0.1296-0.2718 0.0191 0 1.829 1.794 4.021 3.987l3.987 3.987-3.987 3.987c-2.193 2.193-4.002 3.987-4.021 3.987-0.0191 0-0.0774-0.1223-0.1296-0.2718zm22.12-3.715-3.986-3.987 3.986-3.987c2.192-2.193 4.002-3.987 4.021-3.987 0.0193 0 0.0778 0.1223 0.1299 0.2718 0.0901 0.2586 0.0948 0.6349 0.0948 7.702 0 7.067-5e-3 7.443-0.0948 7.702-0.0521 0.1495-0.1104 0.2718-0.1296 0.2718-0.0191 0-1.829-1.794-4.021-3.987zm-9.372-1.627c-0.2129-0.0949-11.5-11.41-11.44-11.47 0.0256-0.0255 0.1853-0.0825 0.355-0.1267 0.2742-0.0714 1.551-0.0803 11.47-0.0803 9.92 0 11.2 9e-3 11.47 0.0803 0.1697 0.0442 0.3304 0.1021 0.357 0.1286 0.0646 0.0645-11.22 11.38-11.45 11.47-0.2086 0.09-0.5618 0.0893-0.7654-1e-3z" stroke-width=".05178"/></svg>
