<svg width="26.46mm" height="26.46mm" version="1.1" viewBox="0 0 26.46 26.46" xmlns="http://www.w3.org/2000/svg"><g transform="translate(-18.27 -61.59)"><path d="m29.25 88.01c-0.3775-0.06539-1.644-0.406-2.113-0.5686-2.782-0.9626-5.04-2.721-6.696-5.212-2.211-3.327-2.775-7.727-1.489-11.61 1.457-4.399 5.27-7.826 9.736-8.753 1.152-0.2389 1.548-0.2775 2.836-0.2758 1.418 0.0019 2.045 0.07758 3.321 0.4006 3.276 0.8294 6.169 2.992 7.985 5.967 0.9515 1.559 1.566 3.34 1.835 5.321 0.03891 0.2861 0.06783 0.9878 0.06613 1.605-0.0069 2.525-0.6488 4.871-1.899 6.942-1.707 2.828-4.663 5.096-7.815 5.997-0.315 0.09001-0.6581 0.1797-0.7624 0.1992l-0.1896 0.03557v-9.536h2.607l0.1446-0.9229c0.07954-0.5076 0.2105-1.344 0.2911-1.859l0.1464-0.9363-3.938-0.02806v-1.379c0-1.558 0.04126-1.83 0.3474-2.293 0.2339-0.354 0.4754-0.5358 0.8949-0.6738 0.2971-0.09774 0.5048-0.1133 1.794-0.1343l1.458-0.02375v-3.25l-0.1204-0.02656c-0.9484-0.2092-3.527-0.2846-4.267-0.1247-2.205 0.4765-3.515 1.924-3.793 4.189-0.03246 0.2648-0.05908 1.21-0.05916 2.1l-1.51e-4 1.618h-2.996v3.745h2.996v4.762c0 4.502-0.0051 4.761-0.09363 4.755-0.0515-4e-3 -0.1538-0.01771-0.2274-0.03045z" stroke-width=".0535"/></g></svg>
