<svg width="100" height="100" version="1.1" viewBox="0 0 26.46 26.46" xmlns="http://www.w3.org/2000/svg"><path d="m9.484 26.3c-4.527-1.398-8.112-5.359-9.17-10.13-0.4103-1.851-0.4183-3.941-0.022-5.782 0.4064-1.888 1.375-3.893 2.646-5.478 2.115-2.638 5.306-4.411 8.692-4.83 0.83-0.1028 2.369-0.1028 3.199 0 2.924 0.362 5.661 1.701 7.753 3.793 2.087 2.087 3.435 4.84 3.793 7.749 0.169 1.372 0.0788 3.155-0.23 4.548-0.9874 4.454-4.198 8.241-8.344 9.842-0.5333 0.2059-1.279 0.4382-1.407 0.4382-0.0406 0-0.0631-0.863-0.0783-3.009-0.0186-2.627-0.0325-3.048-0.1088-3.319-0.1135-0.4022-0.2662-0.6962-0.6005-1.156-0.1493-0.2053-0.2597-0.3851-0.2453-0.3995 0.0144-0.0144 0.2554-0.0727 0.5355-0.1295 2.164-0.439 3.712-1.503 4.535-3.115 0.9848-1.93 0.8568-3.909-0.381-5.892l-0.3682-0.5899 0.1116-0.4289c0.1955-0.7511 0.1495-1.722-0.1225-2.587l-0.1101-0.3501-0.3123 0.0315c-0.7263 0.0733-1.277 0.2902-2.44 0.9604l-0.6383 0.3679-0.6058-0.1334c-0.9253-0.2038-1.461-0.2644-2.336-0.2644-0.8746 0-1.411 0.0607-2.334 0.264l-0.6038 0.133-0.5327-0.3103c-0.6839-0.3984-1.394-0.755-1.717-0.863-0.2216-0.0739-0.8252-0.1767-1.065-0.1815-0.086-2e-3 -0.2454 0.438-0.3646 1.006-0.1052 0.5008-0.0801 1.424 0.0524 1.929l0.1131 0.4312-0.3475 0.517c-0.6324 0.9409-0.9399 1.909-0.9871 3.108-0.0453 1.151 0.1137 1.931 0.5795 2.843 0.8284 1.623 2.371 2.685 4.54 3.125 0.2801 0.0568 0.5194 0.1134 0.5317 0.1257 0.0123 0.0123-0.1283 0.2446-0.3125 0.5163-0.3101 0.4574-0.5477 1.011-0.5477 1.276 0 0.1286-0.2499 0.209-0.756 0.2433-0.7298 0.0494-1.095-0.1513-1.602-0.8799-0.4452-0.6397-0.7174-0.9429-1.075-1.198-0.4884-0.3485-0.862-0.4961-1.34-0.5292l-0.4081-0.0283 0.0321 0.2533c0.0177 0.1393 0.0478 0.4687 0.0668 0.732 0.0335 0.4621 0.0394 0.4798 0.1693 0.5083 0.4906 0.1078 0.7773 0.3248 1.172 0.8866 0.4764 0.6784 0.6473 0.8793 0.952 1.119 0.3358 0.2638 0.8078 0.4951 1.214 0.5946 0.2788 0.0684 0.9858 0.083 1.286 0.0266l0.1858-0.0349v2.201c0 2.063-6e-3 2.201-0.0904 2.198-0.0497-2e-3 -0.2996-0.0675-0.5553-0.1465z" stroke-width=".05166"/></svg>
