<svg width="26.46mm" height="26.46mm" version="1.1" viewBox="0 0 26.46 26.46" xmlns="http://www.w3.org/2000/svg"><g transform="matrix(.7487 0 0 .7487 -10.35 -42.79)"><path d="m19.69 84.68c-1.719-0.4662-1.931-2.897-0.321-3.688l0.3551-0.1744h23.55l0.3551 0.1744c1.464 0.7192 1.464 2.847 0 3.566l-0.3551 0.1744-11.65 0.01175c-9.075 0.0092-11.72-0.0052-11.94-0.06491zm0-7.955c-1.719-0.4662-1.931-2.897-0.321-3.688l0.3551-0.1744h23.55l0.3551 0.1744c1.464 0.7192 1.464 2.847 0 3.566l-0.3551 0.1744-11.65 0.01174c-9.075 0.0092-11.72-0.0052-11.94-0.06491zm0-7.955c-1.719-0.4662-1.931-2.897-0.321-3.688l0.3551-0.1744h23.55l0.3551 0.1744c1.464 0.7192 1.464 2.847 0 3.566l-0.3551 0.1744-11.65 0.01174c-9.075 0.0092-11.72-0.0052-11.94-0.06491z" stroke-width=".06215"/></g></svg>
