<svg width="100" height="100" version="1.1" viewBox="0 0 26.46 26.46" xmlns="http://www.w3.org/2000/svg"><path d="m6.616 26.38c-0.8547-0.1455-1.524-0.3699-2.336-0.7835-0.7542-0.3839-1.353-0.8216-1.973-1.442-1.201-1.201-1.952-2.67-2.229-4.359-0.1068-0.6512-0.1068-12.48 0-13.13 0.1474-0.8987 0.3628-1.551 0.7879-2.386 0.3856-0.7574 0.8239-1.358 1.44-1.975 1.197-1.197 2.673-1.951 4.361-2.228 0.6512-0.1068 12.48-0.1068 13.13 0 0.8987 0.1474 1.551 0.3628 2.386 0.7879 0.7575 0.3856 1.358 0.8239 1.975 1.44 1.197 1.197 1.951 2.673 2.228 4.361 0.1068 0.6512 0.1068 12.48 0 13.13-0.1474 0.8987-0.3628 1.551-0.7879 2.386-0.3839 0.7542-0.8216 1.353-1.442 1.973-1.201 1.201-2.67 1.952-4.359 2.229-0.6164 0.1011-12.58 0.097-13.18-4e-3zm13.23-2.77c1.908-0.5266 3.297-1.94 3.784-3.849l0.1166-0.4576v-12.14l-0.116-0.455c-0.2566-1.007-0.7413-1.847-1.467-2.543-0.6975-0.6691-1.452-1.086-2.403-1.329l-0.4576-0.1166h-12.14l-0.4576 0.1166c-0.9507 0.2422-1.706 0.6596-2.403 1.329-0.7253 0.6957-1.21 1.536-1.467 2.543l-0.116 0.455v12.14l0.1166 0.4576c0.0641 0.2517 0.1842 0.6186 0.2669 0.8154 0.5806 1.382 1.883 2.558 3.283 2.965 0.7696 0.2237 0.7567 0.2234 7.002 0.2136l5.967-9e-3zm-7.208-3.539c-1.664-0.181-3.012-0.801-4.163-1.915-1.054-1.02-1.739-2.292-1.995-3.703-0.114-0.628-0.114-1.814 0-2.442 0.2428-1.338 0.8649-2.541 1.829-3.536 1.02-1.054 2.292-1.739 3.703-1.995 0.628-0.114 1.814-0.114 2.442 0 1.411 0.2561 2.683 0.9416 3.703 1.995 0.9638 0.9957 1.586 2.199 1.829 3.536 0.114 0.628 0.114 1.814 0 2.442-0.4427 2.439-2.224 4.497-4.574 5.283-0.2653 0.0888-0.6838 0.1966-0.93 0.2396-0.466 0.0813-1.485 0.1338-1.843 0.0949zm1.448-2.785c1.906-0.3938 3.28-2.091 3.28-4.054 0-2.301-1.833-4.133-4.133-4.133-2.301 0-4.133 1.833-4.133 4.133 0 1.945 1.363 3.646 3.245 4.051 0.4624 0.0993 1.269 0.1008 1.742 3e-3zm5.668-9.224c-0.742-0.1462-1.304-0.8136-1.309-1.556-3e-3 -0.3628 0.0345-0.5606 0.149-0.7921 0.4914-0.9932 1.836-1.234 2.639-0.4734 0.9602 0.9106 0.4906 2.55-0.8078 2.819-0.3064 0.0636-0.357 0.0637-0.6705 2e-3z" stroke-width=".05167"/></svg>
