<?xml version="1.0" encoding="UTF-8" standalone="no"?>
<svg
   viewBox="0 0 32 32"
   version="1.1"
   id="svg22"
   sodipodi:docname="kolaborativno.svg"
   inkscape:version="1.1.1 (3bf5ae0d25, 2021-09-20, custom)"
   xmlns:inkscape="http://www.inkscape.org/namespaces/inkscape"
   xmlns:sodipodi="http://sodipodi.sourceforge.net/DTD/sodipodi-0.dtd"
   xmlns="http://www.w3.org/2000/svg"
   xmlns:svg="http://www.w3.org/2000/svg"
   xmlns:rdf="http://www.w3.org/1999/02/22-rdf-syntax-ns#"
   xmlns:cc="http://creativecommons.org/ns#"
   xmlns:dc="http://purl.org/dc/elements/1.1/">
  <defs
     id="defs26" />
  <sodipodi:namedview
     id="namedview24"
     pagecolor="#505050"
     bordercolor="#eeeeee"
     borderopacity="1"
     inkscape:pageshadow="0"
     inkscape:pageopacity="0"
     inkscape:pagecheckerboard="0"
     showgrid="false"
     inkscape:zoom="19.047689"
     inkscape:cx="14.279948"
     inkscape:cy="20.501175"
     inkscape:window-width="1920"
     inkscape:window-height="1055"
     inkscape:window-x="0"
     inkscape:window-y="0"
     inkscape:window-maximized="1"
     inkscape:current-layer="svg22" />
  <title
     id="title2">Teamwork</title>
  <g
     id="_11-20"
     data-name="11-20"
     transform="matrix(1.1421272,0,0,1.1421272,-2.2740352,-2.2638196)">
    <g
       id="Teamwork">
      <path
         d="M 11.908,4.662 A 1,1 0 0 0 10.582,4.172 13.106,13.106 0 0 0 6.275,7.363 1.0009582,1.0009582 0 1 0 7.765,8.7 11.148,11.148 0 0 1 11.418,5.991 1,1 0 0 0 11.908,4.662 Z"
         id="path4" />
      <path
         d="m 24.938,22.416 a 11.113,11.113 0 0 1 -3.149,2.946 1.002228,1.002228 0 0 0 1.062,1.7 13.133,13.133 0 0 0 3.711,-3.474 1.0002,1.0002 0 0 0 -1.624,-1.168 z"
         id="path6" />
      <path
         d="M 24.235,8.7 A 1,1 0 1 0 25.725,7.366 13.106,13.106 0 0 0 21.418,4.175 1,1 0 1 0 20.582,5.991 11.148,11.148 0 0 1 24.235,8.7 Z"
         id="path8" />
      <path
         d="m 10.211,25.362 a 11.113,11.113 0 0 1 -3.149,-2.946 1.0002,1.0002 0 0 0 -1.624,1.168 13.133,13.133 0 0 0 3.711,3.474 1.002228,1.002228 0 0 0 1.062,-1.7 z"
         id="path10" />
      <path
         d="m 17.833,7.357 a 3,3 0 1 0 -3.666,0 5.015,5.015 0 0 0 -2.188,1.671 2.461,2.461 0 0 0 -0.215,2.587 2.5,2.5 0 0 0 2.242,1.385 h 3.988 A 2.5,2.5 0 0 0 20.236,11.615 2.461,2.461 0 0 0 20.021,9.028 5.015,5.015 0 0 0 17.833,7.357 Z M 16,4 a 1,1 0 1 1 -1,1 1,1 0 0 1 1,-1 z m 2.451,6.714 A 0.5,0.5 0 0 1 17.994,11 h -3.988 a 0.5,0.5 0 0 1 -0.457,-0.286 0.459,0.459 0 0 1 0.037,-0.5 3,3 0 0 1 4.828,0 0.461,0.461 0 0 1 0.037,0.5 z"
         id="path12" />
      <path
         d="m 29.515,17.028 a 5.02,5.02 0 0 0 -2.188,-1.671 3,3 0 1 0 -3.667,0 5.02,5.02 0 0 0 -2.188,1.671 2.465,2.465 0 0 0 -0.215,2.587 A 2.5,2.5 0 0 0 23.5,21 h 3.987 a 2.5,2.5 0 0 0 2.242,-1.385 2.463,2.463 0 0 0 -0.214,-2.587 z M 25.494,12 a 1,1 0 1 1 -1,1 1,1 0 0 1 1,-1 z m 2.45,6.715 A 0.5,0.5 0 0 1 27.487,19 H 23.5 a 0.5,0.5 0 0 1 -0.457,-0.285 0.458,0.458 0 0 1 0.037,-0.5 3,3 0 0 1 4.827,0 0.458,0.458 0 0 1 0.037,0.5 z"
         id="path14" />
      <path
         d="m 8.34,15.357 a 3,3 0 1 0 -3.667,0 A 5.02,5.02 0 0 0 2.485,17.028 2.463,2.463 0 0 0 2.271,19.615 2.5,2.5 0 0 0 4.513,21 H 8.5 A 2.5,2.5 0 0 0 10.743,19.615 2.465,2.465 0 0 0 10.528,17.028 5.02,5.02 0 0 0 8.34,15.357 Z M 6.506,12 a 1,1 0 1 1 -1,1 1,1 0 0 1 1,-1 z m 2.451,6.715 A 0.5,0.5 0 0 1 8.5,19 H 4.513 a 0.5,0.5 0 0 1 -0.457,-0.285 0.458,0.458 0 0 1 0.037,-0.5 3,3 0 0 1 4.827,0 0.458,0.458 0 0 1 0.037,0.5 z"
         id="path16" />
      <path
         d="m 17.834,24.357 a 3,3 0 1 0 -3.668,0 5.018,5.018 0 0 0 -2.187,1.671 2.461,2.461 0 0 0 -0.215,2.587 2.5,2.5 0 0 0 2.242,1.385 h 3.988 a 2.5,2.5 0 0 0 2.242,-1.385 2.461,2.461 0 0 0 -0.215,-2.587 5.018,5.018 0 0 0 -2.187,-1.671 z M 16,21 a 1,1 0 1 1 -1,1 1,1 0 0 1 1,-1 z m 2.451,6.715 A 0.5,0.5 0 0 1 17.994,28 h -3.988 a 0.5,0.5 0 0 1 -0.457,-0.285 0.46,0.46 0 0 1 0.037,-0.5 3,3 0 0 1 4.828,0 0.462,0.462 0 0 1 0.037,0.5 z"
         id="path18" />
    </g>
  </g>
  <metadata
     id="metadata843">
    <rdf:RDF>
      <cc:Work
         rdf:about="">
        <dc:title>Teamwork</dc:title>
      </cc:Work>
    </rdf:RDF>
  </metadata>
</svg>
