<?xml version="1.0" encoding="UTF-8"?>
<svg width="100" height="100" version="1.1" viewBox="0 0 26.46 26.46" xml:space="preserve" xmlns="http://www.w3.org/2000/svg"><path d="m6.3322 25.331c-3.0704-0.61774-5.656-1.1616-5.7458-1.2086-0.21347-0.11172-0.4719-0.42856-0.53525-0.65623-0.0319-0.11479-0.0504-4.2538-0.0506-11.324-3.9e-4 -12.337-0.0257-11.428 0.32924-11.804 0.34047-0.36101-0.27732-0.3394 9.6689-0.33814 8.8826 1e-3 8.9475 2e-3 9.1775 0.10622 0.31273 0.14185 0.40774 0.23484 0.5505 0.53877l0.12139 0.25844-6.3e-4 3.5149c-5.8e-4 3.2991-6e-3 3.5276-0.0955 3.7217-0.39512 0.86133-1.5367 0.89101-1.9884 0.0517-0.10953-0.20353-0.11151-0.25182-0.12661-3.0885l-0.0153-2.8817-8.9116 6e-3 1.9642 0.5937c2.1145 0.63912 2.2167 0.68476 2.4258 1.0833 0.10689 0.20375 0.10704 0.2152 0.12038 9.1851l0.0134 8.9811h4.3887l0.03-5.7663 0.13205-0.25651c0.25929-0.50368 0.83377-0.72227 1.365-0.51939 0.277 0.10579 0.57006 0.41721 0.64434 0.68472 0.0751 0.27055 0.0757 6.9971 6.3e-4 7.2675-0.0706 0.25409-0.33029 0.54623-0.59088 0.66461-0.19238 0.0874-0.41334 0.0942-3.0889 0.0953l-2.8817 1e-3 -5.3e-4 0.65904c-4.7e-4 0.58523-0.0143 0.68867-0.12367 0.92354-0.18515 0.39765-0.58009 0.64653-1.0078 0.6351-0.10236-0.0027-2.6982-0.5104-5.7686-1.1281zm15.3-8.8884c-0.25841-0.11854-0.48231-0.33945-0.58261-0.57485-0.10409-0.24427-0.0985-0.65982 0.0118-0.87993 0.0495-0.0988 0.44218-0.53443 0.87256-0.96797l0.7825-0.78827-3.1524-3.1e-4c-2.063-2e-4 -3.2207-0.0192-3.3499-0.0551-0.10862-0.0302-0.28753-0.13618-0.39757-0.2356-0.55373-0.50026-0.45732-1.3783 0.19331-1.7608l0.24669-0.14498 6.3978-0.0304-0.75685-0.76745c-0.81082-0.82217-0.92457-0.99736-0.92555-1.4254-2e-3 -0.77697 0.80481-1.2938 1.539-0.98607 0.30231 0.1267 3.7021 3.5338 3.8471 3.8553 0.13305 0.2951 0.13321 0.58298 4.7e-4 0.87872-0.1545 0.34428-3.4865 3.6833-3.8476 3.8557-0.30861 0.14736-0.59745 0.15633-0.87873 0.0273z"/></svg>
