<svg width="100" height="100" version="1.1" viewBox="0 0 26.46 26.46" xmlns="http://www.w3.org/2000/svg"><path d="m1.808 26.34c-0.8211-0.2821-1.486-0.9719-1.726-1.79-0.07421-0.253-0.08235-1.372-0.08235-11.33 0-10.86 0.0018-11.05 0.1022-11.37 0.2549-0.8195 0.977-1.527 1.806-1.771 0.253-0.0742 1.372-0.0823 11.33-0.0823 10.86 0 11.05 2e-3 11.37 0.1021 0.8195 0.2549 1.527 0.977 1.771 1.806 0.0742 0.253 0.0824 1.372 0.0824 11.32 0 9.95-8e-3 11.07-0.0824 11.32-0.2433 0.8294-0.9511 1.552-1.771 1.806-0.3229 0.1004-0.5152 0.1021-11.4 0.1008l-11.07-1e-3zm6.098-9.804v-5.943h-3.928v11.89h3.928zm6.615 2.41c0-2.17 0.0202-3.64 0.0524-3.811 0.1189-0.6315 0.5421-1.176 1.136-1.461 0.3034-0.1456 0.3834-0.1612 0.8269-0.1612s0.5234 0.0156 0.8269 0.1612c0.5941 0.2851 1.017 0.8293 1.136 1.461 0.0322 0.171 0.0524 1.641 0.0524 3.811v3.533h3.928v-3.749c0-2.301-0.0212-3.939-0.0549-4.241-0.2567-2.302-2.213-4.106-4.467-4.117-0.6843-4e-3 -1.051 0.083-1.705 0.4026-0.5997 0.2929-1.065 0.6498-1.421 1.089l-0.2842 0.3509-0.0142-0.8108-0.0142-0.8108h-3.925v11.89h3.928zm-8.217-10.68c1.011-0.1612 1.803-0.9572 1.962-1.973 0.2195-1.396-0.8816-2.673-2.307-2.675-0.6692-1e-3 -1.243 0.2462-1.705 0.7347-0.4328 0.4576-0.6385 0.9779-0.6375 1.613 0.0018 1.179 0.8513 2.133 2.067 2.321 0.2303 0.0357 0.2794 0.0341 0.6201-0.0203z" stroke-width=".05168"/></svg>
