<svg width="100" height="100" version="1.1" viewBox="0 0 26.46 26.46" xmlns="http://www.w3.org/2000/svg"><path d="m8.882 26.37c-0.312-0.1253-0.5677-0.3235-0.7422-0.5752-0.07842-0.1132-0.8883-2.197-1.832-4.714l-1.692-4.511-0.4114-0.0258c-0.4589-0.0288-0.6339-0.1118-0.7959-0.3775-0.08329-0.1366-0.1007-0.2612-0.1009-0.7207l-1.94e-4 -0.5556-1.382-2e-4c-1.288-1.8e-4 -1.394-7e-3 -1.551-0.1029-0.09264-0.0565-0.2146-0.1785-0.2711-0.2711-0.0991-0.1625-0.1027-0.2654-0.1027-2.933 0-2.668 0.0036-2.771 0.1027-2.933 0.05648-0.0926 0.1785-0.2146 0.2711-0.2711 0.157-0.0957 0.2626-0.1027 1.551-0.1029l1.382-1.9e-4 1.92e-4 -0.5556c1.95e-4 -0.612 0.06492-0.7963 0.3438-0.9791 0.1333-0.08742 0.4253-0.09534 4.667-0.1267 2.488-0.01838 4.612-0.04999 4.718-0.07026l0.1938-0.03684v10.15l-0.1938-0.0321c-0.1066-0.0177-0.7822-0.0465-1.501-0.064l-1.307-0.0319 1.419 2.842c1.479 2.963 1.576 3.2 1.508 3.676-0.08111 0.5622-0.2058 0.7286-1.488 1.985-0.7748 0.7596-1.284 1.218-1.434 1.292-0.3221 0.1584-1.011 0.1813-1.35 0.0448zm16.31-3.316c-0.0879-0.0563-0.312-0.2827-0.4981-0.503-0.7516-0.8902-2.049-2.061-3.12-2.816-1.799-1.267-4.145-2.296-6.287-2.755l-0.4005-0.086v-10.63l0.4005-0.08628c3.59-0.7734 6.961-2.765 9.376-5.54 0.4542-0.5219 0.6352-0.6371 1.001-0.6371 0.3101 0 0.5617 0.1503 0.6976 0.4166 0.1003 0.1966 0.1018 0.3589 0.1015 11.17l-2e-4 10.97-0.119 0.1966c-0.0654 0.1081-0.1874 0.2417-0.2711 0.2968-0.2086 0.1375-0.6633 0.1359-0.8804-3e-3z" stroke-width=".05168"/></svg>
