<?xml version="1.0" encoding="UTF-8" standalone="no"?>
<svg
   id="_1-10"
   data-name="1-10"
   viewBox="0 0 32 32"
   version="1.1"
   sodipodi:docname="nova-interesovanja.svg"
   inkscape:version="1.1.1 (3bf5ae0d25, 2021-09-20, custom)"
   xmlns:inkscape="http://www.inkscape.org/namespaces/inkscape"
   xmlns:sodipodi="http://sodipodi.sourceforge.net/DTD/sodipodi-0.dtd"
   xmlns="http://www.w3.org/2000/svg"
   xmlns:svg="http://www.w3.org/2000/svg"
   xmlns:rdf="http://www.w3.org/1999/02/22-rdf-syntax-ns#"
   xmlns:cc="http://creativecommons.org/ns#"
   xmlns:dc="http://purl.org/dc/elements/1.1/">
  <defs
     id="defs20" />
  <sodipodi:namedview
     id="namedview18"
     pagecolor="#505050"
     bordercolor="#eeeeee"
     borderopacity="1"
     inkscape:pageshadow="0"
     inkscape:pageopacity="0"
     inkscape:pagecheckerboard="0"
     showgrid="false"
     inkscape:zoom="13.46875"
     inkscape:cx="15.591647"
     inkscape:cy="13.104408"
     inkscape:window-width="1920"
     inkscape:window-height="1055"
     inkscape:window-x="0"
     inkscape:window-y="0"
     inkscape:window-maximized="1"
     inkscape:current-layer="_1-10" />
  <title
     id="title2">Idea</title>
  <g
     id="Idea"
     transform="matrix(1.1428571,0,0,1.1428571,-2.2857136,-2.2857143)">
    <path
       d="M 16,6 A 1,1 0 0 0 17,5 V 3 a 1,1 0 0 0 -2,0 v 2 a 1,1 0 0 0 1,1 z"
       id="path4" />
    <path
       d="m 28.5,14.5 h -2 a 1,1 0 0 0 0,2 h 2 a 1,1 0 0 0 0,-2 z"
       id="path6" />
    <path
       d="m 5.5,14.5 h -2 a 1,1 0 0 0 0,2 h 2 a 1,1 0 0 0 0,-2 z"
       id="path8" />
    <path
       d="M 23.425,9.075 A 0.993,0.993 0 0 0 24.132,8.782 L 25.546,7.368 A 1,1 0 0 0 24.132,5.954 l -1.414,1.414 a 1,1 0 0 0 0.707,1.707 z"
       id="path10" />
    <path
       d="M 7.868,8.782 A 1,1 0 0 0 9.282,7.368 L 7.868,5.954 A 1,1 0 1 0 6.454,7.368 Z"
       id="path12" />
    <path
       d="M 21.669,9.166 A 8.5,8.5 0 1 0 10.646,22.1 3.457,3.457 0 0 1 12,24.744 V 27 a 3,3 0 0 0 3,3 h 2 a 3,3 0 0 0 3,-3 v -2.173 a 3.276,3.276 0 0 1 1.193,-2.6 8.5,8.5 0 0 0 0.476,-13.059 z M 18,27 a 1,1 0 0 1 -1,1 h -2 a 1,1 0 0 1 -1,-1 v -1 h 4 z m 1.971,-6.357 A 5.19,5.19 0 0 0 18.061,24 H 17 v -4 h 1 a 1,1 0 0 0 0,-2 h -4 a 1,1 0 0 0 0,2 h 1 v 4 h -1.056 a 5.546,5.546 0 0 0 -2.039,-3.456 6.5,6.5 0 1 1 8.066,0.1 z"
       id="path14" />
  </g>
  <metadata
     id="metadata837">
    <rdf:RDF>
      <cc:Work
         rdf:about="">
        <dc:title>Idea</dc:title>
      </cc:Work>
    </rdf:RDF>
  </metadata>
</svg>
