<svg width="100" height="100" version="1.1" viewBox="0 0 26.458 26.458" xmlns="http://www.w3.org/2000/svg"><path d="m2.7161 26.424c-0.65307-0.11367-1.2589-0.43558-1.7568-0.9334-0.38926-0.38926-0.62378-0.76067-0.82068-1.2997l-0.13861-0.37945v-8.3293c0-7.9496 0.0044-8.3434 0.09546-8.6397 0.3578-1.1635 1.2168-2.0133 2.3619-2.3366 0.3152-0.08899 0.63622-0.09494 5.1231-0.09494h4.7868l0.25686 0.13217c0.45789 0.23561 0.682 0.76578 0.53924 1.2757-0.08584 0.3066-0.40656 0.63917-0.70133 0.72724-0.16153 0.04826-1.3204 0.06362-4.8 0.06362-5.0169 0-4.7883-0.0134-5.1188 0.30022-0.08085 0.07674-0.19165 0.22632-0.24622 0.33241-0.09672 0.18803-0.09887 0.39581-0.0858 8.2601l0.01341 8.0672 0.1552 0.22035c0.08536 0.12119 0.25781 0.27452 0.38321 0.34072l0.22801 0.12037h8.0128c7.7831 0 8.0183-0.0028 8.2047-0.09873 0.10557-0.0543 0.25473-0.16488 0.33147-0.24574 0.31362-0.33044 0.30022-0.10194 0.30022-5.1188 0-3.4796 0.01536-4.6385 0.06363-4.8 0.08808-0.29478 0.42064-0.61549 0.72724-0.70133 0.50989-0.14276 1.0401 0.08135 1.2757 0.53924l0.13217 0.25686v4.7868c0 5.3447 0.01782 5.0631-0.36685 5.7969-0.4174 0.79624-1.0412 1.3302-1.9152 1.6392l-0.40819 0.14434-8.1999 0.0073c-4.51 4e-3 -8.3047-0.01092-8.4327-0.0332zm6.9234-9.4525c-0.15265-0.0947-0.24967-0.26805-0.24967-0.44609 0-0.16403 0.76427-3.9645 0.82918-4.1232 0.02949-0.07211 2.0317-2.1091 4.4494-4.5267l4.3958-4.3956 3.9057 3.9057-4.3956 4.3958c-2.4176 2.4177-4.4546 4.4199-4.5267 4.4494-0.17182 0.07026-3.9681 0.82959-4.1386 0.8278-0.07221-7.62e-4 -0.19354-0.04-0.26963-0.0872zm12.529-12.716-1.9394-1.9399 0.82732-0.83075c0.45502-0.45691 0.967-0.92314 1.1377-1.0361 1.0815-0.71535 2.5196-0.56459 3.4453 0.36118 0.89617 0.89617 1.0681 2.2409 0.42853 3.3523-0.12351 0.21464-1.8506 2.0331-1.9309 2.0331-0.01612 0-0.90202-0.87294-1.9687-1.9399z" stroke-width=".051734"/></svg>
