<svg width="100" height="100" version="1.1" viewBox="0 0 26.46 26.46" xmlns="http://www.w3.org/2000/svg"><path d="m17.53 26.38c-1.658-0.2519-3.638-1.048-5.829-2.343-5.059-2.99-9.301-7.999-11.1-13.11-0.4415-1.253-0.6033-2.083-0.6033-3.093 0-0.8007 0.0966-1.321 0.3403-1.833 0.1761-0.37 0.2811-0.4887 1.565-1.769 1.641-1.636 1.702-1.677 2.487-1.677 0.8121 0 0.7922-0.01447 2.977 2.167 1.65 1.648 1.885 1.902 2.028 2.199 0.29 0.6003 0.2623 1.223-0.0793 1.776-0.0725 0.1174-0.6524 0.7379-1.289 1.379-0.9228 0.9294-1.157 1.193-1.157 1.302 0 0.2979 0.5913 1.398 1.225 2.28 1.249 1.738 3.236 3.689 4.979 4.888 0.5431 0.3737 1.797 1.036 1.961 1.036 0.0881 0 0.4425-0.3183 1.313-1.179 1.032-1.02 1.241-1.203 1.553-1.357 0.325-0.1596 0.4042-0.1771 0.801-0.1771 0.3909 0 0.4809 0.01917 0.8021 0.1708 0.3339 0.1577 0.5051 0.3147 2.225 2.041 2.101 2.109 2.151 2.174 2.186 2.861 0.0222 0.439-0.0779 0.7944-0.3323 1.18-0.25 0.3789-2.629 2.718-2.935 2.885-0.1384 0.07578-0.4175 0.1995-0.6201 0.275-0.3325 0.1238-0.449 0.1387-1.195 0.1525-0.5248 0.0097-1-0.01103-1.302-0.05688zm1.391-13.74c-0.37-1.554-1.313-2.971-2.647-3.976-0.7256-0.547-1.925-1.077-2.776-1.226-0.1929-0.03391-0.3694-0.07764-0.3921-0.09718s0.0233-0.494 0.1021-1.054l0.1434-1.019 0.2596 0.03483c0.3493 0.04686 1.159 0.2575 1.603 0.4171 2.576 0.926 4.641 3.022 5.525 5.609 0.1579 0.4623 0.4114 1.449 0.3768 1.467-0.0243 0.01271-1.979 0.3356-2.026 0.3348-0.0289-5.08e-4 -0.1049-0.2209-0.1689-0.4897zm5.391-0.2735c-0.554-2.581-1.752-4.787-3.597-6.621-1.88-1.869-4.212-3.093-6.813-3.575-0.2959-0.0549-0.5442-0.106-0.5517-0.1135-0.0294-0.02942 0.2535-1.979 0.2936-2.023 0.0533-0.05877 0.8982 0.08426 1.7 0.2878 2.574 0.6533 4.95 2.01 6.866 3.92 1.873 1.868 3.165 4.043 3.881 6.536 0.2005 0.6979 0.3994 1.609 0.3598 1.648-0.0276 0.02757-1.83 0.3411-1.961 0.3411-0.0736 0-0.1102-0.08194-0.1786-0.4005z" stroke-width=".05168"/></svg>
