<svg width="100" height="100" version="1.1" viewBox="0 0 26.46 26.46" xmlns="http://www.w3.org/2000/svg"><path d="m12.76 26.34c-0.3323-0.2234-2.356-2.71-3.647-4.481-1.744-2.393-3.411-5.236-4.303-7.339-0.8322-1.963-1.246-3.85-1.168-5.323 0.1342-2.525 1.061-4.646 2.789-6.381 1.839-1.847 4.182-2.818 6.799-2.818 2.617 0 4.96 0.9711 6.799 2.818 1.728 1.735 2.655 3.856 2.789 6.381 0.1467 2.759-1.344 6.545-4.344 11.03-1.104 1.652-2.665 3.717-3.963 5.244-0.7596 0.8933-0.8774 0.9837-1.282 0.9837-0.2214 0-0.3385-0.02942-0.4704-0.1181zm1.427-12.07c2.399-0.4952 4.078-2.787 3.798-5.187-0.229-1.97-1.526-3.514-3.448-4.105-0.4159-0.1279-0.5271-0.1398-1.307-0.1398s-0.8914 0.0119-1.307 0.1398c-1.063 0.3269-1.89 0.9024-2.526 1.757-1.422 1.915-1.234 4.527 0.447 6.213 1.146 1.149 2.776 1.645 4.343 1.322z" stroke-width=".05168"/></svg>
