<?xml version="1.0" encoding="UTF-8" standalone="no"?>
<svg
   version="1.1"
   viewBox="0 0 100 100"
   id="svg8"
   xmlns="http://www.w3.org/2000/svg"
   xmlns:svg="http://www.w3.org/2000/svg"
   xmlns:rdf="http://www.w3.org/1999/02/22-rdf-syntax-ns#"
   xmlns:cc="http://creativecommons.org/ns#"
   xmlns:dc="http://purl.org/dc/elements/1.1/">
  <defs
     id="defs12" />
  <title
     id="title2">reddit [#143]</title>
  <desc
     id="desc4">Created with Sketch.</desc>
  <path
     d="m42.79 99.51c-2.721-0.4232-6.578-1.324-7.201-1.682-0.1997-0.1148-0.0408-0.5267 0.6457-1.674 1.51-2.524 4.066-7.85 4.711-9.819 0.3338-1.017 1.252-4.316 2.04-7.33s1.479-5.605 1.535-5.759c0.068-0.186 0.2956-0.01234 0.6807 0.5193 1.389 1.918 4.591 3.785 7.614 4.439 2.096 0.4539 6.403 0.3151 8.651-0.2788 9.986-2.638 17.13-10.83 19.6-22.48 2.306-10.89-0.2986-20.75-7.333-27.76-7.541-7.521-18.76-10.52-30.71-8.217-12.77 2.464-21.87 11.27-24.28 23.52-0.5312 2.701-0.6277 7.037-0.2127 9.561 0.8853 5.386 3.439 10.55 6.681 13.51 1.96 1.792 4.078 2.761 4.51 2.063 0.2988-0.4834 1.677-6.718 1.557-7.041-0.0696-0.1866-0.4667-0.8416-0.8823-1.455-2.261-3.339-3.454-8.306-3.018-12.56 0.8962-8.734 6.263-15.56 14.4-18.33 2.54-0.8622 4.791-1.199 8.016-1.2 6.188-0.0012 10.86 1.733 14.79 5.485 5.056 4.835 6.915 11.74 5.507 20.45-1.196 7.395-4.83 13.29-9.669 15.67-5.267 2.597-10.3 1.467-12.39-2.783-0.5919-1.202-0.664-1.533-0.6497-2.98 0.0168-1.706 0.1726-2.347 2.122-8.731 1.555-5.091 2.076-7.462 2.097-9.538 0.0336-3.321-1.065-5.45-3.407-6.603-1.252-0.6166-1.423-0.6475-3.123-0.5663-1.42 0.06787-2.031 0.2-2.906 0.6281-1.949 0.9537-3.738 3.017-4.791 5.526-1.364 3.25-1.392 8.299-0.0674 12.14l0.4078 1.183-1.403 6.021c-0.7716 3.312-2.135 9.132-3.029 12.93-1.026 4.36-1.714 7.77-1.863 9.234-0.2259 2.212-0.1626 6.357 0.1461 9.582l0.1317 1.376-1.634-0.6891c-2.407-1.015-7.129-3.795-9.468-5.574-6.061-4.609-11.83-11.62-15.12-18.38-2.768-5.684-3.866-9.288-4.895-16.05-0.3776-2.483-0.3312-9.461 0.0831-12.47 2.411-17.54 13.51-32.24 29.66-39.28 9.63-4.201 20.18-5.211 30.54-2.925 3.207 0.7073 5.499 1.432 6.494 2.054 0.3907 0.2442 1.669 0.8668 2.841 1.384 5.711 2.519 10.75 6.075 15.42 10.88 6.289 6.472 10.36 13.75 12.58 22.49 1.101 4.331 1.487 7.528 1.485 12.29-5e-3 10.97-3.367 21.03-10.01 29.96-1.784 2.397-6.959 7.637-9.233 9.351-7.498 5.651-15.87 9.067-24.77 10.11-3.882 0.4541-9.234 0.3742-12.88-0.1922z"
     stroke-width=".2029"
     id="path6" />
  <metadata
     id="metadata829">
    <rdf:RDF>
      <cc:Work
         rdf:about="">
        <dc:title>reddit [#143]</dc:title>
      </cc:Work>
    </rdf:RDF>
  </metadata>
</svg>
