<?xml version="1.0" encoding="UTF-8" standalone="no"?>
<svg version="1.1" viewBox="0 0 100 100" xmlns="http://www.w3.org/2000/svg" xmlns:svg="http://www.w3.org/2000/svg">
<path id="c" d="m 65.15,62.5 c -3.81,0 -7.005,-3.129 -7.005,-6.99 0,-3.864 3.195,-7.095 7.005,-7.095 3.805,0 6.89,3.2305 6.89,7.095 0,3.859 -3.08,6.99 -6.89,6.99 m 0.97,12.91 c -3.365,3.408 -8.64,5.065 -16.12,5.065 -7.485,0 -12.755,-1.658 -16.115,-5.065 -0.73,-0.7405 -0.73,-1.937 0,-2.6825 0.725,-0.7405 1.91,-0.7405 2.64,0 2.625,2.6625 7.03,3.9605 13.475,3.9605 6.44,0 10.85,-1.298 13.48,-3.9605 0.725,-0.7405 1.91,-0.7405 2.64,0 0.73,0.7455 0.73,1.942 0,2.6825 M 27.965,55.51 c 0,-3.859 3.19,-7.095 6.995,-7.095 3.805,0 6.89,3.2355 6.89,7.095 0,3.8595 -3.085,6.99 -6.89,6.99 -3.805,0 -6.995,-3.129 -6.995,-6.99 m 72.05,-7.68 c 0,-6.335 -5.08,-11.485 -11.325,-11.485 -2.88,0 -5.595,1.0905 -7.675,3.0425 -7.475,-4.934 -17.485,-8.125 -28.57,-8.56 l 6.115,-18.93 16.06,3.8335 c 0.005,5.215 4.185,9.45 9.325,9.45 5.14,0 9.325,-4.2445 9.325,-9.46 0,-5.2155 -4.185,-9.46 -9.325,-9.46 -3.85,0 -7.155,2.373 -8.58,5.755 -3.46,-0.8265 -15.83,-3.783 -19.29,-4.6095 l -7.55,23.38 c -11.505,0.22 -21.93,3.3925 -29.685,8.445 -2.055,-1.851 -4.715,-2.8855 -7.505,-2.8855 -6.24,0 -11.32,5.15 -11.32,11.485 0,4.021 2.07,7.71 5.38,9.775 -3.015,18.06 17.97,33.655 44.41,33.655 26.33,0 47.245,-15.455 44.455,-33.43 3.54,-2.013 5.755,-5.785 5.755,-10.005" /></svg>
