<?xml version="1.0" encoding="UTF-8" standalone="no"?>
<svg
   width="26.459999"
   height="26.459999"
   version="1.1"
   viewBox="0 0 7.0013158 7.0013158"
   id="svg4"
   sodipodi:docname="rss.svg"
   inkscape:version="1.1.2 (0a00cf5339, 2022-02-04, custom)"
   xmlns:inkscape="http://www.inkscape.org/namespaces/inkscape"
   xmlns:sodipodi="http://sodipodi.sourceforge.net/DTD/sodipodi-0.dtd"
   xmlns="http://www.w3.org/2000/svg"
   xmlns:svg="http://www.w3.org/2000/svg">
  <defs
     id="defs8" />
  <sodipodi:namedview
     id="namedview6"
     pagecolor="#505050"
     bordercolor="#eeeeee"
     borderopacity="1"
     inkscape:pageshadow="0"
     inkscape:pageopacity="0"
     inkscape:pagecheckerboard="0"
     showgrid="false"
     inkscape:zoom="4.44"
     inkscape:cx="1.1261261"
     inkscape:cy="16.779279"
     inkscape:window-width="1083"
     inkscape:window-height="1053"
     inkscape:window-x="835"
     inkscape:window-y="0"
     inkscape:window-maximized="1"
     inkscape:current-layer="svg4" />
  <path
     d="m 1.5162108,1.5161843 v 0.7218722 c 1.7931701,0 3.2470749,1.4539048 3.2470749,3.247075 h 0.7218722 c 0,-2.1910708 -1.7778764,-3.9689472 -3.9689471,-3.9689472 z m 0,1.4436913 v 0.7218721 c 0.9947772,0 1.8033837,0.8086065 1.8033837,1.8033838 h 0.7218721 c 0,-1.3952703 -1.1299855,-2.5252559 -2.5252558,-2.5252559 z M 2.62831,4.9290554 A 0.55607595,0.55607595 0 0 1 2.0722339,5.4851315 0.55607595,0.55607595 0 0 1 1.5161579,4.9290554 0.55607595,0.55607595 0 0 1 2.0722339,4.3729791 0.55607595,0.55607595 0 0 1 2.62831,4.9290554 Z"
     stroke-width="0.25507"
     id="path2" />
</svg>
