<?xml version="1.0" encoding="UTF-8"?>
<svg width="100" height="100" version="1.1" viewBox="0 0 26.46 26.46" xml:space="preserve" xmlns="http://www.w3.org/2000/svg"><path d="m10.276 26.37c-0.1053-0.0526-0.21762-0.16593-0.26882-0.27124-0.054294-0.11168-0.18282-0.85084-0.33592-1.9319l-0.24798-1.751-0.62016-0.31755c-0.6301-0.32264-0.87512-0.47048-1.3515-0.81543l-0.26621-0.19277-1.5885 0.64379c-0.87367 0.35408-1.6775 0.66774-1.7862 0.69702-0.23198 0.06247-0.47097-0.01676-0.6467-0.2144-0.12521-0.14082-2.6323-4.4732-2.7458-4.745-0.0947-0.22666-0.05367-0.49551 0.10115-0.66267 0.06508-0.07027 0.73976-0.61504 1.4993-1.2106l1.381-1.0828-0.03729-0.24196c-0.0483-0.31341-0.04828-1.7727 3e-5 -2.0862l0.03732-0.24218-1.381-1.083c-0.75955-0.59566-1.4342-1.1403-1.4993-1.2104-0.15479-0.16661-0.19587-0.43557-0.10115-0.66227 0.13183-0.31552 2.6311-4.6165 2.7686-4.7645 0.0728-0.07835 0.21273-0.16464 0.31095-0.19176 0.22513-0.06216 0.32232-0.02968 2.2223 0.74266l1.4648 0.59544 0.2665-0.19298c0.47665-0.34517 0.72157-0.49295 1.3518-0.81564l0.62016-0.31755 0.24798-1.751c0.1531-1.0811 0.28163-1.8202 0.33592-1.9319 0.17906-0.36828 0.11956-0.36159 3.2154-0.36168 2.5878-7.5e-5 2.7771 6e-3 2.9432 0.0951 0.09761 0.05235 0.21826 0.17444 0.26813 0.27132 0.0594 0.1154 0.17615 0.78002 0.33853 1.9272l0.24786 1.751 0.62016 0.31755c0.6301 0.32264 0.87512 0.47048 1.3515 0.81543l0.26621 0.19277 1.5885-0.64379c0.87367-0.35408 1.6767-0.66753 1.7845-0.69656 0.23318-0.06279 0.54102 0.03914 0.67261 0.22271 0.16452 0.2295 2.6511 4.5644 2.724 4.7488 0.10726 0.27126 0.04852 0.50235-0.18358 0.72225-0.10634 0.10075-0.78058 0.64165-1.4983 1.202l-1.305 1.0188 0.03882 0.29384c0.0501 0.37923 0.0501 1.6038-8e-6 1.9831l-0.03883 0.29391 1.4084 1.1049c0.77459 0.6077 1.4627 1.1847 1.5291 1.2823 0.09101 0.13375 0.11454 0.2247 0.09558 0.36952-0.02712 0.20725-2.5811 4.7042-2.8188 4.9633-0.07188 0.07835-0.21107 0.16464-0.30929 0.19176-0.22389 0.06182-0.31126 0.03274-2.2213-0.73935l-1.4638-0.59171-0.56823 0.38401c-0.31252 0.21121-0.81854 0.50483-1.1245 0.6525l-0.55624 0.26849-0.24932 1.774c-0.1598 1.1371-0.2803 1.8318-0.33562 1.935-0.04747 0.08851-0.16554 0.20342-0.26239 0.25536-0.16425 0.08809-0.36184 0.09443-2.9418 0.09435-2.5295-5.2e-5 -2.7811-0.0078-2.9466-0.09044zm4.0247-8.6488c1.7014-0.38967 3.0851-1.8102 3.4431-3.5347 0.30402-1.4644-0.13768-3.0416-1.1533-4.1182-1.5669-1.6609-4.1096-1.9343-6.0044-0.6454-0.34528 0.23486-0.86021 0.74215-1.1159 1.0994-0.99934 1.3961-1.1538 3.2208-0.40165 4.7445 0.96293 1.9507 3.085 2.9462 5.2322 2.4544z"/></svg>
