<svg width="100" height="100" version="1.1" viewBox="0 0 26.46 26.46" xmlns="http://www.w3.org/2000/svg"><path d="m6.581 23.92c-2.2-0.2682-4.561-1.089-6.295-2.189l-0.2861-0.1814 1.213-1.9e-4c0.9407-1.3e-4 1.385-0.0303 1.982-0.1346 0.9048-0.1582 2.091-0.54 2.904-0.9341 0.6246-0.3031 1.772-1.029 1.772-1.121 0-0.0309-0.2019-0.0732-0.4487-0.0939-1.71-0.1433-3.55-1.558-4.256-3.272-0.1058-0.2565-0.1848-0.4728-0.1756-0.4808 9e-3 -8e-3 0.1906 0.0116 0.4032 0.0435 0.3829 0.0575 1.289 0.0221 1.713-0.0668l0.2197-0.0462-0.1933-0.0493c-0.4142-0.1057-1.051-0.393-1.476-0.6665-1.434-0.9211-2.372-2.481-2.521-4.193l-0.0459-0.5267 0.4372 0.1982c0.4966 0.2252 1.298 0.4455 1.621 0.4455h0.2173l-0.4725-0.4671c-0.7274-0.7191-1.233-1.534-1.529-2.464-0.1043-0.3281-0.1519-0.6704-0.1746-1.256-0.0356-0.9185 0.0429-1.403 0.3609-2.227 0.3406-0.8834 0.2561-0.8896 1.199 0.089 0.987 1.024 1.556 1.507 2.632 2.233 2.117 1.427 4.517 2.27 7.169 2.519l0.4598 0.0431-0.0544-0.2814c-0.0849-0.4394-0.0691-1.414 0.0313-1.939 0.3448-1.802 1.593-3.329 3.285-4.019 1.751-0.7137 3.837-0.4401 5.353 0.702 0.2126 0.1601 0.4543 0.3636 0.537 0.4522l0.1505 0.1611 0.5904-0.1611c0.789-0.2153 1.633-0.5446 2.29-0.8939l0.5396-0.2869-0.0414 0.2072c-0.132 0.6598-0.9368 1.817-1.676 2.41-0.2738 0.2196-0.3902 0.3474-0.3162 0.3474 0.2255-1.3e-4 1.412-0.3149 2.07-0.5493 0.3656-0.1301 0.6758-0.2254 0.6895-0.2117 0.0137 0.0137-0.1639 0.2801-0.3946 0.5921-0.4709 0.6368-1.191 1.385-1.855 1.927l-0.4445 0.363 0.0134 0.5079c0.0562 2.124-0.6017 4.917-1.665 7.068-2.275 4.602-6.111 7.447-11.21 8.316-0.7195 0.1225-3.556 0.1795-4.316 0.0867z" stroke-width=".06442"/></svg>
