<svg width="100" height="100" version="1.1" viewBox="0 0 26.46 26.46" xmlns="http://www.w3.org/2000/svg"><path d="m10.01 26.1c-0.5429-0.1259-1.956-0.6584-2.618-0.9865-1.413-0.7007-2.374-1.393-3.515-2.532-0.7502-0.7486-1.43-1.594-1.938-2.409-0.2076-0.3333-0.8441-1.558-0.8441-1.624 0-0.0157 1.262-0.0285 2.804-0.0285h2.804l0.1253 0.5658c0.3075 1.388 0.8741 3.049 1.392 4.081 0.5443 1.084 1.069 1.845 1.754 2.544 0.4321 0.4409 0.4358 0.4822 0.0354 0.3894zm6.478-0.3638c0.9168-0.9288 1.629-2.102 2.289-3.768 0.3229-0.8155 0.7248-2.15 0.8931-2.964l0.0998-0.483h2.807c1.544 0 2.807 9e-3 2.807 0.0209 0 0.1454-0.685 1.401-1.118 2.049-0.6542 0.9794-1.622 2.056-2.532 2.819-1.337 1.12-3.181 2.089-4.926 2.588-0.7591 0.2172-0.7776 0.2021-0.3193-0.2622zm-3.884-0.224c-0.9518-0.3144-1.901-1.299-2.699-2.797-0.4862-0.914-1.063-2.515-1.348-3.739l-0.1058-0.4554h9.575l-0.0791 0.345c-0.7312 3.19-2.165 5.701-3.699 6.48-0.3735 0.1896-0.4562 0.2098-0.9171 0.224-0.3132 0.01-0.5908-0.0122-0.7274-0.0574zm-12.28-9.241c-0.2301-0.9532-0.2932-1.471-0.3226-2.644-0.0371-1.483 0.0926-2.746 0.3832-3.731l0.061-0.207h5.959l-0.0362 0.4002c-0.0199 0.2201-0.0607 0.6734-0.0907 1.007-0.0703 0.7841-0.0703 3.466 0 4.25 0.0299 0.334 0.0707 0.7873 0.0907 1.007l0.0362 0.4002h-5.965zm7.806 0.3588c-0.0982-0.4358-0.1949-2.127-0.1949-3.409 0-1.281 0.0967-2.973 0.1949-3.409l0.028-0.1242h10.15l0.028 0.1242c0.0982 0.4357 0.1949 2.127 0.1949 3.409 0 1.281-0.0967 2.973-0.1949 3.409l-0.028 0.1242h-10.15zm11.97-0.2952c0.0209-0.2306 0.0607-0.6716 0.0886-0.9798 0.0654-0.7246 0.0654-3.543 0-4.267-0.0278-0.3082-0.0677-0.7492-0.0886-0.9798l-0.038-0.4194h5.965l0.1167 0.483c0.2757 1.141 0.3077 1.458 0.3077 3.05 0 1.592-0.032 1.909-0.3077 3.05l-0.1167 0.483h-5.965zm-19.01-8.443c0-0.0169 0.1356-0.3014 0.3014-0.6323 0.6589-1.315 1.338-2.251 2.428-3.344 0.4265-0.4279 0.951-0.9159 1.165-1.084 1.331-1.046 3.001-1.903 4.599-2.361 0.8489-0.2434 0.8658-0.2333 0.4011 0.2375-0.9168 0.9288-1.629 2.102-2.289 3.768-0.3229 0.8155-0.7248 2.15-0.8931 2.964l-0.0998 0.483h-2.807c-1.544 0-2.807-0.0138-2.807-0.0307zm7.463-0.4247c0.2846-1.224 0.8615-2.825 1.348-3.739 0.6738-1.267 1.534-2.244 2.315-2.63 0.4206-0.2078 0.4498-0.214 1.018-0.214 0.5638 0 0.6004 7e-3 0.9965 0.2039 1.53 0.7589 2.979 3.292 3.712 6.489l0.0791 0.345h-9.575zm11.09-0.1104c-0.6323-2.854-1.791-5.284-3.184-6.679-0.4381-0.4385-0.4169-0.4489 0.4238-0.208 1.284 0.368 2.601 0.9847 3.74 1.752 0.8574 0.5769 1.368 1.004 2.108 1.763 0.9903 1.016 1.668 1.956 2.289 3.175 0.1961 0.3849 0.3565 0.7141 0.3565 0.7314 0 0.0174-1.262 0.0315-2.804 0.0315h-2.804z" stroke-width=".0552"/></svg>
