<svg width="26.46mm" height="26.46mm" version="1.1" viewBox="0 0 26.46 26.46" xmlns="http://www.w3.org/2000/svg"><g transform="translate(-18.27 -61.59)"><path d="m27.57 84.1c-2.3-0.1136-6.081-0.45-6.744-0.6-0.8737-0.1978-1.71-0.9445-2.033-1.815-0.2513-0.6774-0.5248-4.252-0.5248-6.859 0-2.607 0.2735-6.182 0.5248-6.859 0.3229-0.8702 1.16-1.618 2.033-1.814 0.3487-0.07857 2.428-0.2985 3.999-0.423 4.214-0.3339 8.864-0.3419 13.08-0.02256 1.391 0.1054 3.936 0.3711 4.263 0.4452 0.8737 0.1978 1.71 0.9445 2.033 1.815 0.2513 0.6774 0.5248 4.252 0.5248 6.859 0 2.608-0.2736 6.183-0.525 6.859-0.32 0.8611-1.177 1.627-2.033 1.816-0.3322 0.07345-2.893 0.3401-4.263 0.4439-3.097 0.2346-7.411 0.2992-10.34 0.1548zm5.058-7.078c1.793-1.194 3.259-2.182 3.259-2.196 0-0.02592-6.478-4.352-6.565-4.384-0.02729-0.01012-0.04648 1.8-0.04648 4.384 0 2.584 0.01918 4.394 0.04648 4.384 0.02556-0.0095 1.513-0.9939 3.306-2.188z" stroke-width=".05168"/></g></svg>
